<?xml version="1.0" standalone="yes"?>
<svg xmlns="http://www.w3.org/2000/svg" width="740" height="404">
<path style="fill:#435759; stroke:none;" d="M290 9C293.629 10.5088 297.214 9.07343 301 9.80322C309.089 11.3625 316.874 13.4859 325 15C322.891 11.9179 319.522 11.0826 316 10.0363C307.298 7.45108 298.875 7.87836 290 9M243 34C254.503 29.2743 264.761 22.1723 277 19.2354C284.725 17.3815 293.007 14.6951 301 16.5293C321.033 21.1266 332.86 43.0331 327.961 62C319.364 95.2809 295.071 123.345 280.406 154C275.578 164.091 269.914 173.527 269 185C274.556 181.105 274.932 170.06 278.09 164C280.91 158.587 283.262 152.19 286.659 147.17C289.917 142.355 294.098 138.126 296.869 132.961C298.831 129.303 299.248 125.109 301.129 121.464C304.358 115.204 310.547 109.192 311 102C316.387 100.174 320.138 93.492 319 88C325.085 85.0392 327.978 79.2054 330 73C328.112 69.403 330.889 63.9383 331.532 60C332.501 54.0645 332.148 41.651 329.486 36.1844C328.262 33.67 325.75 32.059 324.03 29.9051C315.109 18.7332 301.929 11.4698 287 13.1852C279.284 14.0717 273.03 18.354 266 21.2006C260.68 23.3548 255.964 25.9689 251 28.8048C248.075 30.4759 245.017 31.2578 243 34M273.667 14.3333C273.222 14.7777 274.278 14.7222 274.333 14.6667C274.778 14.2222 273.722 14.2779 273.667 14.3333M327 14L328 15L327 14M329 15C330.458 16.0811 331.248 16.436 333 17C331.542 15.9189 330.752 15.5639 329 15M265 18C267.533 18.5367 269.512 17.7796 272 17C269.467 16.4633 267.488 17.2204 265 18M334 17L335 18L334 17M336 18L337 19L336 18M257 22C259.603 22.2581 261.581 21.0674 264 20C261.236 19.5298 259.447 20.631 257 22M338 19L339 20L338 19M320 20C324.392 24.0425 328.618 29.9287 335 29C335.878 31.0175 336.651 32.2324 338 34L333 32C333.526 34.5431 333.878 35.535 336 37C334.475 44.8434 335.319 53.8906 334.961 62C334.665 68.6918 333.138 75.2937 333 82C326.679 83.9526 318.749 97.5838 319 104C313.928 106.072 309.418 114.211 307.222 119.222C305.926 122.181 304.181 125.165 308 126C300.842 129.404 297.171 139.021 294 146L298 147C292.721 147.598 289.139 149.182 289 155C286.288 157.475 288.711 160.117 290 163L286 160C285.519 162.201 285.519 162.799 286 165L283 164C280.963 169.924 274.347 178.035 277.603 184.682C279.966 189.504 288.085 185.982 291.13 183.87C296.916 179.856 301.366 173.826 306.428 168.976C311.157 164.446 315.999 161.983 317 155C323.038 154.007 327.688 148.173 331.865 143.975C339.031 136.773 347.069 128.241 355.131 122.093C359.984 118.393 368.981 116.088 371 110L376 110L377 105L381 106L381 102C383.021 102.881 384.854 103.496 387 104L388 100C389.479 100.986 389.203 101 391 101L391 96C393.299 97.4975 394.284 97.4984 397 97L397 92L401 95L400 91L404 94C402.595 90.7136 401.155 88.7041 398 87L399 90C397.075 86.7527 396.408 82.9175 393.841 80.054C390.03 75.8029 385.054 74.0385 382 69L379 70C377.614 63.2511 370.427 56.213 364 54L368 61C363.395 58.2133 364.01 53.3307 361.495 49.0394C358.179 43.3834 352.965 39.8396 348.498 35.2909C345.312 32.0459 344.482 28.8315 340 27L341 32C338.878 29.6156 337.68 28.091 337 25C331.078 21.8735 326.554 21.2167 320 20M340 20C344.647 25.3181 350.803 29.2161 356 34L350 31C353.493 37.0908 360.069 37.5444 364.726 42.3009C375.829 53.642 385.172 67.2202 397.576 77.4553C405.266 83.8008 416.87 88.9569 417 100C405.192 101.183 395.04 107.253 385.791 113.957C382.603 116.267 377.53 116.732 377 121C372.927 121.673 367.672 121.948 364.039 123.988C359.758 126.393 357.566 130.895 353 133C353.183 138.132 343.458 140.434 340 143C337.671 144.728 335.832 147.687 333.833 149.833C331.827 151.989 330.258 154.958 328 156.833C326.471 158.104 324.517 158.449 323.167 160C321.666 161.724 321.269 164.137 319.667 165.833C317.916 167.687 315.267 168.705 313.333 170.333C309.131 173.873 305.43 177.922 301.167 181.333C297.793 184.032 295.838 187.267 292 189.333C288.198 191.38 283.596 195.599 279 195C275.59 194.555 270.93 189.457 269 187C265.656 195.214 275.079 197.073 281 199L281 201C272.841 203.332 265.723 207.134 257 207L258 210L251 215C251.318 217.877 251.62 219.334 254 221C254.674 218.703 254.965 218.226 257 217L255 224L257 224L256 227C253.434 224.948 251.224 224.419 248 224C248.074 230.691 251.145 236.599 252.853 243.001C253.494 245.404 255.068 248.014 254.643 250.56C253.903 254.985 248.587 258.143 245 260C243.96 256.838 240.273 252.523 241.367 249.129C242.309 246.208 245.698 245.064 246.552 241.946C247.345 239.054 246.47 236.646 248 234C245.562 225.455 244.083 218.676 235 216C236.218 213.882 236.867 213.155 239 212L237 198C238.635 198.545 238.455 198.365 239 200L243 200C239.117 195.625 234.056 192.415 229.715 188.486C222.342 181.814 215.231 174.628 207 169C211.642 175.59 218.071 180.927 224.039 186.309C226.454 188.486 230.624 190.579 231.4 193.997C232.152 197.311 228.493 198.942 226.93 201.259C225.076 204.007 224.192 207.863 223.194 211C218.844 224.678 221.578 235.379 223.725 249C224.836 256.047 228.675 266.344 236 269C235.88 279.837 227.339 289.722 220.441 297.572C213.852 305.068 206.716 313.201 199 319.535C186.807 329.546 172.56 337.078 159 345C162.34 345.556 165.117 343.67 168 341.988C173.731 338.645 179.368 335.083 185 331.575C205.798 318.621 221.317 300.888 235.279 281C243.971 268.619 255.078 250.878 272 250C270.204 255.637 266.595 259.745 267.059 266C268.001 278.718 281.105 290.621 288.552 300C291.768 304.051 294.31 308.618 299 311C291.235 298.529 279.228 287.365 275.529 273C274.581 269.317 271.364 261.97 274.607 258.742C277.039 256.322 281.185 257.182 284 258.283C290.632 260.878 296.632 266.731 302 271.299C308.812 277.097 315.368 278.917 322.91 283.171C339.888 292.745 355.36 302.954 374 309.305C380.211 311.421 387.483 312.308 394 313.05C396.975 313.389 402.158 313.179 404.627 315.027C408.907 318.23 401.838 325.402 399 327C397.257 335.026 391.078 339.641 386.591 346.09C381.927 352.792 378.336 360.824 372.622 366.737C368.286 371.223 362.312 373.656 357.464 377.398C352.757 381.031 348.886 385.487 344 389C350.312 389.39 357.258 383.003 362 379.349C376.703 368.02 389.023 353.804 400.127 339C403.7 334.235 408.227 324.485 413.869 322.06C417.085 320.678 419.532 325.016 421.289 327.001C425.409 331.653 430.407 336.773 437 336C429.788 331.406 427.025 327.834 427 319C429.118 321.043 431.371 324.069 430 327L433 329C432.315 330.248 432.251 330.549 432 332C435.575 331.854 437.995 331.882 440 335C444.514 334.265 446.914 332.814 446 328C449.205 328.307 451.108 328.75 453 326L445 325C447.078 320.527 448.971 318.899 454 319C450.595 315.164 445.194 319.691 441 317C443.324 316.972 443.597 316.844 445 315L442 315C442.575 312.604 442.475 312.513 440 312L441 315L440 316C437.835 315.855 437.817 315.843 436 317C435.804 314.777 436.365 313.976 437 312L433 313C434.955 310.883 437.367 309.351 439 307C436.67 307.315 435.082 307.902 433 309L434 305C430.61 305.253 427.337 305.278 424 306C424.673 302.551 424.265 299.478 424 296C422.27 296.881 422.111 297.258 421 299C419.728 293.671 419.879 288.441 420 283C417.1 287.841 417.24 295.407 417 301L414 288C415.479 288.986 415.203 289 417 289L415 282C413.185 283.815 413.602 287.331 412 290L411 289L414 295C410.603 292.407 407.689 289.11 404 287L404 290C402.344 288.314 401.749 287.254 401 285C399.688 287.501 399.545 289.224 400 292C397.323 289.989 388.986 283.045 388 288C386.285 286.45 385.177 285.756 383 285C383 286.797 383.014 286.522 384 288C381.274 287.283 379.38 287.943 379 285C378.317 286.506 378.174 287.315 378 289C375.539 285.37 371.317 284.016 368.894 280.61C366.698 277.526 365.513 272.539 364 269C363.378 270.943 363.564 271.949 364 274C361.159 272.661 359.623 271.692 358 269L360 270L360 261C359.089 262.377 358.596 263.44 358 265C356.662 262.34 355.621 259.909 355 257C352.124 261.203 350.963 268.041 352 273C349.529 270.84 348.213 269.049 347 266C342.885 266.895 339.155 266.178 335 266C337.281 264.633 339.558 262.611 342.09 261.759C345.063 260.758 348.019 261.201 351 260C349.502 259.521 349.65 259.6 348 260L347 255L351 255C348.174 249.952 344.888 248.408 346 242C340.375 241.623 334.511 239.487 329 241L329 238C326.386 239.684 325.635 240.956 325 244C324.61 241.779 324.665 240.246 325 238C322.712 238.29 321.522 238.333 320 240C315.583 238.828 311.417 238.717 309 243C306.85 240.752 305.895 239.678 303 241L302 237C299.434 237.387 298.169 238.479 297 236C294.817 237.637 294.552 236.238 294 239L293 235C290.308 235.751 289.917 236.232 290 239L287 236L284 239L284 235C281.281 236.573 280.627 237.925 280 241C275.271 238.393 276.001 233.884 276 229C274.787 231.89 275.002 234.874 275 238C272.363 238.853 270.43 240.653 268 242L268 234C271.864 233.7 273.348 232.911 274 229C273.089 230.377 272.596 231.44 272 233C271.21 230.805 270.991 229.341 271 227L266 230L265 229L267 226C264.362 223.006 270.177 223.692 272 224C269.591 219.627 268.444 216.009 269 211C267.125 211.547 265.745 212.11 264 213C266.864 210.313 270.864 210.308 273 207C279.703 206.61 281.703 200.144 289 204L283 206C282.62 210.821 282.678 216.295 281.701 221C280.579 226.41 278.946 229.301 280 235C281.819 233.636 281.031 233.508 283 234L285 230C282.543 228.875 282.543 228.125 285 227C284.35 225.7 284.853 226 283 226C286.122 224.778 287.732 224.173 289 221C291.726 222.363 290.646 221 293 221C293.895 221 293.386 223.072 294 220L297 221C297.202 219.15 297.202 217.85 297 216C300.416 215.863 303.61 215.46 307 216C308.277 214.085 308.277 214.915 307 213C310.078 213.064 312.975 213.438 316 214C316 212.203 315.986 212.479 315 211C316.383 212.615 317.115 214.038 318 216C320.768 215.101 323.415 214.355 326 213L327 218C328.639 216.131 329.536 214.694 332 215C332.683 213.494 332.826 212.685 333 211C334.186 212.036 334.604 212.339 336 213C336.986 211.522 337 211.797 337 210L340 211C341.395 208.962 342.349 207.373 343 205C344.023 206.534 343.805 206.402 345 207C347.15 205.451 349.11 203.857 351 202L352 204L355 202C354.014 203.479 354 203.203 354 205L357 204C356.066 205.723 355.465 207.106 355 209C357.541 207.386 358.8 205.761 360 203C357.877 203.073 357.75 203.087 358 201L355 200C356.916 199.081 356.791 198.631 358 200C360.324 198.519 361.581 197.353 363 195C364.635 195.545 364.455 195.365 365 197C366.96 191.253 365.801 184.802 373 183L373 187C375.132 186.223 375.771 185.87 377 184C377.281 187.441 376.245 189.83 375 193C377.423 193.181 377.758 193.056 380 192C378.782 194.118 378.133 194.845 376 196C376.281 198.673 378.748 208.88 380 206C382.017 207.253 382.623 207.311 385 207C385.99 208.822 386.867 208.716 389 209L386 199C387.674 200.411 388.969 201.175 391 202C390.006 199.797 390.33 199.952 388 200C389.212 197.845 393.467 191.625 390 191C390.599 187.383 390.249 185.806 387 184L388 189C386.681 186.766 386.402 185 384 185C385.579 178.47 386.962 173.138 395 174C391.578 176.149 389.594 178.276 388 182C389.635 182.545 389.455 182.365 390 184L395 181L393 178L396 179C398.131 176.644 399.986 175.973 403 175L403 182C403.985 179.668 403.981 177.543 404 175L405 177C405.999 175.141 408.186 164.804 411 167C412.622 165.923 413.498 164.87 415 166C416.594 164.117 417.648 162.734 420 162C419.562 158.608 418.857 155.312 418 152C420.132 151.223 420.771 150.87 422 149C419.33 149.534 419.557 148.215 419 151C417.247 149.67 416.33 148.753 415 147L411 149C412.043 146.905 412.603 145.301 413 143C411.634 144.631 410.858 146.038 410 148L406 147C410.487 144.25 414.741 141.084 419 138C419.176 139.878 419.438 141.199 420 143C418.365 142.455 418.545 142.635 418 141C417.594 142.659 417.691 143.242 418 145L420 145C420.642 142.644 420.8 140.434 421 138L422 142C423.797 142 423.521 141.986 425 141L425 144L427 144L427 140C428.222 142.301 429.159 144.533 430 147C425.633 149.351 424.957 153.38 424 158L428 159C428.674 156.703 428.965 156.226 431 155C430.438 156.801 430.176 158.122 430 160C431.401 157.786 432.181 155.496 433 153C434.023 154.534 433.805 154.402 435 155C436.186 153.814 436.528 153.416 437 152C435.755 150.802 435.926 150.866 436 149C434.805 150.223 434.684 150.42 434 152C434.069 147.529 436.966 143.445 438 139C435.66 140.749 433.558 142.585 431 144C431.545 142.365 431.365 142.545 433 142C432.362 136.734 435.665 134.7 437 130L438 134C440.872 132.191 441.553 130.33 442 127C447.468 125.884 444.519 120.736 443 117C446.403 116.271 445.987 114.194 446 111C448.403 110.832 449.46 110.803 451 109L455 111L456 108L462 111C465.584 109.709 467.565 111.313 468 115C470.593 115.508 472.408 115.508 475 115C474.014 116.478 474 116.203 474 118L478 115L477 110C480.449 110.673 483.522 110.265 487 110C487.441 113.852 488.436 115.427 492 117C491.098 115.077 490.924 115.001 489 114C492.832 113.639 495.511 115.259 499.17 115.568C503.285 115.915 507.872 115.933 512 116C513.034 119.68 513.833 123.173 514 127C511.703 126.326 511.226 126.035 510 124C509.317 125.506 509.174 126.315 509 128C508.014 126.521 508 126.797 508 125L504 126L504 131C510.454 132.79 511.56 130.368 517.028 127.5C519.913 125.986 522.272 126.397 523 123L527 124L525 125C528.586 127.147 532.545 127.783 535 124C538.151 125.068 539.869 125.127 543 124L544 129C546.333 128.855 548.684 128 550 130C551.195 129.402 550.977 129.534 552 128C553.735 129.05 553.932 129.046 556 129C557.545 131.369 558.214 131.458 561 131L558 134L558 136C559.944 136.402 560.056 136.402 562 136L562 139C565.109 138.152 567.242 137.749 569 135C567.42 134.316 567.223 134.195 566 133L563 134C563.965 127.465 555.355 122.445 552.274 117C543.328 101.192 537.473 84.1713 529 68C528.315 69.2484 528.251 69.5484 528 71L525 66C524.255 68.8825 525.196 71.9542 525 75C521.63 69.6611 520.107 63.2978 516.66 58.0895C512.892 52.3975 507.813 48.4359 505 42L510 46C508.819 42.2454 506.61 41.2759 503 40C504.278 47.4247 509.878 53.6464 510.772 61C511.633 68.0843 506.233 69.2204 503.51 74.2986C501.949 77.21 502.274 80.8768 501.39 83.9992C499.711 89.9316 494.906 93.8372 489 95C490.478 94.0143 490.203 94 492 94L481 91L483 98L480 97C480.154 92.8925 478.309 90.3254 476 87C474.16 88.7173 473.651 89.5657 473 92L476 91C476.326 93.5726 477.567 93.928 480 95L472 94C470.899 92.3191 469.671 90.7577 467.399 92.0849C464.819 93.5923 464.309 97.1805 461.775 98.9105C456.019 102.842 442.648 101.832 436 100.786C425.6 99.1499 419.068 87.6832 411 82L412 85C410.138 83.0546 408.532 81.206 407 79L409 80C399.566 66.607 384.256 56.4463 372 45.7153C361.954 36.919 352.065 26.0085 340 20M338 21L339 22L338 21M255 23L251 25C253.14 25.4103 253.962 24.9685 256 24L255 23M330 25.3333C330.773 25.3333 330.16 25.8311 329.667 25.6667L330 25.3333M338 26L339 27L338 26M248.667 27.3333C248.222 27.7779 249.278 27.7221 249.333 27.6667C249.778 27.2224 248.722 27.2777 248.667 27.3333M333 28.3333C333.773 28.3333 333.16 28.8311 332.667 28.6667L333 28.3333M342 29.3333C342.773 29.3333 342.16 29.8311 341.667 29.6667L342 29.3333M344 32L344 34C342.365 33.4549 342.545 33.6352 342 32L344 32M357 34C358.186 35.1864 358.528 35.5837 359 37C357.452 35.7383 357.192 35.8061 357 34M338 39L337 40L338 39M341 45.3333C341.773 45.3333 341.16 45.8311 340.667 45.6667L341 45.3333M344 47C345.109 49.0775 345.642 50.6766 346 53C343.698 51.0333 342.244 49.7243 344 47M336.667 48.6667C336.722 48.7222 336.778 49.7778 336.333 49.3333C336.278 49.2778 336.222 48.2222 336.667 48.6667M354 50L354 52C352.365 51.4549 352.545 51.6352 352 50L354 50M341 51L340 52L341 51M357 53L356 55C354.365 54.4549 354.545 54.6352 354 53L357 53M518 54C519.163 56.2166 520.086 57.3943 522 59C520.896 56.6428 520.044 55.6239 518 54M340 55L339 56L340 55M512 55L515 61C512.36 59.4643 511.182 58.0606 512 55M372 61L372 63C370.365 62.4549 370.545 62.6351 370 61L372 61M362 62.3333C362.773 62.3333 362.16 62.8311 361.667 62.6667L362 62.3333M369 62L368 63L369 62M365 64C366.573 65.9488 367.291 67.5878 368 70C365.985 68.0924 364.75 66.7921 365 64M371 64L372 67C370.234 66.0214 370.045 65.7782 371 64M341 65L342 67C340.737 66.0287 340.608 66.3062 341 65M518 65L519 67L517 67C517 65.1467 516.7 65.6499 518 65M349.667 69.6667C349.722 69.7222 349.778 70.7778 349.333 70.3333C349.278 70.2778 349.222 69.2222 349.667 69.6667M397 69C398.457 70.1035 398.896 70.5432 400 72L396 70L397 69M517 70L516 74C517.851 75.3663 518.779 77.0284 520 79C518.53 80.9162 518.081 82.549 516 84C515.983 82.0345 515.931 81.7014 515 80L517 75C514.924 76.4022 514.459 76.4816 512 76C513.248 75.3152 513.548 75.2512 515 75L515 70L517 70M383 72C382.455 73.6352 382.635 73.4549 381 74L381 72L383 72M507 74L507 77C505.805 75.7773 505.684 75.58 505 74L507 74M346.667 76.6667C346.722 76.7222 346.778 77.7778 346.333 77.3333C346.278 77.2777 346.222 76.2223 346.667 76.6667M368 76L371 79C368.717 79.0977 367.902 78.2833 368 76M372 76L371 77L372 76M385 76L384 77L385 76M399 76.3333C399.773 76.3333 399.16 76.8311 398.667 76.6667L399 76.3333M357 77L356 78L357 77M406 77L407 79C405.737 78.0287 405.608 78.3062 406 77M510 77L511 82C509.525 80.0648 509.209 79.3074 510 77M373.667 78.6667C373.722 78.7222 373.778 79.7778 373.333 79.3333C373.278 79.2777 373.222 78.2222 373.667 78.6667M386 78.3333C386.773 78.3333 386.16 78.8311 385.667 78.6667L386 78.3333M391 79C391.986 80.4785 392 80.2032 392 82C390.711 80.5574 390.599 80.7662 391 79M376 80L375 81L376 80M530 80L529 81L530 80M365 81L364 82L365 81M370 81L370 83C368.365 82.455 368.545 82.6351 368 81L370 81M373 81L372 82L373 81M379 81L378 82L379 81M389 81L388 82L389 81M384 82L385 85C383.234 84.0214 383.045 83.7782 384 82M506 82C507.608 83.4497 508.064 84.0515 509 86C506.975 84.8033 505.899 84.3484 506 82M395 83L394 84L395 83M513.667 83.6667C513.722 83.7222 513.778 84.7777 513.333 84.3333C513.278 84.2777 513.222 83.2222 513.667 83.6667M356 84L355 85L356 84M375 84L374 85L375 84M368 85L369 88C367.234 87.0214 367.045 86.7782 368 85M380 85L379 86L380 85M393 85L397 92C395.584 91.528 395.186 91.1863 394 90L396 94C393.328 92.3116 391.05 90.8241 388 90C390.464 88.3342 391.318 88.7021 394 90C393.359 88.1593 392.918 86.8975 393 85M413 85C418.212 90.2112 425.272 95.0168 428 102L423 102C423.682 94.1837 414.659 91.8471 413 85M358 86C361.586 87.8065 364.071 90.4795 366 94C362.579 92.2036 360.064 89.3249 357 87L358 86M365 86L366 88C364.737 87.0287 364.608 87.3062 365 86M376 88L377 90L375 90C375 88.1468 374.7 88.6498 376 88M520 88L520 91L517 91L517 88L520 88M475 89L474 90L475 89M400 90L399 91L400 90M535 90L534 91L535 90M501 91L501 93L499 93C499.545 91.3649 499.365 91.545 501 91M371 92L370 93L371 92M382 92L381 93L382 92M469 92L468 93L469 92M526 97C522.618 97.1129 520.641 94.8271 519 92C522.088 92.9517 523.646 94.8467 526 97M341 93C344.282 95.2976 346.922 98.5247 351 99L351 101C346.687 100.014 342.103 97.496 341 93M384 94C385.639 95.9806 386.85 97.7112 388 100C385.347 98.5353 383.735 97.1285 384 94M501 94L505 95C503.154 95.4675 501.932 95.3013 500 95L501 94M327 95.3333C327.773 95.3333 327.16 95.8311 326.667 95.6667L327 95.3333M354 95L353 96L354 95M468 95C467.938 96.7372 467.98 96.6399 469 98L466 99C466.511 97.0478 466.733 96.5431 468 95M486 95L485 96L486 95M509 95.3333C509.773 95.3333 509.16 95.8311 508.667 95.6667L509 95.3333M358 96C356.777 97.1952 356.58 97.3164 355 98C356.139 96.9846 356.612 96.6913 358 96M496 96C498.938 97.561 501.653 98.8448 505 99C504.247 102.495 502.655 101.664 500 100C497.726 101.973 494.789 100.715 492 100C493.769 99.2211 495.036 99.0876 497 99C495.63 97.4426 495.33 97.6552 496 96M512 96C514.836 96.9789 516.866 97.1564 518 100C515.353 99.4506 511.875 99.1427 512 96M332 97L331 98L332 97M479 98C476.387 99.0977 473.836 98.9928 471 99C473.818 97.3199 475.842 97.2073 479 98M493 97.3333C493.773 97.3333 493.16 97.8311 492.667 97.6667L493 97.3333M509 97L509 99C507.365 98.455 507.545 98.6351 507 97L509 97M533 97C534.797 97 534.521 97.0143 536 98C534.49 98.25 533.565 98.1804 532 98L533 97M336 99C338.411 100.604 340.822 102.101 343 104L342 105C339.476 103.34 336.78 101.976 336 99M359 99.3333C359.773 99.3333 359.16 99.8311 358.667 99.6667L359 99.3333M534 99L533 100L534 99M333 100.333C333.773 100.333 333.16 100.831 332.667 100.667L333 100.333M527 100C525.494 100.683 524.685 100.826 523 101C524.506 100.317 525.315 100.174 527 100M341 109L337 109C338.036 110.186 338.339 110.604 339 112C336.135 110.58 333.609 108.854 331 107C333.309 106.835 334.047 107.569 336 109C333.044 105.172 329.773 102.923 325 102C330.376 99.9225 338.29 104.268 341 109M470 101C468.752 101.685 468.452 101.749 467 102C468.248 101.315 468.548 101.251 470 101M518 101C515.948 101.874 514.253 101.953 512 102C514.052 101.126 515.747 101.047 518 101M530.667 101.667C530.722 101.722 530.778 102.778 530.333 102.333C530.278 102.278 530.222 101.222 530.667 101.667M496 103C493.837 103.676 492.268 103.387 490 103C492.239 102.189 493.647 102.471 496 103M500 103C501.479 103.986 501.203 104 503 104C501.191 104.574 500.931 104.465 499 104L500 103M541 103L540 104L541 103M329 104C327.752 104.685 327.452 104.749 326 105C327.248 104.315 327.548 104.251 329 104M535 104.333C535.773 104.333 535.16 104.831 534.667 104.667L535 104.333M524 105.333C524.773 105.333 524.16 105.831 523.667 105.667L524 105.333M515 106.333C515.773 106.333 515.16 106.831 514.667 106.667L515 106.333M519 106L518 107L519 106M349 107C347.999 108.924 347.923 109.098 346 110C346 108.203 346.014 108.479 347 107L349 107M493 108L493 112L489 112L491 108L493 108M551 110C554.786 119.216 563.288 133.333 574 135C573.974 131.878 573.724 129.04 573 126C576.026 127.08 578.798 127.939 582 128C584.12 133.074 587.819 133.773 593 134C588.177 129.471 581.711 126.846 576 123.579C567.87 118.927 559.825 113.211 551 110M333 111L333 113L331 113L331 111L333 111M511 113C509.231 113.779 507.964 113.912 506 114C507.928 112.909 508.77 112.835 511 113M328 113L333 115C330.63 115.589 329.293 114.955 327 114L328 113M436 113L437 117C435.854 115.36 435.607 114.924 436 113M462 114L462 118C463.797 118 463.521 117.986 465 117C464.027 115.73 463.27 114.973 462 114M452 115C451.757 117.786 451.948 119.413 453 122C454.689 119.148 454.08 117.495 452 115M478 116C480.539 117.304 482.241 116.731 485 116C482.477 115.01 480.642 115.383 478 116M318.667 116.667C318.722 116.722 318.778 117.778 318.333 117.333C318.278 117.278 318.222 116.222 318.667 116.667M506 116C502.874 120.883 499.339 120.011 494 120C498.676 121.98 504.031 121.351 509 121L506 116M321 118.333C321.773 118.333 321.16 118.831 320.667 118.667L321 118.333M433 118C434.331 120.494 434.003 121.013 432 123C432.088 121.036 432.221 119.769 433 118M439 118L439 122C437.181 120.636 437.969 120.508 436 121C436 119.203 436.014 119.479 437 118L439 118M468.333 119.667C468.278 119.722 468.222 120.778 468.667 120.333C468.722 120.278 468.778 119.222 468.333 119.667M318 121L317 122L318 121M381 121.333C381.773 121.333 381.16 121.831 380.667 121.667L381 121.333M330 122.333C330.773 122.333 330.16 122.831 329.667 122.667L330 122.333M319 125C317.42 124.316 317.223 124.195 316 123C318.092 123.406 318.02 123.217 319 125M323 123.333C323.773 123.333 323.16 123.831 322.667 123.667L323 123.333M470 123C469.694 127.133 467.478 132.45 464.441 135.417C462.013 137.789 459.719 137.423 459 141C456.403 142.33 455.409 143.436 454 146C457.202 143.954 461.991 136.266 466 139C468.209 137.62 470.471 138.543 470 136C471.723 136.934 473.106 137.535 475 138C474.402 136.805 474.534 137.023 473 136L480 135L478 130L471 135L470 129L473 130C472.415 127.283 471.618 125.261 470 123M476 123L475 127C476.146 125.36 476.393 124.924 476 123M459.667 124.333C459.222 124.778 460.278 124.722 460.333 124.667C460.778 124.222 459.722 124.278 459.667 124.333M517 124.333L517.333 124.667C516.84 124.831 516.227 124.333 517 124.333M454 125L455 131C456.397 128.372 456.415 126.819 454 125M323 126L330 130C326.777 130.648 324.658 128.736 322 127L323 126M486 126C484.035 128.052 483.426 129.194 483 132C486.109 130.752 487.262 129.259 486 126M314 128L318 130C315.975 130.207 314.933 129.793 313 129L314 128M576 128L576 135C578.42 133.618 579.061 132.637 580 130L576 128M523 131L524 134C524.685 132.752 524.749 132.452 525 131L523 131M320 132L319 133L320 132M332 132.333C332.773 132.333 332.16 132.831 331.667 132.667L332 132.333M470 132C468.752 132.685 468.452 132.749 467 133C468.248 132.315 468.548 132.251 470 132M503.333 132.667C503.278 132.722 503.222 133.778 503.667 133.333C503.722 133.278 503.778 132.222 503.333 132.667M487 133L487 138C487.83 135.97 487.83 135.03 487 133M562 134C560.777 135.195 560.58 135.316 559 136C560.139 134.985 560.612 134.691 562 134M580.333 134.667C580.278 134.722 580.222 135.778 580.667 135.333C580.722 135.278 580.778 134.222 580.333 134.667M427 135C426.832 137.403 426.803 138.46 425 140C425.48 138.04 425.938 136.693 427 135M454 142C455.176 139.577 455.947 137.828 458 136C453.425 134.76 452.626 138.376 454 142M493 135C492.546 136.947 492.006 138.269 491 140C492.944 140.402 493.056 140.402 495 140C494.449 138.175 493.924 136.648 493 135M595 135C595.836 141.183 598.233 147.484 605 148C603.307 146.938 601.96 146.48 600 146C606.001 144.55 607.902 148.58 612.05 152.196C619.804 158.956 631.966 173.64 643 169C634.178 160.55 622.795 153.973 613 146.627C607.462 142.473 601.787 136.764 595 135M306 136L305 137L306 136M412 136.333C412.773 136.333 412.16 136.831 411.667 136.667L412 136.333M566 136L565 137L566 136M302.667 137.667C302.722 137.722 302.778 138.778 302.333 138.333C302.278 138.278 302.222 137.222 302.667 137.667M430 137L430 139L428 139L428 137L430 137M534 138L537 142L540 137L534 138M310 138L313 139C311.191 139.574 310.931 139.465 309 139L310 138M103 140C106.699 141.552 111.017 141 115 141L135 141C129.005 138.309 123.261 139.717 117 139.871C112.072 139.993 107.935 138.828 103 140M444 139C442.973 141.398 442.322 143.416 442 146L445 146C445.829 143.832 446.773 141.97 448 140L444 139M477 141C478.58 140.316 478.777 140.195 480 139C478.42 139.684 478.223 139.805 477 141M499 145C497.217 145.98 497.406 145.908 497 148C495.977 146.466 496.195 146.598 495 146L494 149L492 148C491.455 149.635 491.635 149.455 490 150C489.389 154.896 484.475 157.047 484 162C484.911 160.623 485.404 159.56 486 158L488 162C485.868 162.776 485.229 163.13 484 165C485.756 164.551 486.393 164.345 488 165C490.839 162.388 493.311 162.555 497 163C499.701 160.599 501.458 160.661 505 161L505 157C505.986 158.479 506 158.203 506 160L511 157C511 158.797 511.014 158.521 512 160L517 159L515 160L518 163L521 162L518 166L520 169L523 168C522.076 170.349 521.441 172.515 521 175C519.988 172.627 519.378 170.551 519 168C517.203 168 517.479 168.014 516 169L519 174C515.612 173.728 513.97 174.194 512 177C509.579 177.242 508.192 177.849 506 179L509 185C505.978 185.082 502.921 186.11 500 187C502.18 188.187 503.514 188.234 506 188C504.616 190.71 504.262 192.997 504 196L502 195C501.499 198.201 502.395 201.78 503 205C505.121 205.228 504.89 205.15 506 207C504.328 206.662 504.69 206.463 504 208C502.814 206.964 502.396 206.661 501 206L501 210C502.617 211.299 503.672 212.39 505 214C503.15 214.202 501.85 214.202 500 214C500.312 216.643 502.445 220.391 500 222C502.685 228.828 502.127 236.397 505.247 242.946C509.242 251.332 522.355 255.922 531 257C526.08 252.918 520.576 250.576 516.853 245C504.91 227.113 512.91 200.657 518 182C521.482 184.337 523.777 183.421 526 180C527.186 181.035 527.604 181.339 529 182L528 178L533 178C534.162 183.368 536.807 188.43 541 192L541 188L544 192C546.952 192.684 547.544 195.43 550 197C549.431 192.59 548.964 178.213 542 182C539.835 179.452 538.012 177.469 535 176L536 174L527 170C528.178 165.891 527.443 162.962 526 159C527.396 158.339 527.814 158.036 529 157C531.311 159.311 532.268 158.618 534 156L534 159C535.783 158.02 535.594 158.092 536 156L541 156L542 152C540.686 152.768 540.768 152.686 540 154C538.406 152.704 537.982 152.465 536 152C536.545 150.365 536.365 150.545 538 150L538 148C535.285 145.939 533.713 142.934 531 141C531.426 143.469 532.132 145.645 533 148C530.877 148.307 530.314 148.382 529 150L526 148L531 147C530.02 145.217 530.092 145.406 528 145L529 142C526.233 141.49 523.159 141.619 521 140L520 143C517.743 141.426 515.042 141.548 513 140C511.7 140.65 512 140.147 512 142L511 140C510.126 142.052 510.047 143.747 510 146C508.287 144.353 507.306 144.369 507 142C505.334 143.255 503.901 144.159 502 145C503.313 139.386 498.507 139.407 499 145M566 139C559.404 142.548 561.016 149.198 567.093 153.142C569.784 154.888 572.912 154.934 576 155C572.47 152.265 568.257 150.603 566.5 146C565.553 143.519 566.901 140.902 566 139M573 141C571.521 140.014 571.797 140 570 140C569.537 142.16 568.838 144.542 570.194 146.564C571.868 149.061 576.287 149.086 577.928 146.485C579.939 143.3 576.046 137.948 573 141M582 139C582.375 144.528 581.043 150.594 582.429 156C583.739 161.111 586.639 165.754 588 171C591.144 171.145 593.913 172.427 597 173C596.862 170.158 597.118 169.121 599 167C597.983 164.519 597.561 163.736 595 163C601.133 155.268 590.289 148.499 583 148L583 143C585.57 145.632 587.289 147.136 591 147C592.464 148.968 593.606 149.352 596 150C594.556 145.833 591.649 141.5 588 139L589 145L582 139M64 141C70.9279 143.907 81.503 142 89 142L89 140L64 141M90 140C91.5061 140.683 92.3148 140.826 94 141C92.4939 140.317 91.6852 140.174 90 140M469 142L473 141C470.954 140.249 470.404 140.344 469 142M474 140L475 141L474 140M549 140C549.307 142.123 549.382 142.686 551 144C550.404 142.44 549.911 141.377 549 140M557 140C556.762 142.095 556.816 143.889 557 146L553 145C555.354 147.56 557.586 148.456 561 149C559.835 145.835 559.085 142.636 557 140M136 141C139.46 142.663 143.185 142.921 147 143C143.539 141.337 139.815 141.079 136 141M485 141L486 142L485 141M502 141L501 142L502 141M575 141L576 143C574.737 142.029 574.608 142.306 575 141M23 156C33.7218 155.124 44.4699 151.836 55 149.664C74.4901 145.645 93.3213 144.958 113 146.83C120.688 147.562 128.451 146.152 136 148.301C153.983 153.42 168.895 169.395 174 187C178.42 175.649 165.93 164.011 158.91 157C147.215 145.32 129.561 144.181 114 143.996C95.8971 143.781 78.0889 143.627 60 144L62 143C58.4858 141.92 54.5277 143.077 51 144.014C42.7358 146.21 27.9582 148.431 23 156M462.667 142.333C462.222 142.778 463.278 142.722 463.333 142.667C463.778 142.222 462.722 142.278 462.667 142.333M573 142L572 143L573 142M445 143L444 144L445 143M516 143L515 144L516 143M543.667 144.333C543.222 144.778 544.278 144.722 544.333 144.667C544.778 144.222 543.722 144.278 543.667 144.333M315 145.333C315.773 145.333 315.16 145.831 314.667 145.667L315 145.333M471 145C472.543 146.267 473.048 146.489 475 147C473.542 145.919 472.752 145.564 471 145M478 145C477.3 146.958 477.061 147.949 477 150L474 150C474.062 151.739 473.522 152.375 473 154C475.221 154.458 475.593 155.113 477 157C479.428 157.183 480.17 157.423 482 159C483.549 156.87 484.18 153.427 486 151C483.982 150.66 483.032 150.677 481 151C483.224 149.431 484.294 149.516 487 150L489 146L484 145L483 148L481 148L480 145L478 145M502 145L501 146L502 145M518 145C517.574 147.469 516.868 149.645 516 152L514 152L513 149C514.598 147.519 515.108 146.939 516 145L518 145M548 145C547.598 146.943 547.598 147.057 548 149C549.081 147.542 549.436 146.752 550 145L548 145M148 146C157.501 152.018 169.447 157.765 175.363 168.004C178.05 172.655 177.493 177.006 178.27 182.015C179.771 191.682 180.313 201.152 179.791 211C179.54 215.737 177.871 220.333 177.559 225C177.155 231.057 180.217 237.935 181 244L185 242C178.414 252.02 186.324 264.451 187.791 275C189.068 284.185 191.643 296.853 189.701 306C187.875 314.6 181.81 322.016 177 329C182.657 328.368 185.52 324.552 190.04 321.499C192.66 319.73 196.043 318.5 198.316 316.302C201.357 313.362 203.165 309.181 206.167 306.104C210.712 301.445 215.612 297.39 219.883 292.42C223.118 288.657 229.941 281.864 230.696 276.826C231.972 268.307 223.741 265.662 221.316 258.981C218.921 252.384 221.301 244 215 239C218.503 233.973 215.772 225.973 216.019 220.001C216.241 214.659 219.265 208.306 220.708 203.039C221.693 199.444 225.343 195.989 223.578 192.103C219.896 183.998 205.288 181.401 204 172C188.721 160.103 168.046 146.427 148 146M416.333 146.667C416.278 146.722 416.222 147.778 416.667 147.333C416.722 147.278 416.778 146.222 416.333 146.667M439 146C437.998 148.614 437.678 150.227 438 153C439.589 150.465 440.708 148.595 439 146M447 146C447.031 147.832 446.921 147.559 448 149C447.749 147.548 447.685 147.248 447 146M459 149C460.65 147.762 460.333 146.333 461 149C461.696 147.446 461.696 147.554 461 146C459.805 147.223 459.684 147.42 459 149M504 146.333C504.773 146.333 504.16 146.831 503.667 146.667L504 146.333M515 146L514 147L515 146M540 146C541.506 146.683 542.315 146.826 544 147C542.494 146.317 541.685 146.174 540 146M403 147C404.947 147.714 405.934 147.919 408 148L404 152C402.867 150.101 402.527 149.143 403 147M450 147L451 153C452.306 150.467 451.728 149.25 450 147M480 147C480.416 150.083 481.158 153.006 482 156C480.217 155.02 480.406 155.092 480 153C478.521 153.986 478.797 154 477 154C477.48 151.028 477.974 149.222 480 147M397 148C397.406 149.659 397.309 150.242 397 152C395.147 152 395.65 152.3 395 151L397 156C394.833 155.723 393.991 155.89 393 154C391.199 154.562 389.878 154.824 388 155L388 151C391.063 150.652 393.915 149.899 397 150C395.85 148.275 395.446 148.777 397 148M430 148C429.923 150.645 430.003 152.266 428 154C428.561 151.898 429.049 149.941 430 148M456 148L457 149L456 148M469.667 148.333C469.222 148.778 470.278 148.722 470.333 148.667C470.778 148.222 469.722 148.278 469.667 148.333M498 148L499 152L497 151C498.902 152.156 499.722 152.156 502 152L500 157C499.315 155.752 499.251 155.452 499 154C495.942 156.189 493.684 156.69 490 157L492 152L496 153L494 150L495 149C496.3 149.65 496 149.147 496 151L498 148M502 148.333C502.773 148.333 502.16 148.831 501.667 148.667L502 148.333M302 149L302 151L300 151L300 149L302 149M310 149L309 150L310 149M401 149C401.986 150.479 402 150.203 402 152C400.918 150.616 400.809 150.662 401 149M506 149L506 151L504 151L504 149L506 149M550 149C551.248 149.685 551.549 149.749 553 150C551.752 149.315 551.452 149.251 550 149M599 150L603 153C605.118 152.162 606.714 151.992 609 152C605.826 149.739 602.788 149.19 599 150M312 150L311 151L312 150M446 150L445 154C446.608 152.55 447.064 151.949 448 150L446 150M469 151C470.067 151.599 470.742 151.753 472 152C470.559 150.921 470.832 151.031 469 151M478 150L479 151L478 150M399 151L398 152L399 151M442.333 151.667C442.278 151.722 442.222 152.778 442.667 152.333C442.722 152.278 442.778 151.222 442.333 151.667M462 153C464.092 152.594 464.02 152.783 465 151C463.42 151.684 463.223 151.805 462 153M510 151L510 154C509.304 152.446 509.304 152.554 510 151M298 152L297 153L298 152M387 152C386.455 153.635 386.635 153.455 385 154L385 152L387 152M449 152L450 153L449 152M459 152L460 153L459 152M506 153L505 154L506 153M516 153C514.752 153.685 514.452 153.749 513 154C514.248 153.315 514.549 153.251 516 153M183 154L184 155L183 154M306 154.333C306.773 154.333 306.16 154.831 305.667 154.667L306 154.333M460 154C459.072 156.646 458.477 158.241 459 161C460.421 158.751 461.382 156.586 462 154L460 154M464 154L465 155L464 154M299 155L300 157C298.737 156.029 298.608 156.306 299 155M426.667 155.667C426.722 155.722 426.778 156.778 426.333 156.333C426.278 156.278 426.222 155.222 426.667 155.667M454 155C453.19 157.729 453.021 160.15 453 163C454.737 162.938 454.64 162.98 456 164C456.507 160.601 456.192 157.71 454 155M466 155C464.306 157.542 465.071 157.518 463 157C464.001 158.924 464.078 159.098 466 160C466.511 158.048 466.733 157.543 468 156C467.35 154.7 467.853 155 466 155M526 155L526 157L524 157L524 155L526 155M290 156.333L290.333 156.667C289.84 156.831 289.227 156.333 290 156.333M446.333 156.667C446.278 156.722 446.222 157.778 446.667 157.333C446.722 157.278 446.778 156.222 446.333 156.667M454.667 156.667C454.722 156.722 454.778 157.778 454.333 157.333C454.278 157.278 454.222 156.222 454.667 156.667M382 157C381.316 158.58 381.195 158.777 380 160C380.684 158.42 380.805 158.223 382 157M389 157C388.938 158.737 388.98 158.64 390 160C388.316 160.224 387.687 160.218 386 160C387.103 158.543 387.543 158.103 389 157M414 157L413 158L414 157M433 160C434.923 159.098 434.999 158.924 436 157C434.078 157.902 434.001 158.076 433 160M472 157C472.545 158.635 472.365 158.455 474 159L474 157L472 157M294 158C295.036 159.186 295.339 159.604 296 161C294.151 160.033 293.278 159.86 294 158M475 158L476 159L475 158M502.667 158.667C502.722 158.722 502.778 159.778 502.333 159.333C502.278 159.278 502.222 158.222 502.667 158.667M304 159.333C304.773 159.333 304.16 159.831 303.667 159.667L304 159.333M491 159L490 160L491 159M335 160L334 161L335 160M384 160L383 161L384 160M413 160.333C413.773 160.333 413.16 160.831 412.667 160.667L413 160.333M450 160C449.043 161.517 448.613 162.339 448 164C450.003 162.753 450.823 162.263 450 160M469.333 160.667C469.278 160.722 469.222 161.778 469.667 161.333C469.722 161.278 469.778 160.222 469.333 160.667M528 160L528 162L531 162L531 160L528 160M346.667 161.667C346.722 161.722 346.778 162.778 346.333 162.333C346.278 162.278 346.222 161.222 346.667 161.667M408 161L408 163L406 163L406 161L408 161M456 161L455 162L456 161M462 161C462 162.797 462.014 162.521 463 164L466 162C464.63 161.418 463.493 161.203 462 161M477 161L478 162L477 161M467 162C466.336 164.89 465.69 166.953 468 169L468 166L472 168L471 163C469.286 162.874 468.567 162.698 467 162M472 162L473 163L472 162M578 163C578.211 165.739 578.303 166.422 581 167C580.754 169.121 580.769 170.874 581 173C583.979 172.404 582.733 171.433 585 172C584.717 168.542 583.938 165.336 583 162L578 163M383 163L382 168C381.349 165.766 381.682 164.926 383 163M200 164C201.904 165.884 203.534 166.953 206 168C204.096 166.116 202.466 165.047 200 164M419.667 164.333C419.222 164.778 420.278 164.722 420.333 164.667C420.778 164.222 419.722 164.278 419.667 164.333M460 164L460 168C457.67 167.952 457.994 167.797 457 170C460.231 168.923 461.229 167.557 463 168C462.064 166.051 461.608 165.45 460 164M475 164C476.458 165.081 477.248 165.436 479 166C477.457 164.733 476.952 164.511 475 164M482 164L483 165L482 164M527 164L525 170C523.626 167.128 524.683 166.017 527 164M289 167L286 166C287.778 165.045 288.021 165.234 289 167M521.667 165.667C521.722 165.722 521.778 166.778 521.333 166.333C521.278 166.278 521.222 165.222 521.667 165.667M430.667 167.333C430.222 167.778 431.278 167.722 431.333 167.667C431.778 167.222 430.722 167.278 430.667 167.333M413 168L412 169L413 171L415 170C414.455 168.365 414.635 168.545 413 168M421 168C419.033 170.24 416.623 171.079 416 174C418.282 172.939 420.561 172.583 423 172L421 168M477 168L478 169L477 168M440.333 169.667C440.278 169.722 440.222 170.778 440.667 170.333C440.722 170.278 440.778 169.222 440.333 169.667M442 169L442 171L444 171L444 169L442 169M425.333 170.667C425.278 170.722 425.222 171.778 425.667 171.333C425.722 171.278 425.778 170.222 425.333 170.667M388 173L385 173C386.127 170.994 386.873 170.994 388 173M524 171L524 174C523.304 172.446 523.304 172.554 524 171M367 172C367.235 175.072 367.155 177.142 366 180L362 179C363.488 176.509 365.123 174.213 367 172M410 173L411 174L410 173M468 173L469 174L468 173M427.667 175.333C427.222 175.778 428.278 175.722 428.333 175.667C428.778 175.222 427.722 175.278 427.667 175.333M384 176L384 181L381 181L382 186C380.745 184.249 380.386 183.143 380 181L377 182C377.843 180.231 378.541 179.312 380 178C381.492 179.032 382.404 177.25 384 176M565 176C566.402 179.575 568.283 180.396 572 181L565 176M649 179C657.665 178.476 662.31 185.444 670 187C669.014 188.479 669 188.203 669 190C670.84 188.283 671.349 187.434 672 185C666.123 182.468 654.539 172.16 649 179M398 177L398 181C398.911 179.623 399.404 178.56 400 177L398 177M595 177C595.545 178.635 595.365 178.455 597 179L597 177L595 177M286 178.333C286.773 178.333 286.16 178.831 285.667 178.667L286 178.333M492 178C493.006 179.731 493.546 181.053 494 183L489 182C489.176 183.878 489.438 185.199 490 187C493.487 184.411 495.834 182.264 497 178L492 178M502 178C503.001 179.924 503.078 180.098 505 181C504.101 178.876 504.124 178.899 502 178M544 178C545.949 179.573 547.588 180.291 550 181C548.02 179.116 546.69 178.531 544 178M610.667 178.333C610.222 178.778 611.278 178.722 611.333 178.667C611.778 178.222 610.722 178.278 610.667 178.333M400.667 179.333C400.222 179.778 401.278 179.722 401.333 179.667C401.778 179.222 400.722 179.278 400.667 179.333M498 180L500 183C500.574 181.191 500.465 180.931 500 179L498 180M396 180L396 184L400 183L396 180M602 180L603 181L602 180M484 181C483.014 182.479 483 182.203 483 184C484.289 182.557 484.401 182.766 484 181M449 182C448.354 184.458 448.354 185.542 449 188L452 185C451.027 183.73 450.27 182.973 449 182M615 182L616 183L615 182M206 183L207 185C205.737 184.029 205.608 184.306 206 183M461 183C460.278 185.418 460.052 187.472 460 190L459 186C454.995 190.834 453.563 195.891 455 202C455.566 199.66 455.176 197.429 455 195L459 195L458 192L462 190C461.726 187.623 461.687 185.267 461 183M423 184L423 188C423.71 186.24 423.71 185.76 423 184M486.667 184.333C486.222 184.778 487.278 184.722 487.333 184.667C487.778 184.222 486.722 184.278 486.667 184.333M496 184C496.031 185.832 495.921 185.559 497 187C496.749 185.548 496.685 185.248 496 184M475 186L474 188L476 188C476 186.147 476.3 186.65 475 186M385 187L381 199C382.846 198.974 383.266 199.17 385 200C384.93 201.952 384.646 201.94 386 203C383.692 203.558 383.244 202.996 382 201C380.977 202.534 381.195 202.402 380 203C378.977 198.496 380.288 194.51 380 190C382.351 190 381.935 189.348 382 187L385 187M441.333 187.667C441.278 187.722 441.222 188.778 441.667 188.333C441.722 188.278 441.778 187.222 441.333 187.667M471 187L465 199L463 199L462 194C458.737 198.378 455.703 203.251 453 208C456.208 207.429 458.989 206.228 462 205C461.294 208.337 461.174 209.942 464 212L462 207C464.758 207.657 465.729 207.68 468 206C469.186 207.186 469.584 207.528 471 208C471.201 205.211 471.467 202.748 471 200C472.635 200.545 472.455 200.365 473 202C477.497 197.949 474.768 194.243 475 189C473.365 188.455 473.545 188.635 473 187L471 187M480 187L481 191C482.081 189.542 482.436 188.752 483 187L480 187M607.333 187.667C607.278 187.722 607.222 188.778 607.667 188.333C607.722 188.278 607.778 187.222 607.333 187.667M617 187L617 189C618.635 188.455 618.455 188.635 619 187L617 187M364.667 188.667C364.722 188.722 364.778 189.778 364.333 189.333C364.278 189.278 364.222 188.222 364.667 188.667M491 188L493 191L496 190C494.307 188.938 492.96 188.48 491 188M386 189C386.986 190.479 387 190.203 387 192C385.711 190.557 385.599 190.766 386 189M474 190C472.861 191.016 472.389 191.309 471 192C471.513 189.525 471.604 189.425 474 190M477 189C476.402 192.21 476.258 194.042 479 196C478.917 193.092 478.759 191.308 477 189M484 189C483.103 191.638 482.531 194.262 482 197C483.737 196.938 483.64 196.98 485 198C485.522 194.709 485.442 192.025 484 189M486 189L487 190L486 189M500 190C501.223 191.195 501.42 191.316 503 192C502.02 190.217 502.092 190.406 500 190M680 190C680.482 192.364 680.636 192.518 683 193C681.896 191.543 681.457 191.104 680 190M205 191.333C205.773 191.333 205.16 191.831 204.667 191.667L205 191.333M222 191L221 192L222 191M409 194C411.124 193.101 411.101 193.124 412 191C409.636 191.482 409.482 191.636 409 194M437 191L438 192L437 191M445 191C441.055 193.909 438.623 194.429 438 200C440.04 197.331 441.02 194.719 444 193C442.843 194.817 442.855 194.835 443 197C444.777 194.95 445.64 193.66 445 191M611 191L612 192L611 191M366.667 192.333C366.222 192.778 367.278 192.722 367.333 192.667C367.778 192.222 366.722 192.278 366.667 192.333M447 196C448.879 194.825 449.715 194.869 452 195C450.762 193.35 449.334 193.667 452 193C449.092 192.199 447.958 193.251 447 196M470 192C470 193.797 470.014 193.521 471 195C472.103 193.543 472.543 193.103 474 192C472.78 195.555 471.376 197.338 468 199L470 192M499 192L500 193L499 192M174 193L174 197C174.71 195.24 174.71 194.759 174 193M457 193L456 194L457 193M491.333 193.667C491.278 193.722 491.222 194.778 491.667 194.333C491.722 194.278 491.778 193.222 491.333 193.667M427 194C425.021 196.782 424.632 199.664 424 203C423.735 200.612 423.857 198.406 424 196C422.196 196.555 420.873 196.834 419 197C418.315 199.339 417.294 201.764 417.652 204.246C418.271 208.538 422.783 211.852 418 215L418 218C417.014 216.522 417 216.797 417 215C416.315 216.248 416.251 216.548 416 218L411 218L408 224L413 224L412 220C413.539 221.956 414.781 223.83 416 226C418.862 225.077 420.29 222.968 423 225C423.481 221.538 423.976 218.363 425 215C419.703 215 422.651 204.841 424 207L428 205C426.891 201.156 427.766 197.639 427 194M235 195C236.186 196.186 236.528 196.584 237 198C235.452 196.738 235.192 196.806 235 195M371 195L370 200C368.255 199.11 366.875 198.547 365 198L364 202C367.078 201.229 369.828 200.86 373 201L375 195L371 195M489 195L488 197C489.263 196.029 489.392 196.306 489 195M495 195C495 196.797 495.014 196.521 496 198C498.132 197.223 498.771 196.87 500 195L495 195M411 197C411.98 198.783 411.908 198.594 414 199C412.861 197.985 412.388 197.691 411 197M428 197L428 200C429.015 198.861 429.309 198.388 430 197L428 197M452 197C450.683 199.252 450.151 200.438 450 203C451.777 200.95 452.64 199.66 452 197M392 200L395 199C393.222 198.045 392.979 198.234 392 200M479 198L479 203C480.84 201.283 481.349 200.434 482 198L479 198M550 198C550.917 201.859 552.5 205.342 554 209C554.966 205.069 552.701 200.836 550 198M287 199L286 200L287 199M485.333 199.667C485.278 199.722 485.222 200.778 485.667 200.333C485.722 200.278 485.778 199.222 485.333 199.667M489.667 199.333C489.222 199.778 490.278 199.722 490.333 199.667C490.778 199.222 489.722 199.278 489.667 199.333M174 200C172.985 208.029 173 215.908 173 224C175.323 218.465 176.345 205.588 174 200M317 200L316 201L317 200M396 200L395 206C397.093 204.176 397.039 202.529 396 200M411 200L411 206C413.085 206 412.724 205.862 413 208L417 207C415.388 205.686 413.915 204.813 412 204L412 202C413.314 201.232 413.232 201.314 414 200L411 200M435 200C434.014 201.479 434 201.203 434 203C435.289 201.557 435.401 201.766 435 200M442 200C440.51 202.78 440.089 204.848 440 208C441.299 205.451 442.361 202.831 442 200M460 200L459 201L460 200M465 202L464 203L465 202M484 202L485 203L484 202M290 205C288.782 207.118 288.133 207.845 286 209L288 205L290 205M429.667 205.333C429.222 205.778 430.278 205.722 430.333 205.667C430.778 205.222 429.722 205.278 429.667 205.333M481 205L481 207L483 207C482.455 205.365 482.635 205.545 481 205M495 210C496.248 210.685 496.548 210.749 498 211C496.752 210.315 496.452 210.251 495 210M363.667 211.333C363.222 211.778 364.278 211.722 364.333 211.667C364.778 211.222 363.722 211.278 363.667 211.333M440.333 211.667C440.278 211.722 440.222 212.778 440.667 212.333C440.722 212.278 440.778 211.222 440.333 211.667M466 211L466 213L468 213L468 211L466 211M502.333 212.667C502.278 212.722 502.222 213.778 502.667 213.333C502.722 213.278 502.778 212.222 502.333 212.667M559 212C558.522 215.15 558.806 216.366 562 217L559 212M484.333 213.667C484.278 213.722 484.222 214.778 484.667 214.333C484.722 214.278 484.778 213.222 484.333 213.667M405 215C404.455 216.635 404.635 216.455 403 217C404.222 218.972 405.149 220.634 407 222C406.519 219.535 406.089 217.252 405 215M287 218L287 220L285 220L285 218L287 218M202 219C200.752 219.685 200.452 219.749 199 220C200.248 219.315 200.548 219.251 202 219M385 219L384 220L384 222C385.58 222.684 385.777 222.805 387 224C387.622 222.057 387.436 221.051 387 219L385 219M263 221L265 222L265 224C262.749 223.527 261.882 223.14 263 221M665 222C666.16 226.023 668.585 227.752 672 230L677 227C674.486 223.149 672.059 223.374 668 225C667.518 222.636 667.364 222.482 665 222M240 223C241.585 225.52 242.328 228.1 243 231C239.266 229.908 238.419 226.402 240 223M296.667 223.333C296.222 223.778 297.278 223.722 297.333 223.667C297.778 223.222 296.722 223.278 296.667 223.333M305 224L304 225L304 227L308 228L307 224L305 224M260 225L260 229L258 229L258 225L260 225M290 225C290.648 227.394 291.032 228.536 293 230C292.573 227.355 292.179 226.539 290 225M449.667 225.333C449.222 225.778 450.278 225.722 450.333 225.667C450.778 225.222 449.722 225.278 449.667 225.333M542.667 225.333C542.222 225.778 543.278 225.722 543.333 225.667C543.778 225.222 542.722 225.278 542.667 225.333M287.333 227.667C287.278 227.722 287.222 228.778 287.667 228.333C287.722 228.278 287.778 227.222 287.333 227.667M253.667 228.667C253.722 228.722 253.778 229.778 253.333 229.333C253.278 229.278 253.222 228.222 253.667 228.667M302 228L301 230L303 230C303 228.147 303.3 228.65 302 228M532 231C534.042 232.416 535.511 232.745 538 233C535.958 231.584 534.489 231.255 532 231M174 232C174.051 250.59 179.288 268.006 183 286C186.444 276.399 180.06 264.383 178.245 255C176.833 247.693 177.041 238.773 174 232M253 233C254.422 234.789 254.697 235.706 255 238C253.152 236.22 252.434 235.509 253 233M383 233C381.521 233.986 381.797 234 380 234C381.68 235.323 383.913 235.639 383 233M264 234L264 238L262 238L262 234L264 234M533 234C534.769 234.779 536.036 234.912 538 235C536.231 234.221 534.964 234.088 533 234M243 237L243 239L241 239L241 237L243 237M256 240C258.193 242.54 258.779 244.665 259 248C256.751 245.565 255.117 243.32 256 240M240 241C239.316 242.58 239.195 242.777 238 244L238 241L240 241M529 241C530.506 241.683 531.315 241.826 533 242C531.494 241.317 530.685 241.174 529 241M316 245L316 247C317.186 245.964 317.604 245.661 319 245C318.326 247.297 318.035 247.774 316 249L318 253L313 252L313 246C314.737 246.062 314.64 246.02 316 245M394.667 248.333C394.222 248.778 395.278 248.722 395.333 248.667C395.778 248.222 394.722 248.278 394.667 248.333M239 255C240.081 256.458 240.436 257.248 241 259C238.996 257.753 238.177 257.263 239 255M190 258.333C190.773 258.333 190.16 258.831 189.667 258.667L190 258.333M246 261L246 263L243 263L243 261L246 261M278 261C275.11 275.86 287.33 285.845 294.441 297.001C302.759 310.048 312.477 321.931 322.495 333.718C327.926 340.11 335.977 346.286 339.582 354.04C342.309 359.907 342.364 366.659 343.129 372.91C343.512 376.044 344.792 378.803 345 382C348.208 380.077 350.179 377.12 353.134 374.88C356.906 372.021 361.415 370.06 364.91 366.86C374.685 357.913 382.085 346.329 390.251 336C394.26 330.929 396.109 324.203 401 320L401 318C394.098 314.678 385.502 315.94 378 314.37C370.882 312.881 364.612 308.7 358 305.904C354.732 304.523 351.206 304.088 348 302.471C338.81 297.837 330.489 291.354 321.675 286.12C315.677 282.559 308.994 280.578 303.09 276.68C294.26 270.852 288.872 263.117 278 261M363 275C364.297 276.594 364.535 277.018 365 279L361 278C361.691 276.612 361.985 276.139 363 275M447 279L447 282C447.696 280.446 447.696 280.554 447 279M184 288C184 297.952 182.598 305.48 180 315C187.669 307.76 188.497 297.282 184 288M424 289C424.11 291.442 424.428 293.623 425 296C425.806 293.361 425.289 291.43 424 289M431 290C429.225 292.442 428.432 294.023 428 297L430 297C430.483 294.589 431.31 292.4 431 290M431 306C430.573 308.645 430.179 309.461 428 311C428.176 309.122 428.438 307.801 429 306L431 306M426 307L427 313C424.477 311.166 424.384 309.619 426 307M299 312L300 313L299 312M301 314C303.506 320.184 308.105 324.809 312.196 330C319.852 339.713 329.274 350.533 334.145 362C338.308 371.801 336.057 381.741 336 392L341 392C339.752 391.315 339.451 391.251 338 391C338.088 387.238 339.428 383.704 339.505 380C339.782 366.827 336.921 356.052 328.409 345.83C325.511 342.351 323.461 339.279 319 338C317.809 329.616 307.53 318.99 301 314M177 319C158.907 336.769 138.731 346.283 116 356.691C103.647 362.348 86.8182 367.176 78 378C88.7295 377.749 99.4689 371.516 109 367C107.672 366.727 107.423 366.784 106 367C111.826 362.036 117.872 359.569 125 357L122 360C125.61 360.605 129.562 358.386 133 357.139C141.482 354.063 149.691 350.459 158 347C153.16 346.189 146.578 349.69 142 351.41C137.106 353.249 132.037 353.787 127 355C140.229 345.093 158.56 342.25 169.455 328.988C171.934 325.971 177.092 323.063 177 319M438 322C440.112 323.632 442.399 324.905 444 327C440.904 326.37 437.918 325.511 438 322M435 324C433.191 324.574 432.931 324.465 431 324C432.809 323.426 433.069 323.535 435 324M445 332C442.828 331.536 441.042 330.895 439 330C441.969 328.256 443.373 329.108 445 332M450 330C451.902 331.156 452.722 331.156 455 331C452.83 334.49 450.732 336.281 447 338C449.385 340.749 451.998 342.943 455 345C456.563 342.293 459.14 341.364 461 339C462.745 339.89 464.125 340.453 466 341C462.764 342.975 459.648 344.024 456 345C459.403 348.332 462.002 346.759 466 345C464.41 346.752 463.046 347.794 461 349C463.781 353.548 466.453 351.575 471 351L470 354C477.278 355.577 487.27 353.165 486 344C488.342 343.061 489.065 341.19 491 340C486.634 338.168 482.234 339.206 478 341L482 338C480.636 336.181 480.508 336.969 481 335L474 339C470.568 335.013 458.088 333.761 457 340L452 340C453.707 339.143 454.109 339.018 456 339L454 334L460 331C456.837 329.673 453.414 330 450 330M484 337C486.044 337.774 486.845 337.592 489 337C486.956 336.226 486.155 336.408 484 337M487 340C485.012 342.061 483.843 342.579 481 343C482.949 341.427 484.588 340.709 487 340M490 343C489.285 346.155 488.169 348.598 486 351C487.659 351.406 488.242 351.309 490 351L490 353C493.384 351.75 495.021 349.995 497 347L493 348L495 345C492.821 344.274 493.22 344.561 494 343L490 343M465 350L464 351L465 350M360 351L359 352L360 351M477 357C475.283 358.84 474.434 359.349 472 360C475.44 362.191 477.61 360.539 479 357L477 357M117 362C118.659 362.406 119.242 362.309 121 362C119.341 361.594 118.758 361.691 117 362M110 365C112.274 365.409 113.781 364.788 116 364C113.726 363.591 112.219 364.212 110 365z"/>
</svg>
