<?xml version="1.0" encoding="UTF-8" standalone="no"?>
<!DOCTYPE svg PUBLIC "-//W3C//DTD SVG 1.1//EN" "http://www.w3.org/Graphics/SVG/1.1/DTD/svg11.dtd">
<svg width="140px" height="380px" version="1.1" xmlns="http://www.w3.org/2000/svg" xmlns:xlink="http://www.w3.org/1999/xlink" xml:space="preserve" xmlns:serif="http://www.serif.com/" style="fill-rule:evenodd;clip-rule:evenodd;stroke-linecap:round;stroke-linejoin:round;stroke-miterlimit:1.5;">
    <g id="Panel" transform="matrix(1.9286,0,0,1,-31.1433,-742.52)">
        <rect x="15" y="742.52" width="90" height="380" style="fill:rgb(206,206,206);"/>
    </g>
    <g transform="matrix(2.19795,0,0,2.19795,-19.4494,17.7606)">
        <path d="M47.985,15.797l-0.361,2.793l-2.237,0l0.362,-2.793l-7.022,0l10.967,-13.936l-1.475,12.012l1.407,0l-0.235,1.924l-1.406,0Zm-1.992,-1.924l0.654,-5.322l-4.082,5.322l3.428,0Z" style="fill:rgb(159,159,159);fill-rule:nonzero;"/>
    </g>
    <g transform="matrix(1,0,0,1,10.7336,26.4021)">
        <path d="M46.149,10.406l-1.221,1.221c-0.573,-0.515 -1.103,-0.772 -1.591,-0.772c-0.333,0 -0.608,0.093 -0.826,0.279c-0.218,0.185 -0.327,0.415 -0.327,0.688c0,0.267 0.091,0.492 0.274,0.674c0.182,0.189 0.563,0.443 1.142,0.762c0.827,0.462 1.38,0.885 1.66,1.269c0.3,0.378 0.45,0.869 0.45,1.475c0,0.872 -0.303,1.572 -0.909,2.099c-0.618,0.521 -1.422,0.782 -2.412,0.782c-1.347,0 -2.464,-0.609 -3.349,-1.827l1.416,-0.986c0.579,0.697 1.198,1.045 1.855,1.045c0.371,0 0.669,-0.098 0.894,-0.293c0.224,-0.195 0.337,-0.449 0.337,-0.762c0,-0.273 -0.095,-0.494 -0.284,-0.664c-0.091,-0.084 -0.25,-0.202 -0.478,-0.351c-0.228,-0.15 -0.537,-0.329 -0.928,-0.537c-0.69,-0.384 -1.168,-0.759 -1.435,-1.123c-0.267,-0.385 -0.401,-0.853 -0.401,-1.407c0,-0.833 0.306,-1.523 0.918,-2.07c0.612,-0.547 1.39,-0.82 2.334,-0.82c1.042,0 2.002,0.439 2.881,1.318Z" style="fill:rgb(31,31,31);fill-rule:nonzero;"/>
        <path d="M53.994,2.096l-2.022,16.494l-2.158,0l2.031,-16.494l2.149,0Z" style="fill:rgb(31,31,31);fill-rule:nonzero;"/>
        <path d="M67.346,13.902c0,1.406 -0.488,2.588 -1.465,3.545c-0.97,0.957 -2.168,1.436 -3.594,1.436c-1.491,0 -2.708,-0.453 -3.652,-1.358c-0.951,-0.911 -1.426,-2.064 -1.426,-3.457c0,-1.426 0.492,-2.611 1.475,-3.555c0.989,-0.95 2.226,-1.425 3.711,-1.425c1.458,0 2.646,0.449 3.564,1.347c0.925,0.886 1.387,2.041 1.387,3.467Zm-2.178,-0.107c0,-0.886 -0.257,-1.586 -0.771,-2.1c-0.515,-0.534 -1.188,-0.801 -2.022,-0.801c-0.866,0 -1.582,0.297 -2.148,0.889c-0.567,0.599 -0.85,1.351 -0.85,2.256c0,0.911 0.267,1.644 0.801,2.197c0.534,0.567 1.224,0.85 2.07,0.85c0.847,0 1.543,-0.309 2.09,-0.928c0.553,-0.612 0.83,-1.4 0.83,-2.363Z" style="fill:rgb(31,31,31);fill-rule:nonzero;"/>
        <path d="M74.702,9.39l-0.117,0.967c0.931,-0.794 1.911,-1.191 2.939,-1.191c1.224,0 2.243,0.426 3.057,1.279c0.814,0.853 1.221,1.93 1.221,3.233c0,1.445 -0.466,2.662 -1.397,3.652c-0.924,0.983 -2.073,1.475 -3.447,1.475c-0.703,0 -1.279,-0.111 -1.729,-0.333c-0.468,-0.221 -0.966,-0.621 -1.494,-1.201l-0.81,6.582l-2.158,0l1.777,-14.463l2.158,0Zm4.942,4.375c0,-0.813 -0.235,-1.481 -0.704,-2.002c-0.468,-0.527 -1.067,-0.791 -1.796,-0.791c-0.873,0 -1.602,0.319 -2.188,0.958c-0.586,0.638 -0.879,1.422 -0.879,2.353c0,0.814 0.248,1.468 0.742,1.963c0.495,0.508 1.133,0.762 1.914,0.762c0.821,0 1.511,-0.313 2.071,-0.938c0.56,-0.638 0.84,-1.406 0.84,-2.305Z" style="fill:rgb(31,31,31);fill-rule:nonzero;"/>
    </g>
    <g transform="matrix(3.87814,0,0,1.00659,-526.651,-9.65173)">
        <path d="M170.696,331.365c0,-4.006 -0.844,-7.258 -1.884,-7.258l-29.925,0c-1.04,0 -1.884,3.252 -1.884,7.258l0,14.516c0,4.006 0.844,7.259 1.884,7.259l29.925,0c1.04,0 1.884,-3.253 1.884,-7.259l0,-14.516Z" style="fill:rgb(84,84,84);stroke:rgb(46,46,46);stroke-width:0.16px;"/>
    </g>
    <g id="Labels" transform="matrix(1,0,0,1,-20,0)">
        <g transform="matrix(1,0,0,1,61.298,-81.7503)">
            <path d="M19.383,182.287l1.318,0l0,4.664c0.469,-0.422 0.986,-0.633 1.553,-0.633c0.644,0 1.16,0.209 1.547,0.627c0.328,0.363 0.492,0.944 0.492,1.74l0,3.498l-1.319,0l0,-3.375c0,-0.457 -0.081,-0.788 -0.243,-0.993c-0.162,-0.205 -0.423,-0.307 -0.782,-0.307c-0.461,0 -0.785,0.142 -0.973,0.427c-0.183,0.289 -0.275,0.786 -0.275,1.489l0,2.759l-1.318,0l0,-9.896Z" style="fill-rule:nonzero;"/>
            <path d="M27.281,186.476l0,3.276c0,0.945 0.373,1.418 1.119,1.418c0.746,0 1.119,-0.473 1.119,-1.418l0,-3.276l1.319,0l0,3.305c0,0.457 -0.057,0.852 -0.17,1.184c-0.11,0.297 -0.299,0.564 -0.569,0.802c-0.445,0.387 -1.011,0.581 -1.699,0.581c-0.683,0 -1.248,-0.194 -1.693,-0.581c-0.274,-0.238 -0.467,-0.505 -0.58,-0.802c-0.11,-0.266 -0.164,-0.66 -0.164,-1.184l0,-3.305l1.318,0Z" style="fill-rule:nonzero;"/>
            <path d="M32.502,186.476l1.318,0l0,0.528c0.254,-0.266 0.471,-0.446 0.651,-0.539c0.191,-0.098 0.431,-0.147 0.72,-0.147c0.645,0 1.155,0.281 1.53,0.844c0.414,-0.563 0.974,-0.844 1.681,-0.844c1.285,0 1.928,0.78 1.928,2.338l0,3.527l-1.324,0l0,-3.169c0,-0.547 -0.067,-0.934 -0.199,-1.161c-0.137,-0.23 -0.362,-0.345 -0.674,-0.345c-0.364,0 -0.628,0.136 -0.794,0.41c-0.166,0.273 -0.249,0.713 -0.249,1.318l0,2.947l-1.325,0l0,-3.152c0,-1.016 -0.292,-1.523 -0.878,-1.523c-0.372,0 -0.642,0.138 -0.812,0.416c-0.17,0.277 -0.255,0.715 -0.255,1.312l0,2.947l-1.318,0l0,-5.707Z" style="fill-rule:nonzero;"/>
        </g>
        <g transform="matrix(1,0,0,1,18.2444,86.0451)">
            <path d="M21.532,185.061l-1.434,0l0.687,-1.171l1.998,0l0,8.293l-1.251,0l0,-7.122Z" style="fill-rule:nonzero;"/>
        </g>
        <g transform="matrix(1,0,0,1,58.4057,166.746)">
            <path d="M19.963,186.952l1.354,2.938l1.348,-2.938l1.359,0l-2.718,5.591l-2.696,-5.591l1.353,0Z" style="fill-rule:nonzero;"/>
            <path d="M28.74,183.02l0.999,0.441l-4.748,10.989l-0.989,-0.446l4.738,-10.984Z" style="fill-rule:nonzero;"/>
            <path d="M30.292,189.53c0,-0.755 0.27,-1.398 0.811,-1.928c0.541,-0.53 1.199,-0.795 1.976,-0.795c0.781,0 1.443,0.267 1.988,0.8c0.537,0.534 0.805,1.189 0.805,1.966c0,0.784 -0.27,1.441 -0.811,1.971c-0.544,0.527 -1.212,0.79 -2.003,0.79c-0.784,0 -1.441,-0.269 -1.971,-0.806c-0.53,-0.53 -0.795,-1.196 -0.795,-1.998Zm1.235,0.022c0,0.522 0.14,0.936 0.419,1.24c0.287,0.308 0.664,0.462 1.133,0.462c0.473,0 0.851,-0.152 1.134,-0.456c0.283,-0.305 0.424,-0.711 0.424,-1.22c0,-0.508 -0.141,-0.914 -0.424,-1.219c-0.287,-0.308 -0.664,-0.462 -1.134,-0.462c-0.461,0 -0.836,0.154 -1.122,0.462c-0.287,0.308 -0.43,0.706 -0.43,1.193Z" style="fill-rule:nonzero;"/>
            <path d="M41.222,187.178l0,1.606c-0.276,-0.337 -0.523,-0.568 -0.741,-0.693c-0.215,-0.129 -0.467,-0.194 -0.758,-0.194c-0.454,0 -0.832,0.16 -1.133,0.478c-0.301,0.319 -0.451,0.718 -0.451,1.198c0,0.491 0.145,0.893 0.435,1.209c0.294,0.315 0.668,0.472 1.123,0.472c0.29,0 0.546,-0.062 0.768,-0.188c0.215,-0.121 0.467,-0.358 0.757,-0.709l0,1.595c-0.491,0.255 -0.981,0.382 -1.472,0.382c-0.809,0 -1.486,-0.262 -2.03,-0.784c-0.544,-0.527 -0.816,-1.18 -0.816,-1.961c0,-0.78 0.275,-1.439 0.827,-1.976c0.551,-0.537 1.228,-0.806 2.03,-0.806c0.516,0 1.003,0.124 1.461,0.371Z" style="fill-rule:nonzero;"/>
            <path d="M43.639,188.08l0,4.103l-1.208,0l0,-4.103l-0.516,0l0,-1.128l0.516,0l0,-1.917l1.208,0l0,1.917l0.94,0l0,1.128l-0.94,0Z" style="fill-rule:nonzero;"/>
        </g>
        <g transform="matrix(1,0,0,1,15.2561,6.5095)">
            <path d="M38.628,6.527l5.289,0l0,1.422l-1.821,0l0,10.641l-1.593,0l0,-10.641l-1.875,0l0,-1.422Z" style="fill:rgb(61,61,61);fill-rule:nonzero;"/>
            <path d="M46.489,10.504l1.492,0l0,1.008c0.255,-0.428 0.508,-0.727 0.758,-0.899c0.25,-0.172 0.581,-0.271 0.992,-0.297l0,1.563c-0.104,-0.016 -0.192,-0.024 -0.265,-0.024c-0.537,0 -0.92,0.138 -1.149,0.414c-0.224,0.271 -0.336,0.745 -0.336,1.422l0,4.899l-1.492,0l0,-8.086Z" style="fill:rgb(61,61,61);fill-rule:nonzero;"/>
            <path d="M52.523,10.504l1.5,0l0,8.086l-1.5,0l0,-8.086Zm0.703,-3.438c0.27,0 0.505,0.099 0.703,0.297c0.198,0.198 0.297,0.435 0.297,0.711c0,0.281 -0.099,0.521 -0.297,0.719c-0.198,0.198 -0.438,0.297 -0.719,0.297c-0.281,0 -0.521,-0.099 -0.719,-0.297c-0.192,-0.193 -0.289,-0.435 -0.289,-0.727c0,-0.271 0.099,-0.505 0.297,-0.703c0.214,-0.198 0.456,-0.297 0.727,-0.297Z" style="fill:rgb(61,61,61);fill-rule:nonzero;"/>
            <path d="M60.595,10.504l1.5,0l0,8.343c0,1 -0.099,1.693 -0.297,2.079c-0.364,0.708 -1.096,1.062 -2.195,1.062c-0.724,0 -1.292,-0.206 -1.703,-0.617c-0.417,-0.417 -0.625,-0.977 -0.625,-1.68l0.008,-0.25l1.445,0c0,0.86 0.32,1.289 0.961,1.289c0.349,0 0.586,-0.109 0.711,-0.328c0.13,-0.208 0.195,-0.622 0.195,-1.242l0,-1.555c-0.318,0.74 -0.805,1.11 -1.461,1.11c-0.677,0 -1.176,-0.328 -1.496,-0.985c-0.32,-0.656 -0.48,-1.682 -0.48,-3.078c0,-1.479 0.153,-2.57 0.46,-3.273c0.303,-0.672 0.805,-1.008 1.508,-1.008c0.334,0 0.604,0.081 0.813,0.242c0.208,0.162 0.427,0.448 0.656,0.859l0,-0.968Zm0.023,4.117c0,-1.932 -0.333,-2.899 -1,-2.899c-0.317,0 -0.549,0.218 -0.695,0.653c-0.146,0.435 -0.219,1.131 -0.219,2.09c0,1.015 0.076,1.763 0.227,2.242c0.156,0.443 0.417,0.664 0.781,0.664c0.344,0 0.581,-0.198 0.711,-0.594c0.13,-0.37 0.195,-1.088 0.195,-2.156Z" style="fill:rgb(61,61,61);fill-rule:nonzero;"/>
            <path d="M68.675,10.504l1.5,0l0,8.343c0,1 -0.099,1.693 -0.297,2.079c-0.364,0.708 -1.096,1.062 -2.195,1.062c-0.724,0 -1.292,-0.206 -1.703,-0.617c-0.417,-0.417 -0.625,-0.977 -0.625,-1.68l0.008,-0.25l1.445,0c0,0.86 0.32,1.289 0.961,1.289c0.349,0 0.586,-0.109 0.711,-0.328c0.13,-0.208 0.195,-0.622 0.195,-1.242l0,-1.555c-0.317,0.74 -0.804,1.11 -1.461,1.11c-0.677,0 -1.175,-0.328 -1.496,-0.985c-0.32,-0.656 -0.48,-1.682 -0.48,-3.078c0,-1.479 0.153,-2.57 0.461,-3.273c0.302,-0.672 0.804,-1.008 1.508,-1.008c0.333,0 0.604,0.081 0.812,0.242c0.208,0.162 0.427,0.448 0.656,0.859l0,-0.968Zm0.024,4.117c0,-1.932 -0.334,-2.899 -1,-2.899c-0.318,0 -0.55,0.218 -0.696,0.653c-0.145,0.435 -0.218,1.131 -0.218,2.09c0,1.015 0.075,1.763 0.226,2.242c0.157,0.443 0.417,0.664 0.782,0.664c0.343,0 0.58,-0.198 0.71,-0.594c0.131,-0.37 0.196,-1.088 0.196,-2.156Z" style="fill:rgb(61,61,61);fill-rule:nonzero;"/>
            <path d="M76.748,15.863l1.39,0c-0.109,1.901 -0.89,2.852 -2.343,2.852c-0.433,0 -0.804,-0.081 -1.114,-0.243c-0.309,-0.161 -0.566,-0.411 -0.769,-0.75c-0.203,-0.338 -0.353,-0.768 -0.449,-1.289c-0.097,-0.52 -0.145,-1.14 -0.145,-1.859c0,-1.427 0.199,-2.484 0.598,-3.172c0.398,-0.687 1.014,-1.031 1.847,-1.031c1.62,0 2.43,1.427 2.43,4.281l0,0.188l-3.414,0c0,1.729 0.344,2.593 1.031,2.593c0.625,0 0.938,-0.523 0.938,-1.57Zm-0.078,-2.101c-0.063,-0.849 -0.159,-1.407 -0.289,-1.672c-0.136,-0.297 -0.355,-0.446 -0.657,-0.446c-0.307,0 -0.526,0.149 -0.656,0.446c-0.13,0.265 -0.226,0.823 -0.289,1.672l1.891,0Z" style="fill:rgb(61,61,61);fill-rule:nonzero;"/>
            <path d="M81.281,10.504l1.492,0l0,1.008c0.256,-0.428 0.508,-0.727 0.758,-0.899c0.25,-0.172 0.581,-0.271 0.992,-0.297l0,1.563c-0.104,-0.016 -0.192,-0.024 -0.265,-0.024c-0.537,0 -0.919,0.138 -1.149,0.414c-0.224,0.271 -0.336,0.745 -0.336,1.422l0,4.899l-1.492,0l0,-8.086Z" style="fill:rgb(61,61,61);fill-rule:nonzero;"/>
            <path d="M87.401,6.527l4.343,0l0,1.375l-2.718,0l0,3.813l2.453,0l0,1.375l-2.453,0l0,5.5l-1.625,0l0,-12.063Z" style="fill:rgb(61,61,61);fill-rule:nonzero;"/>
            <path d="M94.668,10.504l1.5,0l0,8.086l-1.5,0l0,-8.086Zm0.704,-3.438c0.27,0 0.505,0.099 0.703,0.297c0.198,0.198 0.297,0.435 0.297,0.711c0,0.281 -0.099,0.521 -0.297,0.719c-0.198,0.198 -0.438,0.297 -0.719,0.297c-0.281,0 -0.521,-0.099 -0.719,-0.297c-0.192,-0.193 -0.289,-0.435 -0.289,-0.727c0,-0.271 0.099,-0.505 0.297,-0.703c0.214,-0.198 0.456,-0.297 0.727,-0.297Z" style="fill:rgb(61,61,61);fill-rule:nonzero;"/>
            <path d="M102.733,10.668l0,1.398c-0.364,-0.271 -0.747,-0.406 -1.148,-0.406c-0.136,0 -0.261,0.023 -0.375,0.07c-0.115,0.047 -0.215,0.111 -0.301,0.192c-0.086,0.08 -0.154,0.177 -0.203,0.289c-0.05,0.112 -0.074,0.23 -0.074,0.355c0,0.386 0.349,0.844 1.046,1.375c0.282,0.219 0.516,0.422 0.704,0.61c0.187,0.187 0.33,0.364 0.429,0.531c0.203,0.328 0.305,0.742 0.305,1.242c0,0.724 -0.211,1.305 -0.633,1.742c-0.417,0.433 -0.976,0.649 -1.68,0.649c-0.432,0 -0.869,-0.128 -1.312,-0.383l0,-1.445c0.432,0.322 0.841,0.484 1.227,0.484c0.682,0 1.023,-0.336 1.023,-1.008c0,-0.25 -0.063,-0.466 -0.188,-0.648c-0.057,-0.089 -0.148,-0.192 -0.273,-0.309c-0.125,-0.117 -0.279,-0.249 -0.461,-0.394c-0.63,-0.49 -1.057,-0.902 -1.281,-1.235c-0.219,-0.344 -0.328,-0.758 -0.328,-1.242c0,-0.651 0.2,-1.185 0.601,-1.602c0.407,-0.411 0.935,-0.617 1.586,-0.617c0.459,0 0.904,0.117 1.336,0.352Z" style="fill:rgb(61,61,61);fill-rule:nonzero;"/>
            <path d="M106.071,5.316l1.492,0l0,6.117c0.428,-0.708 0.98,-1.062 1.657,-1.062c0.656,0 1.125,0.258 1.406,0.773c0.156,0.292 0.234,0.857 0.234,1.696l0,5.75l-1.492,0l-0.008,-5.407c0,-0.546 -0.065,-0.934 -0.195,-1.164c-0.13,-0.229 -0.354,-0.343 -0.672,-0.343c-0.172,0 -0.316,0.03 -0.433,0.089c-0.118,0.06 -0.213,0.157 -0.286,0.29c-0.073,0.132 -0.126,0.305 -0.16,0.519c-0.034,0.214 -0.051,0.477 -0.051,0.789l0,5.227l-1.492,0l0,-13.274Z" style="fill:rgb(61,61,61);fill-rule:nonzero;"/>
        </g>
        <g transform="matrix(6.12323e-17,1,-1,6.12323e-17,282.846,256.325)">
            <g transform="matrix(1,0,0,1,20,0)">
                <path d="M32.571,242.037l6.003,0" style="fill:none;stroke:black;stroke-width:0.45px;"/>
            </g>
            <g transform="matrix(1,0,0,1,20,0)">
                <path d="M38.574,242.037l-1.659,-2.146" style="fill:none;stroke:black;stroke-width:0.45px;"/>
            </g>
            <g transform="matrix(1,0,0,-1,20,483.929)">
                <path d="M38.574,242.037l-1.659,-2.146" style="fill:none;stroke:black;stroke-width:0.45px;"/>
            </g>
        </g>
        <g transform="matrix(6.12323e-17,1,-1,6.12323e-17,315.716,256.325)">
            <g transform="matrix(1,0,0,1,20,0)">
                <path d="M32.571,242.037l6.003,0" style="fill:none;stroke:black;stroke-width:0.45px;"/>
            </g>
            <g transform="matrix(1,0,0,1,20,0)">
                <path d="M38.574,242.037l-1.659,-2.146" style="fill:none;stroke:black;stroke-width:0.45px;"/>
            </g>
            <g transform="matrix(1,0,0,-1,20,483.929)">
                <path d="M38.574,242.037l-1.659,-2.146" style="fill:none;stroke:black;stroke-width:0.45px;"/>
            </g>
        </g>
        <g transform="matrix(6.12323e-17,1,-1,6.12323e-17,348.585,256.325)">
            <g transform="matrix(1,0,0,1,20,0)">
                <path d="M32.571,242.037l6.003,0" style="fill:none;stroke:black;stroke-width:0.45px;"/>
            </g>
            <g transform="matrix(1,0,0,1,20,0)">
                <path d="M38.574,242.037l-1.659,-2.146" style="fill:none;stroke:black;stroke-width:0.45px;"/>
            </g>
            <g transform="matrix(1,0,0,-1,20,483.929)">
                <path d="M38.574,242.037l-1.659,-2.146" style="fill:none;stroke:black;stroke-width:0.45px;"/>
            </g>
        </g>
        <g transform="matrix(6.12323e-17,1,-1,6.12323e-17,381.455,256.325)">
            <g transform="matrix(1,0,0,1,20,0)">
                <path d="M32.571,242.037l6.003,0" style="fill:none;stroke:black;stroke-width:0.45px;"/>
            </g>
            <g transform="matrix(1,0,0,1,20,0)">
                <path d="M38.574,242.037l-1.659,-2.146" style="fill:none;stroke:black;stroke-width:0.45px;"/>
            </g>
            <g transform="matrix(1,0,0,-1,20,483.929)">
                <path d="M38.574,242.037l-1.659,-2.146" style="fill:none;stroke:black;stroke-width:0.45px;"/>
            </g>
        </g>
        <g transform="matrix(1,0,0,1,84.5891,85.9108)">
            <path d="M21.397,188.332l0,-1.068c0.53,0 0.887,-0.06 1.069,-0.178c0.326,-0.207 0.489,-0.54 0.489,-0.999c0,-0.354 -0.118,-0.642 -0.355,-0.864c-0.232,-0.226 -0.535,-0.339 -0.907,-0.339c-0.348,0 -0.616,0.084 -0.806,0.253c-0.183,0.171 -0.319,0.461 -0.408,0.87l-1.246,0c0.129,-0.781 0.394,-1.353 0.795,-1.716c0.401,-0.364 0.961,-0.546 1.681,-0.546c0.727,0 1.319,0.215 1.778,0.645c0.458,0.426 0.687,0.976 0.687,1.649c0,0.759 -0.301,1.35 -0.902,1.772c0.687,0.405 1.031,1.062 1.031,1.972c0,0.744 -0.251,1.353 -0.752,1.826c-0.501,0.472 -1.144,0.709 -1.928,0.709c-0.999,0 -1.74,-0.367 -2.224,-1.101c-0.2,-0.308 -0.327,-0.734 -0.381,-1.279l1.208,0c0.065,0.401 0.222,0.708 0.47,0.921c0.249,0.214 0.574,0.32 0.975,0.32c0.405,0 0.74,-0.134 1.005,-0.403c0.265,-0.276 0.397,-0.625 0.397,-1.047c0,-0.559 -0.199,-0.956 -0.596,-1.193c-0.233,-0.136 -0.593,-0.204 -1.08,-0.204Z" style="fill-rule:nonzero;"/>
        </g>
        <g transform="matrix(1,0,0,1,52.2077,86.0451)">
            <path d="M21.306,191.007l3.088,0l0,1.176l-5.569,0l2.878,-3.485c0.283,-0.348 0.521,-0.649 0.712,-0.903c0.192,-0.254 0.338,-0.467 0.438,-0.639c0.204,-0.336 0.306,-0.639 0.306,-0.908c0,-0.386 -0.136,-0.71 -0.408,-0.972c-0.272,-0.261 -0.609,-0.392 -1.01,-0.392c-0.838,0 -1.318,0.496 -1.439,1.488l-1.246,0c0.2,-1.747 1.083,-2.621 2.647,-2.621c0.756,0 1.39,0.24 1.902,0.72c0.515,0.479 0.773,1.074 0.773,1.783c0,0.451 -0.12,0.893 -0.36,1.326c-0.121,0.226 -0.299,0.494 -0.534,0.803c-0.235,0.31 -0.531,0.676 -0.889,1.099l-1.289,1.525Z" style="fill-rule:nonzero;"/>
        </g>
        <g transform="matrix(1,0,0,1,117.244,86.0451)">
            <path d="M23.975,189.869l0.881,0l0,1.138l-0.881,0l0,1.176l-1.251,0l0,-1.176l-4.071,0l5.322,-7.734l0,6.596Zm-1.251,0l0,-2.777l-1.912,2.777l1.912,0Z" style="fill-rule:nonzero;"/>
        </g>
    </g>
    <g transform="matrix(1,0,0,1,37.8585,17.713)">
        <path d="M20.742,187.707l0,4.476l-1.318,0l0,-4.476l-0.563,0l0,-1.231l0.563,0l0,-2.091l1.318,0l0,2.091l1.025,0l0,1.231l-1.025,0Z" style="fill-rule:nonzero;"/>
        <path d="M22.664,186.476l1.318,0l0,0.51c0.242,-0.254 0.457,-0.428 0.645,-0.521c0.191,-0.098 0.418,-0.147 0.68,-0.147c0.347,0 0.71,0.113 1.089,0.34l-0.603,1.207c-0.25,-0.18 -0.494,-0.269 -0.733,-0.269c-0.718,0 -1.078,0.543 -1.078,1.628l0,2.959l-1.318,0l0,-5.707Z" style="fill-rule:nonzero;"/>
        <path d="M31.277,186.476l1.324,0l0,5.707l-1.324,0l0,-0.597c-0.543,0.508 -1.127,0.762 -1.752,0.762c-0.789,0 -1.441,-0.286 -1.957,-0.856c-0.511,-0.582 -0.767,-1.309 -0.767,-2.18c0,-0.855 0.256,-1.568 0.767,-2.138c0.512,-0.571 1.153,-0.856 1.922,-0.856c0.664,0 1.26,0.274 1.787,0.821l0,-0.663Zm-3.129,2.836c0,0.547 0.147,0.993 0.44,1.336c0.301,0.348 0.679,0.522 1.136,0.522c0.489,0 0.883,-0.168 1.184,-0.504c0.301,-0.348 0.451,-0.789 0.451,-1.324c0,-0.536 -0.15,-0.977 -0.451,-1.325c-0.301,-0.339 -0.691,-0.509 -1.172,-0.509c-0.453,0 -0.832,0.172 -1.137,0.515c-0.3,0.348 -0.451,0.778 -0.451,1.289Z" style="fill-rule:nonzero;"/>
        <path d="M38.707,186.723l0,1.751c-0.301,-0.367 -0.57,-0.619 -0.809,-0.755c-0.234,-0.141 -0.509,-0.211 -0.826,-0.211c-0.496,0 -0.908,0.173 -1.236,0.521c-0.328,0.348 -0.492,0.783 -0.492,1.307c0,0.535 0.158,0.974 0.474,1.318c0.321,0.344 0.729,0.516 1.225,0.516c0.316,0 0.596,-0.069 0.838,-0.205c0.234,-0.133 0.509,-0.391 0.826,-0.774l0,1.74c-0.535,0.278 -1.07,0.417 -1.606,0.417c-0.882,0 -1.621,-0.286 -2.214,-0.856c-0.594,-0.574 -0.891,-1.287 -0.891,-2.139c0,-0.851 0.301,-1.57 0.902,-2.156c0.602,-0.586 1.34,-0.879 2.215,-0.879c0.563,0 1.094,0.135 1.594,0.405Z" style="fill-rule:nonzero;"/>
        <path d="M41.613,182.287l0,6.035l1.858,-1.846l1.769,0l-2.478,2.397l2.66,3.31l-1.711,0l-1.887,-2.408l-0.211,0.211l0,2.197l-1.318,0l0,-9.896l1.318,0Z" style="fill-rule:nonzero;"/>
    </g>
    <g transform="matrix(1,0,0,1,40.1349,-39.7023)">
        <path d="M23.59,182.287l1.324,0l0,9.896l-1.324,0l0,-0.597c-0.52,0.508 -1.108,0.762 -1.764,0.762c-0.781,0 -1.43,-0.286 -1.945,-0.856c-0.512,-0.582 -0.768,-1.309 -0.768,-2.18c0,-0.851 0.256,-1.562 0.768,-2.132c0.508,-0.575 1.146,-0.862 1.916,-0.862c0.668,0 1.265,0.274 1.793,0.821l0,-4.852Zm-3.129,7.025c0,0.547 0.146,0.993 0.439,1.336c0.301,0.348 0.68,0.522 1.137,0.522c0.488,0 0.883,-0.168 1.184,-0.504c0.3,-0.348 0.451,-0.789 0.451,-1.324c0,-0.536 -0.151,-0.977 -0.451,-1.325c-0.301,-0.339 -0.692,-0.509 -1.172,-0.509c-0.453,0 -0.832,0.172 -1.137,0.515c-0.301,0.348 -0.451,0.778 -0.451,1.289Z" style="fill-rule:nonzero;"/>
        <path d="M26.578,186.476l1.318,0l0,0.51c0.243,-0.254 0.457,-0.428 0.645,-0.521c0.191,-0.098 0.418,-0.147 0.68,-0.147c0.347,0 0.711,0.113 1.089,0.34l-0.603,1.207c-0.25,-0.18 -0.494,-0.269 -0.733,-0.269c-0.718,0 -1.078,0.543 -1.078,1.628l0,2.959l-1.318,0l0,-5.707Z" style="fill-rule:nonzero;"/>
        <path d="M32.566,186.476l0,5.707l-1.318,0l0,-5.707l1.318,0Zm-1.517,-2.373c0,-0.23 0.084,-0.429 0.252,-0.597c0.168,-0.168 0.369,-0.252 0.603,-0.252c0.238,0 0.442,0.084 0.61,0.252c0.168,0.164 0.251,0.365 0.251,0.603c0,0.239 -0.083,0.442 -0.251,0.61c-0.165,0.168 -0.366,0.252 -0.604,0.252c-0.238,0 -0.441,-0.084 -0.609,-0.252c-0.168,-0.168 -0.252,-0.373 -0.252,-0.616Z" style="fill-rule:nonzero;"/>
        <path d="M35.601,187.707l0,4.476l-1.324,0l0,-4.476l-0.469,0l0,-1.231l0.469,0l0,-2.203c0,-0.718 0.125,-1.226 0.375,-1.523c0.344,-0.414 0.844,-0.621 1.5,-0.621c0.235,0 0.53,0.068 0.885,0.205l0,1.347l-0.135,-0.07c-0.285,-0.144 -0.519,-0.217 -0.703,-0.217c-0.234,0 -0.392,0.084 -0.475,0.252c-0.082,0.164 -0.123,0.481 -0.123,0.95l0,1.88l1.436,0l0,1.231l-1.436,0Z" style="fill-rule:nonzero;"/>
        <path d="M39.592,187.707l0,4.476l-1.319,0l0,-4.476l-0.562,0l0,-1.231l0.562,0l0,-2.091l1.319,0l0,2.091l1.025,0l0,1.231l-1.025,0Z" style="fill-rule:nonzero;"/>
    </g>
    <g transform="matrix(1,0,0,1,82.8184,-15.1894)">
        <path d="M20.701,186.476l0,5.707l-1.318,0l0,-5.707l1.318,0Zm-1.518,-2.373c0,-0.23 0.084,-0.429 0.252,-0.597c0.168,-0.168 0.37,-0.252 0.604,-0.252c0.238,0 0.441,0.084 0.609,0.252c0.168,0.164 0.252,0.365 0.252,0.603c0,0.239 -0.084,0.442 -0.252,0.61c-0.164,0.168 -0.365,0.252 -0.603,0.252c-0.238,0 -0.442,-0.084 -0.61,-0.252c-0.168,-0.168 -0.252,-0.373 -0.252,-0.616Z" style="fill:rgb(75,75,75);fill-rule:nonzero;"/>
        <path d="M22.371,186.476l1.324,0l0,0.528c0.461,-0.457 0.981,-0.686 1.559,-0.686c0.664,0 1.181,0.209 1.553,0.627c0.32,0.356 0.48,0.936 0.48,1.74l0,3.498l-1.324,0l0,-3.187c0,-0.563 -0.078,-0.951 -0.235,-1.166c-0.152,-0.219 -0.429,-0.328 -0.832,-0.328c-0.437,0 -0.748,0.144 -0.931,0.433c-0.18,0.286 -0.27,0.784 -0.27,1.495l0,2.753l-1.324,0l0,-5.707Z" style="fill:rgb(75,75,75);fill-rule:nonzero;"/>
        <path d="M33.158,182.287l1.324,0l0,9.896l-1.324,0l0,-0.597c-0.519,0.508 -1.107,0.762 -1.764,0.762c-0.781,0 -1.429,-0.286 -1.945,-0.856c-0.512,-0.582 -0.767,-1.309 -0.767,-2.18c0,-0.851 0.255,-1.562 0.767,-2.132c0.508,-0.575 1.147,-0.862 1.916,-0.862c0.668,0 1.266,0.274 1.793,0.821l0,-4.852Zm-3.129,7.025c0,0.547 0.147,0.993 0.44,1.336c0.3,0.348 0.679,0.522 1.136,0.522c0.489,0 0.883,-0.168 1.184,-0.504c0.301,-0.348 0.451,-0.789 0.451,-1.324c0,-0.536 -0.15,-0.977 -0.451,-1.325c-0.301,-0.339 -0.691,-0.509 -1.172,-0.509c-0.453,0 -0.832,0.172 -1.137,0.515c-0.3,0.348 -0.451,0.778 -0.451,1.289Z" style="fill:rgb(75,75,75);fill-rule:nonzero;"/>
        <path d="M37.465,186.476l0,5.707l-1.319,0l0,-5.707l1.319,0Zm-1.518,-2.373c0,-0.23 0.084,-0.429 0.252,-0.597c0.168,-0.168 0.369,-0.252 0.604,-0.252c0.238,0 0.441,0.084 0.609,0.252c0.168,0.164 0.252,0.365 0.252,0.603c0,0.239 -0.084,0.442 -0.252,0.61c-0.164,0.168 -0.365,0.252 -0.604,0.252c-0.238,0 -0.441,-0.084 -0.609,-0.252c-0.168,-0.168 -0.252,-0.373 -0.252,-0.616Z" style="fill:rgb(75,75,75);fill-rule:nonzero;"/>
        <path d="M39.844,186.476l1.476,3.205l1.471,-3.205l1.482,0l-2.965,6.1l-2.941,-6.1l1.477,0Z" style="fill:rgb(75,75,75);fill-rule:nonzero;"/>
    </g>
    <g transform="matrix(1,0,0,1,-11.6834,-14.9609)">
        <path d="M22.699,187.449l-1.09,0.58c-0.172,-0.351 -0.385,-0.527 -0.638,-0.527c-0.122,0 -0.225,0.04 -0.311,0.12c-0.086,0.08 -0.129,0.183 -0.129,0.308c0,0.218 0.254,0.435 0.762,0.65c0.699,0.301 1.17,0.578 1.412,0.832c0.242,0.254 0.363,0.596 0.363,1.025c0,0.551 -0.203,1.012 -0.609,1.383c-0.395,0.352 -0.871,0.528 -1.43,0.528c-0.957,0 -1.635,-0.467 -2.033,-1.401l1.125,-0.521c0.156,0.273 0.275,0.447 0.357,0.521c0.161,0.149 0.352,0.223 0.575,0.223c0.445,0 0.668,-0.203 0.668,-0.61c0,-0.234 -0.172,-0.453 -0.516,-0.656c-0.133,-0.066 -0.266,-0.131 -0.398,-0.193c-0.133,-0.063 -0.268,-0.127 -0.405,-0.194c-0.383,-0.187 -0.652,-0.375 -0.808,-0.562c-0.2,-0.238 -0.299,-0.545 -0.299,-0.92c0,-0.496 0.17,-0.906 0.51,-1.23c0.347,-0.325 0.769,-0.487 1.265,-0.487c0.731,0 1.274,0.377 1.629,1.131Z" style="fill:rgb(75,75,75);fill-rule:nonzero;"/>
        <path d="M24.252,182.287l1.318,0l0,4.664c0.469,-0.422 0.987,-0.633 1.553,-0.633c0.644,0 1.16,0.209 1.547,0.627c0.328,0.363 0.492,0.944 0.492,1.74l0,3.498l-1.318,0l0,-3.375c0,-0.457 -0.081,-0.788 -0.244,-0.993c-0.162,-0.205 -0.422,-0.307 -0.782,-0.307c-0.461,0 -0.785,0.142 -0.972,0.427c-0.184,0.289 -0.276,0.786 -0.276,1.489l0,2.759l-1.318,0l0,-9.896Z" style="fill:rgb(75,75,75);fill-rule:nonzero;"/>
        <path d="M35.039,186.476l1.324,0l0,5.707l-1.324,0l0,-0.597c-0.543,0.508 -1.127,0.762 -1.752,0.762c-0.789,0 -1.441,-0.286 -1.957,-0.856c-0.512,-0.582 -0.768,-1.309 -0.768,-2.18c0,-0.855 0.256,-1.568 0.768,-2.138c0.512,-0.571 1.152,-0.856 1.922,-0.856c0.664,0 1.26,0.274 1.787,0.821l0,-0.663Zm-3.129,2.836c0,0.547 0.147,0.993 0.439,1.336c0.301,0.348 0.68,0.522 1.137,0.522c0.488,0 0.883,-0.168 1.184,-0.504c0.301,-0.348 0.451,-0.789 0.451,-1.324c0,-0.536 -0.15,-0.977 -0.451,-1.325c-0.301,-0.339 -0.692,-0.509 -1.172,-0.509c-0.453,0 -0.832,0.172 -1.137,0.515c-0.301,0.348 -0.451,0.778 -0.451,1.289Z" style="fill:rgb(75,75,75);fill-rule:nonzero;"/>
        <path d="M38.027,186.476l1.319,0l0,0.51c0.242,-0.254 0.457,-0.428 0.644,-0.521c0.192,-0.098 0.418,-0.147 0.68,-0.147c0.347,0 0.711,0.113 1.09,0.34l-0.604,1.207c-0.25,-0.18 -0.494,-0.269 -0.732,-0.269c-0.719,0 -1.078,0.543 -1.078,1.628l0,2.959l-1.319,0l0,-5.707Z" style="fill:rgb(75,75,75);fill-rule:nonzero;"/>
        <path d="M47.631,189.64l-4.09,0c0.035,0.469 0.187,0.842 0.457,1.12c0.269,0.273 0.615,0.41 1.037,0.41c0.328,0 0.6,-0.078 0.814,-0.235c0.211,-0.156 0.452,-0.445 0.721,-0.867l1.113,0.621c-0.171,0.293 -0.353,0.544 -0.544,0.753c-0.192,0.209 -0.397,0.381 -0.616,0.516c-0.218,0.135 -0.455,0.233 -0.709,0.296c-0.254,0.062 -0.529,0.094 -0.826,0.094c-0.851,0 -1.535,-0.274 -2.051,-0.821c-0.515,-0.551 -0.773,-1.281 -0.773,-2.191c0,-0.903 0.25,-1.633 0.75,-2.192c0.504,-0.55 1.172,-0.826 2.004,-0.826c0.84,0 1.504,0.268 1.992,0.803c0.484,0.531 0.727,1.268 0.727,2.209l-0.006,0.31Zm-1.354,-1.078c-0.183,-0.703 -0.627,-1.054 -1.33,-1.054c-0.16,0 -0.31,0.024 -0.451,0.073c-0.141,0.049 -0.269,0.119 -0.384,0.211c-0.115,0.092 -0.214,0.202 -0.296,0.331c-0.082,0.129 -0.144,0.275 -0.187,0.439l2.648,0Z" style="fill:rgb(75,75,75);fill-rule:nonzero;"/>
        <path d="M53.279,182.287l1.324,0l0,9.896l-1.324,0l0,-0.597c-0.519,0.508 -1.107,0.762 -1.764,0.762c-0.781,0 -1.429,-0.286 -1.945,-0.856c-0.512,-0.582 -0.767,-1.309 -0.767,-2.18c0,-0.851 0.255,-1.562 0.767,-2.132c0.508,-0.575 1.147,-0.862 1.916,-0.862c0.668,0 1.266,0.274 1.793,0.821l0,-4.852Zm-3.129,7.025c0,0.547 0.147,0.993 0.44,1.336c0.3,0.348 0.679,0.522 1.136,0.522c0.489,0 0.883,-0.168 1.184,-0.504c0.301,-0.348 0.451,-0.789 0.451,-1.324c0,-0.536 -0.15,-0.977 -0.451,-1.325c-0.301,-0.339 -0.691,-0.509 -1.172,-0.509c-0.453,0 -0.832,0.172 -1.137,0.515c-0.3,0.348 -0.451,0.778 -0.451,1.289Z" style="fill:rgb(75,75,75);fill-rule:nonzero;"/>
    </g>
</svg>
