<?xml version="1.0" encoding="UTF-8" standalone="no"?>
<!DOCTYPE svg PUBLIC "-//W3C//DTD SVG 1.1//EN" "http://www.w3.org/Graphics/SVG/1.1/DTD/svg11.dtd">
<svg width="100%" height="100%" viewBox="0 0 180 380" version="1.1" xmlns="http://www.w3.org/2000/svg" xmlns:xlink="http://www.w3.org/1999/xlink" xml:space="preserve" xmlns:serif="http://www.serif.com/" style="fill-rule:evenodd;clip-rule:evenodd;stroke-linecap:round;stroke-linejoin:round;stroke-miterlimit:1.5;">
    <g id="Panel" transform="matrix(3.05655,0,0,1,-87.2732,-742.52)">
        <rect x="15" y="742.52" width="90" height="380" style="fill:rgb(206,206,206);"/>
    </g>
    <g id="Logo" transform="matrix(0.251278,0,0,0.251278,90.2138,64.8373)">
        <g opacity="0.75">
            <g transform="matrix(1,0,0,1,-370,-202)">
                <path d="M290,9c3.629,1.509 7.214,0.073 11,0.803c8.089,1.559 15.874,3.683 24,5.197c-2.109,-3.082 -5.478,-3.917 -9,-4.964c-8.702,-2.585 -17.125,-2.158 -26,-1.036m-47,25c11.503,-4.726 21.761,-11.828 34,-14.765c7.725,-1.854 16.007,-4.54 24,-2.706c20.033,4.598 31.86,26.504 26.961,45.471c-8.597,33.281 -32.89,61.345 -47.555,92c-4.828,10.091 -10.492,19.527 -11.406,31c5.556,-3.895 5.932,-14.94 9.09,-21c2.82,-5.413 5.172,-11.81 8.569,-16.83c3.258,-4.815 7.439,-9.044 10.21,-14.209c1.962,-3.658 2.379,-7.852 4.26,-11.497c3.229,-6.26 9.418,-12.272 9.871,-19.464c5.387,-1.826 9.138,-8.508 8,-14c6.085,-2.961 8.978,-8.795 11,-15c-1.888,-3.597 0.889,-9.062 1.532,-13c0.969,-5.935 0.616,-18.349 -2.046,-23.816c-1.224,-2.514 -3.736,-4.125 -5.456,-6.279c-8.921,-11.172 -22.101,-18.435 -37.03,-16.72c-7.716,0.887 -13.97,5.169 -21,8.016c-5.32,2.154 -10.036,4.768 -15,7.604c-2.925,1.671 -5.983,2.453 -8,5.195m30.667,-19.667c-0.445,0.445 0.611,0.389 0.666,0.334c0.445,-0.445 -0.611,-0.389 -0.666,-0.334m53.333,-0.333l1,1l-1,-1m2,1c1.458,1.081 2.248,1.436 4,2c-1.458,-1.081 -2.248,-1.436 -4,-2m-64,3c2.533,0.537 4.512,-0.22 7,-1c-2.533,-0.537 -4.512,0.22 -7,1m69,-1l1,1l-1,-1m2,1l1,1l-1,-1m-79,4c2.603,0.258 4.581,-0.933 7,-2c-2.764,-0.47 -4.553,0.631 -7,2m81,-3l1,1l-1,-1m-18,1c4.392,4.043 8.618,9.929 15,9c0.878,2.018 1.651,3.232 3,5l-5,-2c0.526,2.543 0.878,3.535 3,5c-1.525,7.843 -0.681,16.891 -1.039,25c-0.296,6.692 -1.823,13.294 -1.961,20c-6.321,1.953 -14.251,15.584 -14,22c-5.072,2.072 -9.582,10.211 -11.778,15.222c-1.296,2.959 -3.041,5.943 0.778,6.778c-7.158,3.404 -10.829,13.021 -14,20l4,1c-5.279,0.598 -8.861,2.182 -9,8c-2.712,2.475 -0.289,5.117 1,8l-4,-3c-0.481,2.201 -0.481,2.799 0,5l-3,-1c-2.037,5.924 -8.653,14.035 -5.397,20.682c2.363,4.822 10.482,1.3 13.527,-0.812c5.786,-4.014 10.236,-10.044 15.298,-14.894c4.729,-4.53 9.571,-6.993 10.572,-13.976c6.038,-0.993 10.688,-6.827 14.865,-11.025c7.166,-7.202 15.204,-15.734 23.266,-21.882c4.853,-3.7 13.85,-6.005 15.869,-12.093l5,0l1,-5l4,1l0,-4c2.021,0.881 3.854,1.496 6,2l1,-4c1.479,0.986 1.203,1 3,1l0,-5c2.299,1.498 3.284,1.498 6,1l0,-5l4,3l-1,-4l4,3c-1.405,-3.286 -2.845,-5.296 -6,-7l1,3c-1.925,-3.247 -2.592,-7.082 -5.159,-9.946c-3.811,-4.251 -8.787,-6.015 -11.841,-11.054l-3,1c-1.386,-6.749 -8.573,-13.787 -15,-16l4,7c-4.605,-2.787 -3.99,-7.669 -6.505,-11.961c-3.316,-5.656 -8.53,-9.199 -12.997,-13.748c-3.186,-3.245 -4.016,-6.459 -8.498,-8.291l1,5c-2.122,-2.384 -3.32,-3.909 -4,-7c-5.922,-3.126 -10.446,-3.783 -17,-5m20,0c4.647,5.318 10.803,9.216 16,14l-6,-3c3.493,6.091 10.069,6.544 14.726,11.301c11.103,11.341 20.446,24.919 32.85,35.154c7.69,6.346 19.294,11.502 19.424,22.545c-11.808,1.183 -21.96,7.253 -31.209,13.957c-3.188,2.31 -8.261,2.775 -8.791,7.043c-4.073,0.673 -9.328,0.948 -12.961,2.988c-4.281,2.405 -6.473,6.907 -11.039,9.012c0.183,5.132 -9.542,7.434 -13,10c-2.329,1.728 -4.168,4.687 -6.167,6.833c-2.006,2.156 -3.575,5.125 -5.833,7c-1.529,1.271 -3.483,1.616 -4.833,3.167c-1.501,1.724 -1.898,4.137 -3.5,5.833c-1.751,1.854 -4.4,2.872 -6.334,4.5c-4.202,3.54 -7.903,7.589 -12.166,11c-3.374,2.699 -5.329,5.934 -9.167,8c-3.802,2.047 -8.404,6.266 -13,5.667c-3.41,-0.445 -8.07,-5.543 -10,-8c-3.344,8.214 6.079,10.073 12,12l0,2c-8.159,2.332 -15.277,6.134 -24,6l1,3l-7,5c0.318,2.877 0.62,4.334 3,6c0.674,-2.297 0.965,-2.774 3,-4l-2,7l2,0l-1,3c-2.566,-2.052 -4.776,-2.581 -8,-3c0.074,6.691 3.145,12.599 4.853,19.001c0.641,2.403 2.215,5.013 1.79,7.559c-0.74,4.425 -6.056,7.583 -9.643,9.44c-1.04,-3.162 -4.727,-7.477 -3.633,-10.871c0.942,-2.921 4.331,-4.065 5.185,-7.183c0.793,-2.892 -0.082,-5.3 1.448,-7.946c-2.438,-8.545 -3.917,-15.324 -13,-18c1.218,-2.118 1.867,-2.845 4,-4l-2,-14c1.635,0.545 1.455,0.365 2,2l4,0c-3.883,-4.375 -8.944,-7.585 -13.285,-11.514c-7.373,-6.672 -14.484,-13.858 -22.715,-19.486c4.642,6.59 11.071,11.927 17.039,17.309c2.415,2.177 6.585,4.27 7.361,7.688c0.752,3.314 -2.907,4.945 -4.47,7.262c-1.854,2.748 -2.738,6.604 -3.736,9.741c-4.35,13.678 -1.616,24.379 0.531,38c1.111,7.047 4.95,17.344 12.275,20c-0.12,10.837 -8.661,20.722 -15.559,28.572c-6.589,7.496 -13.725,15.629 -21.441,21.963c-12.193,10.011 -26.44,17.543 -40,25.465c3.34,0.556 6.117,-1.33 9,-3.012c5.731,-3.343 11.368,-6.905 17,-10.413c20.798,-12.954 36.317,-30.687 50.279,-50.575c8.692,-12.381 19.799,-30.122 36.721,-31c-1.796,5.637 -5.405,9.745 -4.941,16c0.942,12.718 14.046,24.621 21.493,34c3.216,4.051 5.758,8.618 10.448,11c-7.765,-12.471 -19.772,-23.635 -23.471,-38c-0.948,-3.683 -4.165,-11.03 -0.922,-14.258c2.432,-2.42 6.578,-1.56 9.393,-0.459c6.632,2.595 12.632,8.448 18,13.016c6.812,5.798 13.368,7.618 20.91,11.872c16.978,9.574 32.45,19.783 51.09,26.134c6.211,2.116 13.483,3.003 20,3.745c2.975,0.339 8.158,0.129 10.627,1.977c4.28,3.203 -2.789,10.375 -5.627,11.973c-1.743,8.026 -7.922,12.641 -12.409,19.09c-4.664,6.702 -8.255,14.734 -13.969,20.647c-4.336,4.486 -10.31,6.919 -15.158,10.661c-4.707,3.633 -8.578,8.089 -13.464,11.602c6.312,0.39 13.258,-5.997 18,-9.651c14.703,-11.329 27.023,-25.545 38.127,-40.349c3.573,-4.765 8.1,-14.515 13.742,-16.94c3.216,-1.382 5.663,2.956 7.42,4.941c4.12,4.652 9.118,9.772 15.711,8.999c-7.212,-4.594 -9.975,-8.166 -10,-17c2.118,2.043 4.371,5.069 3,8l3,2c-0.685,1.248 -0.749,1.549 -1,3c3.575,-0.146 5.995,-0.118 8,3c4.514,-0.735 6.914,-2.186 6,-7c3.205,0.307 5.108,0.75 7,-2l-8,-1c2.078,-4.473 3.971,-6.101 9,-6c-3.405,-3.836 -8.806,0.691 -13,-2c2.324,-0.028 2.597,-0.156 4,-2l-3,0c0.575,-2.396 0.475,-2.487 -2,-3l1,3l-1,1c-2.165,-0.145 -2.183,-0.157 -4,1c-0.196,-2.223 0.365,-3.024 1,-5l-4,1c1.955,-2.117 4.367,-3.649 6,-6c-2.33,0.315 -3.918,0.902 -6,2l1,-4c-3.39,0.253 -6.663,0.278 -10,1c0.673,-3.449 0.265,-6.522 0,-10c-1.73,0.881 -1.889,1.258 -3,3c-1.272,-5.329 -1.121,-10.559 -1,-16c-2.9,4.841 -2.76,12.407 -3,18l-3,-13c1.479,0.986 1.203,1 3,1l-2,-7c-1.815,1.815 -1.398,5.331 -3,8l-1,-1l3,6c-3.397,-2.593 -6.311,-5.89 -10,-8l0,3c-1.656,-1.686 -2.251,-2.746 -3,-5c-1.312,2.501 -1.455,4.224 -1,7c-2.677,-2.011 -11.014,-8.955 -12,-4c-1.715,-1.55 -2.823,-2.244 -5,-3c0,1.797 0.014,1.522 1,3c-2.726,-0.717 -4.62,-0.057 -5,-3c-0.683,1.506 -0.826,2.315 -1,4c-2.461,-3.63 -6.683,-4.984 -9.106,-8.39c-2.196,-3.084 -3.381,-8.071 -4.894,-11.61c-0.622,1.943 -0.436,2.949 0,5c-2.841,-1.339 -4.377,-2.308 -6,-5l2,1l0,-9c-0.911,1.377 -1.404,2.44 -2,4c-1.338,-2.66 -2.379,-5.091 -3,-8c-2.876,4.203 -4.037,11.041 -3,16c-2.471,-2.16 -3.787,-3.951 -5,-7c-4.115,0.895 -7.845,0.178 -12,0c2.281,-1.367 4.558,-3.389 7.09,-4.241c2.973,-1.001 5.929,-0.558 8.91,-1.759c-1.498,-0.479 -1.35,-0.4 -3,0l-1,-5l4,0c-2.826,-5.048 -6.112,-6.592 -5,-13c-5.625,-0.377 -11.489,-2.513 -17,-1l0,-3c-2.614,1.684 -3.365,2.956 -4,6c-0.39,-2.221 -0.335,-3.754 0,-6c-2.288,0.29 -3.478,0.333 -5,2c-4.417,-1.172 -8.583,-1.283 -11,3c-2.15,-2.248 -3.105,-3.322 -6,-2l-1,-4c-2.566,0.387 -3.831,1.479 -5,-1c-2.183,1.637 -2.448,0.238 -3,3l-1,-4c-2.692,0.751 -3.083,1.232 -3,4l-3,-3l-3,3l0,-4c-2.719,1.573 -3.373,2.925 -4,6c-4.729,-2.607 -3.999,-7.116 -4,-12c-1.213,2.89 -0.998,5.874 -1,9c-2.637,0.853 -4.57,2.653 -7,4l0,-8c3.864,-0.3 5.348,-1.089 6,-5c-0.911,1.377 -1.404,2.44 -2,4c-0.79,-2.195 -1.009,-3.659 -1,-6l-5,3l-1,-1l2,-3c-2.638,-2.994 3.177,-2.308 5,-2c-2.409,-4.373 -3.556,-7.991 -3,-13c-1.875,0.547 -3.255,1.11 -5,2c2.864,-2.687 6.864,-2.692 9,-6c6.703,-0.39 8.703,-6.856 16,-3l-6,2c-0.38,4.821 -0.322,10.295 -1.299,15c-1.122,5.41 -2.755,8.301 -1.701,14c1.819,-1.364 1.031,-1.492 3,-1l2,-4c-2.457,-1.125 -2.457,-1.875 0,-3c-0.65,-1.3 -0.147,-1 -2,-1c3.122,-1.222 4.732,-1.827 6,-5c2.726,1.363 1.646,0 4,0c0.895,0 0.386,2.072 1,-1l3,1c0.202,-1.85 0.202,-3.15 0,-5c3.416,-0.137 6.61,-0.54 10,0c1.277,-1.915 1.277,-1.085 0,-3c3.078,0.064 5.975,0.438 9,1c0,-1.797 -0.014,-1.521 -1,-3c1.383,1.615 2.115,3.038 3,5c2.768,-0.899 5.415,-1.645 8,-3l1,5c1.639,-1.869 2.536,-3.306 5,-3c0.683,-1.506 0.826,-2.315 1,-4c1.186,1.036 1.604,1.339 3,2c0.986,-1.478 1,-1.203 1,-3l3,1c1.395,-2.038 2.349,-3.627 3,-6c1.023,1.534 0.805,1.402 2,2c2.15,-1.549 4.11,-3.143 6,-5l1,2l3,-2c-0.986,1.479 -1,1.203 -1,3l3,-1c-0.934,1.723 -1.535,3.106 -2,5c2.541,-1.614 3.8,-3.239 5,-6c-2.123,0.073 -2.25,0.087 -2,-2l-3,-1c1.916,-0.919 1.791,-1.369 3,0c2.324,-1.481 3.581,-2.647 5,-5c1.635,0.545 1.455,0.365 2,2c1.96,-5.747 0.801,-12.198 8,-14l0,4c2.132,-0.777 2.771,-1.13 4,-3c0.281,3.441 -0.755,5.83 -2,9c2.423,0.181 2.758,0.056 5,-1c-1.218,2.118 -1.867,2.845 -4,4c0.281,2.673 2.748,12.88 4,10c2.017,1.253 2.623,1.311 5,1c0.99,1.822 1.867,1.716 4,2l-3,-10c1.674,1.411 2.969,2.175 5,3c-0.994,-2.203 -0.67,-2.048 -3,-2c1.212,-2.155 5.467,-8.375 2,-9c0.599,-3.617 0.249,-5.194 -3,-7l1,5c-1.319,-2.234 -1.598,-4 -4,-4c1.579,-6.53 2.962,-11.862 11,-11c-3.422,2.149 -5.406,4.276 -7,8c1.635,0.545 1.455,0.365 2,2l5,-3l-2,-3l3,1c2.131,-2.356 3.986,-3.027 7,-4l0,7c0.985,-2.332 0.981,-4.457 1,-7l1,2c0.999,-1.859 3.186,-12.196 6,-10c1.622,-1.077 2.498,-2.13 4,-1c1.594,-1.883 2.648,-3.266 5,-4c-0.438,-3.392 -1.143,-6.688 -2,-10c2.132,-0.777 2.771,-1.13 4,-3c-2.67,0.534 -2.443,-0.785 -3,2c-1.753,-1.33 -2.67,-2.247 -4,-4l-4,2c1.043,-2.095 1.603,-3.699 2,-6c-1.366,1.631 -2.142,3.038 -3,5l-4,-1c4.487,-2.75 8.741,-5.916 13,-9c0.176,1.878 0.438,3.199 1,5c-1.635,-0.545 -1.455,-0.365 -2,-2c-0.406,1.659 -0.309,2.242 0,4l2,0c0.642,-2.356 0.8,-4.566 1,-7l1,4c1.797,0 1.521,-0.014 3,-1l0,3l2,0l0,-4c1.222,2.301 2.159,4.533 3,7c-4.367,2.351 -5.043,6.38 -6,11l4,1c0.674,-2.297 0.965,-2.774 3,-4c-0.562,1.801 -0.824,3.122 -1,5c1.401,-2.214 2.181,-4.504 3,-7c1.023,1.534 0.805,1.402 2,2c1.186,-1.186 1.528,-1.584 2,-3c-1.245,-1.198 -1.074,-1.134 -1,-3c-1.195,1.223 -1.316,1.42 -2,3c0.069,-4.471 2.966,-8.555 4,-13c-2.34,1.749 -4.442,3.585 -7,5c0.545,-1.635 0.365,-1.455 2,-2c-0.638,-5.266 2.665,-7.3 4,-12l1,4c2.872,-1.809 3.553,-3.67 4,-7c5.468,-1.116 2.519,-6.264 1,-10c3.403,-0.729 2.987,-2.806 3,-6c2.403,-0.168 3.46,-0.197 5,-2l4,2l1,-3l6,3c3.584,-1.291 5.565,0.313 6,4c2.593,0.508 4.408,0.508 7,0c-0.986,1.478 -1,1.203 -1,3l4,-3l-1,-5c3.449,0.673 6.522,0.265 10,0c0.441,3.852 1.436,5.427 5,7c-0.902,-1.923 -1.076,-1.999 -3,-3c3.832,-0.361 6.511,1.259 10.17,1.568c4.115,0.347 8.702,0.365 12.83,0.432c1.034,3.68 1.833,7.173 2,11c-2.297,-0.674 -2.774,-0.965 -4,-3c-0.683,1.506 -0.826,2.315 -1,4c-0.986,-1.479 -1,-1.203 -1,-3l-4,1l0,5c6.454,1.79 7.56,-0.632 13.028,-3.5c2.885,-1.514 5.244,-1.103 5.972,-4.5l4,1l-2,1c3.586,2.147 7.545,2.783 10,-1c3.151,1.068 4.869,1.127 8,0l1,5c2.333,-0.145 4.684,-1 6,1c1.195,-0.598 0.977,-0.466 2,-2c1.735,1.05 1.932,1.046 4,1c1.545,2.369 2.214,2.458 5,2l-3,3l0,2c1.944,0.402 2.056,0.402 4,0l0,3c3.109,-0.848 5.242,-1.251 7,-4c-1.58,-0.684 -1.777,-0.805 -3,-2l-3,1c0.965,-6.535 -7.645,-11.555 -10.726,-17c-8.946,-15.808 -14.801,-32.829 -23.274,-49c-0.685,1.248 -0.749,1.548 -1,3l-3,-5c-0.745,2.882 0.196,5.954 0,9c-3.37,-5.339 -4.893,-11.702 -8.34,-16.911c-3.768,-5.691 -8.847,-9.653 -11.66,-16.089l5,4c-1.181,-3.755 -3.39,-4.724 -7,-6c1.278,7.425 6.878,13.646 7.772,21c0.861,7.084 -4.539,8.22 -7.262,13.299c-1.561,2.911 -1.236,6.578 -2.12,9.7c-1.679,5.933 -6.484,9.838 -12.39,11.001c1.478,-0.986 1.203,-1 3,-1l-11,-3l2,7l-3,-1c0.154,-4.108 -1.691,-6.675 -4,-10c-1.84,1.717 -2.349,2.566 -3,5l3,-1c0.326,2.573 1.567,2.928 4,4l-8,-1c-1.101,-1.681 -2.329,-3.242 -4.601,-1.915c-2.58,1.507 -3.09,5.095 -5.624,6.825c-5.756,3.932 -19.127,2.922 -25.775,1.876c-10.4,-1.636 -16.932,-13.103 -25,-18.786l1,3c-1.862,-1.945 -3.468,-3.794 -5,-6l2,1c-9.434,-13.393 -24.744,-23.554 -37,-34.285c-10.046,-8.796 -19.935,-19.707 -32,-25.715m-2,1l1,1l-1,-1m-83,2l-4,2c2.14,0.41 2.962,-0.032 5,-1l-1,-1m75,2.333c0.773,0 0.16,0.498 -0.333,0.334l0.333,-0.334m8,0.667l1,1l-1,-1m-89.333,1.333c-0.445,0.445 0.611,0.389 0.666,0.334c0.445,-0.445 -0.611,-0.389 -0.666,-0.334m84.333,1c0.773,0 0.16,0.498 -0.333,0.334l0.333,-0.334m9,1c0.773,0 0.16,0.498 -0.333,0.334l0.333,-0.334m2,2.667l0,2c-1.635,-0.545 -1.455,-0.365 -2,-2l2,0m13,2c1.186,1.186 1.528,1.584 2,3c-1.548,-1.262 -1.808,-1.194 -2,-3m-19,5l-1,1l1,-1m3,6.333c0.773,0 0.16,0.498 -0.333,0.334l0.333,-0.334m3,1.667c1.109,2.077 1.642,3.677 2,6c-2.302,-1.967 -3.756,-3.276 -2,-6m-7.333,1.667c0.055,0.055 0.111,1.111 -0.334,0.666c-0.055,-0.055 -0.111,-1.111 0.334,-0.666m17.333,1.333l0,2c-1.635,-0.545 -1.455,-0.365 -2,-2l2,0m-13,1l-1,1l1,-1m16,2l-1,2c-1.635,-0.545 -1.455,-0.365 -2,-2l3,0m161,1c1.163,2.217 2.086,3.394 4,5c-1.104,-2.357 -1.956,-3.376 -4,-5m-178,1l-1,1l1,-1m172,0l3,6c-2.64,-1.536 -3.818,-2.939 -3,-6m-140,6l0,2c-1.635,-0.545 -1.455,-0.365 -2,-2l2,0m-10,1.333c0.773,0 0.16,0.498 -0.333,0.334l0.333,-0.334m7,-0.333l-1,1l1,-1m-4,2c1.573,1.949 2.291,3.588 3,6c-2.015,-1.908 -3.25,-3.208 -3,-6m6,0l1,3c-1.766,-0.979 -1.955,-1.222 -1,-3m-30,1l1,2c-1.263,-0.971 -1.392,-0.694 -1,-2m177,0l1,2l-2,0c0,-1.853 -0.3,-1.35 1,-2m-168.333,4.667c0.055,0.055 0.111,1.111 -0.334,0.666c-0.055,-0.055 -0.111,-1.111 0.334,-0.666m47.333,-0.667c1.457,1.103 1.896,1.543 3,3l-4,-2l1,-1m120,1l-1,4c1.851,1.366 2.779,3.028 4,5c-1.47,1.916 -1.919,3.549 -4,5c-0.017,-1.966 -0.069,-2.299 -1,-4l2,-5c-2.076,1.402 -2.541,1.482 -5,1c1.248,-0.685 1.548,-0.749 3,-1l0,-5l2,0m-134,2c-0.545,1.635 -0.365,1.455 -2,2l0,-2l2,0m124,2l0,3c-1.195,-1.223 -1.316,-1.42 -2,-3l2,0m-160.333,2.667c0.055,0.055 0.111,1.111 -0.334,0.666c-0.055,-0.055 -0.111,-1.111 0.334,-0.666m21.333,-0.667l3,3c-2.283,0.098 -3.098,-0.717 -3,-3m4,0l-1,1l1,-1m13,0l-1,1l1,-1m14,0.333c0.773,0 0.16,0.498 -0.333,0.334l0.333,-0.334m-42,0.667l-1,1l1,-1m49,0l1,2c-1.263,-0.971 -1.392,-0.694 -1,-2m104,0l1,5c-1.475,-1.935 -1.791,-2.693 -1,-5m-136.333,1.667c0.055,0.055 0.111,1.111 -0.334,0.666c-0.055,-0.055 -0.111,-1.111 0.334,-0.666m12.333,-0.334c0.773,0 0.16,0.498 -0.333,0.334l0.333,-0.334m5,0.667c0.986,1.478 1,1.203 1,3c-1.289,-1.443 -1.401,-1.234 -1,-3m-15,1l-1,1l1,-1m154,0l-1,1l1,-1m-165,1l-1,1l1,-1m5,0l0,2c-1.635,-0.545 -1.455,-0.365 -2,-2l2,0m3,0l-1,1l1,-1m6,0l-1,1l1,-1m10,0l-1,1l1,-1m-5,1l1,3c-1.766,-0.979 -1.955,-1.222 -1,-3m122,0c1.608,1.45 2.064,2.051 3,4c-2.025,-1.197 -3.101,-1.652 -3,-4m-111,1l-1,1l1,-1m118.667,0.667c0.055,0.055 0.111,1.111 -0.334,0.666c-0.055,-0.055 -0.111,-1.111 0.334,-0.666m-157.667,0.333l-1,1l1,-1m19,0l-1,1l1,-1m-7,1l1,3c-1.766,-0.979 -1.955,-1.222 -1,-3m12,0l-1,1l1,-1m13,0l4,7c-1.416,-0.472 -1.814,-0.814 -3,-2l2,4c-2.672,-1.688 -4.95,-3.176 -8,-4c2.464,-1.666 3.318,-1.298 6,0c-0.641,-1.841 -1.082,-3.103 -1,-5m20,0c5.212,5.211 12.272,10.017 15,17l-5,0c0.682,-7.816 -8.341,-10.153 -10,-17m-55,1c3.586,1.806 6.071,4.479 8,8c-3.421,-1.796 -5.936,-4.675 -9,-7l1,-1m7,0l1,2c-1.263,-0.971 -1.392,-0.694 -1,-2m11,2l1,2l-2,0c0,-1.853 -0.3,-1.35 1,-2m144,0l0,3l-3,0l0,-3l3,0m-45,1l-1,1l1,-1m-75,1l-1,1l1,-1m135,0l-1,1l1,-1m-34,1l0,2l-2,0c0.545,-1.635 0.365,-1.455 2,-2m-130,1l-1,1l1,-1m11,0l-1,1l1,-1m87,0l-1,1l1,-1m57,5c-3.382,0.113 -5.359,-2.173 -7,-5c3.088,0.952 4.646,2.847 7,5m-185,-4c3.282,2.298 5.922,5.525 10,6l0,2c-4.313,-0.986 -8.897,-3.504 -10,-8m43,1c1.639,1.981 2.85,3.711 4,6c-2.653,-1.465 -4.265,-2.872 -4,-6m117,0l4,1c-1.846,0.467 -3.068,0.301 -5,0l1,-1m-174,1.333c0.773,0 0.16,0.498 -0.333,0.334l0.333,-0.334m27,-0.333l-1,1l1,-1m114,0c-0.062,1.737 -0.02,1.64 1,3l-3,1c0.511,-1.952 0.733,-2.457 2,-4m18,0l-1,1l1,-1m23,0.333c0.773,0 0.16,0.498 -0.333,0.334l0.333,-0.334m-151,0.667c-1.223,1.195 -1.42,1.316 -3,2c1.139,-1.015 1.612,-1.309 3,-2m138,0c2.938,1.561 5.653,2.845 9,3c-0.753,3.495 -2.345,2.664 -5,1c-2.274,1.973 -5.211,0.715 -8,0c1.769,-0.779 3.036,-0.912 5,-1c-1.37,-1.557 -1.67,-1.345 -1,-3m16,0c2.836,0.979 4.866,1.156 6,4c-2.647,-0.549 -6.125,-0.857 -6,-4m-180,1l-1,1l1,-1m147,1c-2.613,1.098 -5.164,0.993 -8,1c2.818,-1.68 4.842,-1.793 8,-1m14,-0.667c0.773,0 0.16,0.498 -0.333,0.334l0.333,-0.334m16,-0.333l0,2c-1.635,-0.545 -1.455,-0.365 -2,-2l2,0m24,0c1.797,0 1.521,0.014 3,1c-1.51,0.25 -2.435,0.18 -4,0l1,-1m-197,2c2.411,1.604 4.822,3.101 7,5l-1,1c-2.524,-1.66 -5.22,-3.024 -6,-6m23,0.333c0.773,0 0.16,0.498 -0.333,0.334l0.333,-0.334m175,-0.333l-1,1l1,-1m-201,1.333c0.773,0 0.16,0.498 -0.333,0.334l0.333,-0.334m194,-0.333c-1.506,0.683 -2.315,0.826 -4,1c1.506,-0.683 2.315,-0.826 4,-1m-186,9l-4,0c1.036,1.186 1.339,1.604 2,3c-2.865,-1.42 -5.391,-3.146 -8,-5c2.309,-0.165 3.047,0.569 5,2c-2.956,-3.828 -6.227,-6.077 -11,-7c5.376,-2.078 13.29,2.268 16,7m129,-8c-1.248,0.685 -1.548,0.749 -3,1c1.248,-0.685 1.548,-0.749 3,-1m48,0c-2.052,0.874 -3.747,0.953 -6,1c2.052,-0.874 3.747,-0.953 6,-1m12.667,0.667c0.055,0.055 0.111,1.111 -0.334,0.666c-0.055,-0.055 -0.111,-1.111 0.334,-0.666m-34.667,1.333c-2.163,0.676 -3.732,0.387 -6,0c2.239,-0.811 3.647,-0.529 6,0m4,0c1.479,0.986 1.203,1 3,1c-1.809,0.574 -2.069,0.465 -4,0l1,-1m41,0l-1,1l1,-1m-212,1c-1.248,0.685 -1.548,0.749 -3,1c1.248,-0.685 1.548,-0.749 3,-1m206,0.333c0.773,0 0.16,0.498 -0.333,0.334l0.333,-0.334m-11,1c0.773,0 0.16,0.498 -0.333,0.334l0.333,-0.334m-9,1c0.773,0 0.16,0.498 -0.333,0.334l0.333,-0.334m4,-0.333l-1,1l1,-1m-170,1c-1.001,1.924 -1.077,2.098 -3,3c0,-1.797 0.014,-1.521 1,-3l2,0m144,1l0,4l-4,0l2,-4l2,0m58,2c3.786,9.216 12.288,23.333 23,25c-0.026,-3.122 -0.276,-5.96 -1,-9c3.026,1.08 5.798,1.939 9,2c2.12,5.074 5.819,5.773 11,6c-4.823,-4.529 -11.289,-7.154 -17,-10.421c-8.13,-4.652 -16.175,-10.368 -25,-13.579m-218,1l0,2l-2,0l0,-2l2,0m178,2c-1.769,0.779 -3.036,0.912 -5,1c1.928,-1.091 2.77,-1.165 5,-1m-183,0l5,2c-2.37,0.589 -3.707,-0.045 -6,-1l1,-1m108,0l1,4c-1.146,-1.64 -1.393,-2.076 -1,-4m26,1l0,4c1.797,0 1.521,-0.014 3,-1c-0.973,-1.27 -1.73,-2.027 -3,-3m-10,1c-0.243,2.786 -0.052,4.413 1,7c1.689,-2.852 1.08,-4.505 -1,-7m26,1c2.539,1.304 4.241,0.731 7,0c-2.523,-0.99 -4.358,-0.617 -7,0m-159.333,0.667c0.055,0.055 0.111,1.111 -0.334,0.666c-0.055,-0.055 -0.111,-1.111 0.334,-0.666m187.333,-0.667c-3.126,4.883 -6.661,4.011 -12,4c4.676,1.98 10.031,1.351 15,1l-3,-5m-185,2.333c0.773,0 0.16,0.498 -0.333,0.334l0.333,-0.334m112,-0.333c1.331,2.494 1.003,3.013 -1,5c0.088,-1.964 0.221,-3.231 1,-5m6,0l0,4c-1.819,-1.364 -1.031,-1.492 -3,-1c0,-1.797 0.014,-1.521 1,-3l2,0m29.333,1.667c-0.055,0.055 -0.111,1.111 0.334,0.666c0.055,-0.055 0.111,-1.111 -0.334,-0.666m-150.333,1.333l-1,1l1,-1m63,0.333c0.773,0 0.16,0.498 -0.333,0.334l0.333,-0.334m-51,1c0.773,0 0.16,0.498 -0.333,0.334l0.333,-0.334m-11,2.667c-1.58,-0.684 -1.777,-0.805 -3,-2c2.092,0.406 2.02,0.217 3,2m4,-1.667c0.773,0 0.16,0.498 -0.333,0.334l0.333,-0.334m147,-0.333c-0.306,4.133 -2.522,9.45 -5.559,12.417c-2.428,2.372 -4.722,2.006 -5.441,5.583c-2.597,1.33 -3.591,2.436 -5,5c3.202,-2.046 7.991,-9.734 12,-7c2.209,-1.38 4.471,-0.457 4,-3c1.723,0.934 3.106,1.535 5,2c-0.598,-1.195 -0.466,-0.977 -2,-2l7,-1l-2,-5l-7,5l-1,-6l3,1c-0.585,-2.717 -1.382,-4.739 -3,-7m6,0l-1,4c1.146,-1.64 1.393,-2.076 1,-4m-16.333,1.333c-0.445,0.445 0.611,0.389 0.666,0.334c0.445,-0.445 -0.611,-0.389 -0.666,-0.334m57.333,0l0.333,0.334c-0.493,0.164 -1.106,-0.334 -0.333,-0.334m-63,0.667l1,6c1.397,-2.628 1.415,-4.181 -1,-6m-131,1l7,4c-3.223,0.648 -5.342,-1.264 -8,-3l1,-1m163,0c-1.965,2.052 -2.574,3.194 -3,6c3.109,-1.248 4.262,-2.741 3,-6m-172,2l4,2c-2.025,0.207 -3.067,-0.207 -5,-1l1,-1m262,0l0,7c2.42,-1.382 3.061,-2.363 4,-5l-4,-2m-53,3l1,3c0.685,-1.248 0.749,-1.548 1,-3l-2,0m-203,1l-1,1l1,-1m12,0.333c0.773,0 0.16,0.498 -0.333,0.334l0.333,-0.334m138,-0.333c-1.248,0.685 -1.548,0.749 -3,1c1.248,-0.685 1.548,-0.749 3,-1m33.333,0.667c-0.055,0.055 -0.111,1.111 0.334,0.666c0.055,-0.055 0.111,-1.111 -0.334,-0.666m-16.333,0.333l0,5c0.83,-2.03 0.83,-2.97 0,-5m75,1c-1.223,1.195 -1.42,1.316 -3,2c1.139,-1.015 1.612,-1.309 3,-2m18.333,0.667c-0.055,0.055 -0.111,1.111 0.334,0.666c0.055,-0.055 0.111,-1.111 -0.334,-0.666m-153.333,0.333c-0.168,2.403 -0.197,3.46 -2,5c0.48,-1.96 0.938,-3.307 2,-5m27,7c1.176,-2.423 1.947,-4.172 4,-6c-4.575,-1.24 -5.374,2.376 -4,6m39,-7c-0.454,1.947 -0.994,3.269 -2,5c1.944,0.402 2.056,0.402 4,0c-0.551,-1.825 -1.076,-3.352 -2,-5m102,0c0.836,6.183 3.233,12.484 10,13c-1.693,-1.062 -3.04,-1.52 -5,-2c6.001,-1.45 7.902,2.58 12.05,6.196c7.754,6.76 19.916,21.444 30.95,16.804c-8.822,-8.45 -20.205,-15.027 -30,-22.373c-5.538,-4.154 -11.213,-9.863 -18,-11.627m-289,1l-1,1l1,-1m106,0.333c0.773,0 0.16,0.498 -0.333,0.334l0.333,-0.334m154,-0.333l-1,1l1,-1m-263.333,1.667c0.055,0.055 0.111,1.111 -0.334,0.666c-0.055,-0.055 -0.111,-1.111 0.334,-0.666m127.333,-0.667l0,2l-2,0l0,-2l2,0m104,1l3,4l3,-5l-6,1m-224,0l3,1c-1.809,0.574 -2.069,0.465 -4,0l1,-1m-207,2c3.699,1.552 8.017,1 12,1l20,0c-5.995,-2.691 -11.739,-1.283 -18,-1.129c-4.928,0.122 -9.065,-1.043 -14,0.129m341,-1c-1.027,2.398 -1.678,4.416 -2,7l3,0c0.829,-2.168 1.773,-4.03 3,-6l-4,-1m33,2c1.58,-0.684 1.777,-0.805 3,-2c-1.58,0.684 -1.777,0.805 -3,2m22,4c-1.783,0.98 -1.594,0.908 -2,3c-1.023,-1.534 -0.805,-1.402 -2,-2l-1,3l-2,-1c-0.545,1.635 -0.365,1.455 -2,2c-0.611,4.896 -5.525,7.047 -6,12c0.911,-1.377 1.404,-2.44 2,-4l2,4c-2.132,0.776 -2.771,1.13 -4,3c1.756,-0.449 2.393,-0.655 4,0c2.839,-2.612 5.311,-2.445 9,-2c2.701,-2.401 4.458,-2.339 8,-2l0,-4c0.986,1.479 1,1.203 1,3l5,-3c0,1.797 0.014,1.521 1,3l5,-1l-2,1l3,3l3,-1l-3,4l2,3l3,-1c-0.924,2.349 -1.559,4.515 -2,7c-1.012,-2.373 -1.622,-4.449 -2,-7c-1.797,0 -1.521,0.014 -3,1l3,5c-3.388,-0.272 -5.03,0.194 -7,3c-2.421,0.242 -3.808,0.849 -6,2l3,6c-3.022,0.082 -6.079,1.11 -9,2c2.18,1.187 3.514,1.234 6,1c-1.384,2.71 -1.738,4.997 -2,8l-2,-1c-0.501,3.201 0.395,6.78 1,10c2.121,0.228 1.89,0.15 3,2c-1.672,-0.338 -1.31,-0.537 -2,1c-1.186,-1.036 -1.604,-1.339 -3,-2l0,4c1.617,1.299 2.672,2.39 4,4c-1.85,0.202 -3.15,0.202 -5,0c0.312,2.643 2.445,6.391 0,8c2.685,6.828 2.127,14.397 5.247,20.946c3.995,8.386 17.108,12.976 25.753,14.054c-4.92,-4.082 -10.424,-6.424 -14.147,-12c-11.943,-17.887 -3.943,-44.343 1.147,-63c3.482,2.337 5.777,1.421 8,-2c1.186,1.035 1.604,1.339 3,2l-1,-4l5,0c1.162,5.368 3.807,10.43 8,14l0,-4l3,4c2.952,0.684 3.544,3.43 6,5c-0.569,-4.41 -1.036,-18.787 -8,-15c-2.165,-2.548 -3.988,-4.531 -7,-6l1,-2l-9,-4c1.178,-4.109 0.443,-7.038 -1,-11c1.396,-0.661 1.814,-0.964 3,-2c2.311,2.311 3.268,1.618 5,-1l0,3c1.783,-0.98 1.594,-0.908 2,-3l5,0l1,-4c-1.314,0.768 -1.232,0.686 -2,2c-1.594,-1.296 -2.018,-1.535 -4,-2c0.545,-1.635 0.365,-1.455 2,-2l0,-2c-2.715,-2.061 -4.287,-5.066 -7,-7c0.426,2.469 1.132,4.645 2,7c-2.123,0.307 -2.686,0.382 -4,2l-3,-2l5,-1c-0.98,-1.783 -0.908,-1.594 -3,-2l1,-3c-2.767,-0.51 -5.841,-0.381 -8,-2l-1,3c-2.257,-1.574 -4.958,-1.452 -7,-3c-1.3,0.65 -1,0.147 -1,2l-1,-2c-0.874,2.052 -0.953,3.747 -1,6c-1.713,-1.647 -2.694,-1.631 -3,-4c-1.666,1.255 -3.099,2.159 -5,3c1.313,-5.614 -3.493,-5.593 -3,0m67,-6c-6.596,3.548 -4.984,10.198 1.093,14.142c2.691,1.746 5.819,1.792 8.907,1.858c-3.53,-2.735 -7.743,-4.397 -9.5,-9c-0.947,-2.481 0.401,-5.098 -0.5,-7m7,2c-1.479,-0.986 -1.203,-1 -3,-1c-0.463,2.16 -1.162,4.542 0.194,6.564c1.674,2.497 6.093,2.522 7.734,-0.079c2.011,-3.185 -1.882,-8.537 -4.928,-5.485m9,-2c0.375,5.528 -0.957,11.594 0.429,17c1.31,5.111 4.21,9.754 5.571,15c3.144,0.145 5.913,1.427 9,2c-0.138,-2.842 0.118,-3.879 2,-6c-1.017,-2.481 -1.439,-3.264 -4,-4c6.133,-7.732 -4.711,-14.501 -12,-15l0,-5c2.57,2.632 4.289,4.136 8,4c1.464,1.968 2.606,2.352 5,3c-1.444,-4.167 -4.351,-8.5 -8,-11l1,6l-7,-6m-518,2c6.928,2.907 17.503,1 25,1l0,-2l-25,1m26,-1c1.506,0.683 2.315,0.826 4,1c-1.506,-0.683 -2.315,-0.826 -4,-1m379,2l4,-1c-2.046,-0.751 -2.596,-0.656 -4,1m5,-2l1,1l-1,-1m75,0c0.307,2.123 0.382,2.686 2,4c-0.596,-1.56 -1.089,-2.623 -2,-4m8,0c-0.238,2.095 -0.184,3.889 0,6l-4,-1c2.354,2.56 4.586,3.456 8,4c-1.165,-3.165 -1.915,-6.364 -4,-9m-421,1c3.46,1.663 7.185,1.921 11,2c-3.461,-1.663 -7.185,-1.921 -11,-2m349,0l1,1l-1,-1m17,0l-1,1l1,-1m73,0l1,2c-1.263,-0.971 -1.392,-0.694 -1,-2m-552,15c10.722,-0.876 21.47,-4.164 32,-6.336c19.49,-4.019 38.321,-4.706 58,-2.834c7.688,0.732 15.451,-0.678 23,1.471c17.983,5.119 32.895,21.094 38,38.699c4.42,-11.351 -8.07,-22.989 -15.09,-30c-11.695,-11.68 -29.349,-12.819 -44.91,-13.004c-18.103,-0.215 -35.911,-0.369 -54,0.004l2,-1c-3.514,-1.08 -7.472,0.077 -11,1.014c-8.264,2.196 -23.042,4.417 -28,11.986m439.667,-13.667c-0.445,0.445 0.611,0.389 0.666,0.334c0.445,-0.445 -0.611,-0.389 -0.666,-0.334m110.333,-0.333l-1,1l1,-1m-128,1l-1,1l1,-1m71,0l-1,1l1,-1m27.667,1.333c-0.445,0.445 0.611,0.389 0.666,0.334c0.445,-0.445 -0.611,-0.389 -0.666,-0.334m-228.667,1c0.773,0 0.16,0.498 -0.333,0.334l0.333,-0.334m156,-0.333c1.543,1.267 2.048,1.489 4,2c-1.458,-1.081 -2.248,-1.436 -4,-2m7,0c-0.7,1.958 -0.939,2.949 -1,5l-3,0c0.062,1.739 -0.478,2.375 -1,4c2.221,0.458 2.593,1.113 4,3c2.428,0.183 3.17,0.423 5,2c1.549,-2.13 2.18,-5.573 4,-8c-2.018,-0.34 -2.968,-0.323 -5,0c2.224,-1.569 3.294,-1.484 6,-1l2,-4l-5,-1l-1,3l-2,0l-1,-3l-2,0m24,0l-1,1l1,-1m16,0c-0.426,2.469 -1.132,4.645 -2,7l-2,0l-1,-3c1.598,-1.481 2.108,-2.061 3,-4l2,0m30,0c-0.402,1.943 -0.402,2.057 0,4c1.081,-1.458 1.436,-2.248 2,-4l-2,0m-400,1c9.501,6.018 21.447,11.765 27.363,22.004c2.687,4.651 2.13,9.002 2.907,14.011c1.501,9.667 2.043,19.137 1.521,28.985c-0.251,4.737 -1.92,9.333 -2.232,14c-0.404,6.057 2.658,12.935 3.441,19l4,-2c-6.586,10.02 1.324,22.451 2.791,33c1.277,9.185 3.852,21.853 1.91,31c-1.826,8.6 -7.891,16.016 -12.701,23c5.657,-0.632 8.52,-4.448 13.04,-7.501c2.62,-1.769 6.003,-2.999 8.276,-5.197c3.041,-2.94 4.849,-7.121 7.851,-10.198c4.545,-4.659 9.445,-8.714 13.716,-13.684c3.235,-3.763 10.058,-10.556 10.813,-15.594c1.276,-8.519 -6.955,-11.164 -9.38,-17.845c-2.395,-6.597 -0.015,-14.981 -6.316,-19.981c3.503,-5.027 0.772,-13.027 1.019,-18.999c0.222,-5.342 3.246,-11.695 4.689,-16.962c0.985,-3.595 4.635,-7.05 2.87,-10.936c-3.682,-8.105 -18.29,-10.702 -19.578,-20.103c-15.279,-11.897 -35.954,-25.573 -56,-26m268.333,0.667c-0.055,0.055 -0.111,1.111 0.334,0.666c0.055,-0.055 0.111,-1.111 -0.334,-0.666m22.667,-0.667c-1.002,2.614 -1.322,4.227 -1,7c1.589,-2.535 2.708,-4.405 1,-7m8,0c0.031,1.832 -0.079,1.559 1,3c-0.251,-1.452 -0.315,-1.752 -1,-3m12,3c1.65,-1.238 1.333,-2.667 2,0c0.696,-1.554 0.696,-1.446 0,-3c-1.195,1.223 -1.316,1.42 -2,3m45,-2.667c0.773,0 0.16,0.498 -0.333,0.334l0.333,-0.334m11,-0.333l-1,1l1,-1m25,0c1.506,0.683 2.315,0.826 4,1c-1.506,-0.683 -2.315,-0.826 -4,-1m-137,1c1.947,0.714 2.934,0.919 5,1l-4,4c-1.133,-1.899 -1.473,-2.857 -1,-5m47,0l1,6c1.306,-2.533 0.728,-3.75 -1,-6m30,0c0.416,3.083 1.158,6.006 2,9c-1.783,-0.98 -1.594,-0.908 -2,-3c-1.479,0.986 -1.203,1 -3,1c0.48,-2.972 0.974,-4.778 3,-7m-83,1c0.406,1.659 0.309,2.242 0,4c-1.853,0 -1.35,0.3 -2,-1l2,5c-2.167,-0.277 -3.009,-0.11 -4,-2c-1.801,0.562 -3.122,0.824 -5,1l0,-4c3.063,-0.348 5.915,-1.101 9,-1c-1.15,-1.725 -1.554,-1.223 0,-2m33,0c-0.077,2.645 0.003,4.266 -2,6c0.561,-2.102 1.049,-4.059 2,-6m26,0l1,1l-1,-1m13.667,0.333c-0.445,0.445 0.611,0.389 0.666,0.334c0.445,-0.445 -0.611,-0.389 -0.666,-0.334m28.333,-0.333l1,4l-2,-1c1.902,1.156 2.722,1.156 5,1l-2,5c-0.685,-1.248 -0.749,-1.548 -1,-3c-3.058,2.189 -5.316,2.69 -9,3l2,-5l4,1l-2,-3l1,-1c1.3,0.65 1,0.147 1,2l2,-3m4,0.333c0.773,0 0.16,0.498 -0.333,0.334l0.333,-0.334m-200,0.667l0,2l-2,0l0,-2l2,0m8,0l-1,1l1,-1m91,0c0.986,1.479 1,1.203 1,3c-1.082,-1.384 -1.191,-1.338 -1,-3m105,0l0,2l-2,0l0,-2l2,0m44,0c1.248,0.685 1.549,0.749 3,1c-1.248,-0.685 -1.548,-0.749 -3,-1m49,1l4,3c2.118,-0.838 3.714,-1.008 6,-1c-3.174,-2.261 -6.212,-2.81 -10,-2m-287,0l-1,1l1,-1m134,0l-1,4c1.608,-1.45 2.064,-2.051 3,-4l-2,0m23,1c1.067,0.599 1.742,0.753 3,1c-1.441,-1.079 -1.168,-0.969 -3,-1m9,-1l1,1l-1,-1m-79,1l-1,1l1,-1m43.333,0.667c-0.055,0.055 -0.111,1.111 0.334,0.666c0.055,-0.055 0.111,-1.111 -0.334,-0.666m19.667,1.333c2.092,-0.406 2.02,-0.217 3,-2c-1.58,0.684 -1.777,0.805 -3,2m48,-2l0,3c-0.696,-1.554 -0.696,-1.446 0,-3m-212,1l-1,1l1,-1m89,0c-0.545,1.635 -0.365,1.455 -2,2l0,-2l2,0m62,0l1,1l-1,-1m10,0l1,1l-1,-1m47,1l-1,1l1,-1m10,0c-1.248,0.685 -1.548,0.749 -3,1c1.248,-0.685 1.549,-0.749 3,-1m-333,1l1,1l-1,-1m123,0.333c0.773,0 0.16,0.498 -0.333,0.334l0.333,-0.334m154,-0.333c-0.928,2.646 -1.523,4.241 -1,7c1.421,-2.249 2.382,-4.414 3,-7l-2,0m4,0l1,1l-1,-1m-165,1l1,2c-1.263,-0.971 -1.392,-0.694 -1,-2m127.667,0.667c0.055,0.055 0.111,1.111 -0.334,0.666c-0.055,-0.055 -0.111,-1.111 0.334,-0.666m27.333,-0.667c-0.81,2.729 -0.979,5.15 -1,8c1.737,-0.062 1.64,-0.02 3,1c0.507,-3.399 0.192,-6.29 -2,-9m12,0c-1.694,2.542 -0.929,2.518 -3,2c1.001,1.924 1.078,2.098 3,3c0.511,-1.952 0.733,-2.457 2,-4c-0.65,-1.3 -0.147,-1 -2,-1m60,0l0,2l-2,0l0,-2l2,0m-236,1.333l0.333,0.334c-0.493,0.164 -1.106,-0.334 -0.333,-0.334m156.333,0.334c-0.055,0.055 -0.111,1.111 0.334,0.666c0.055,-0.055 0.111,-1.111 -0.334,-0.666m8.334,0c0.055,0.055 0.111,1.111 -0.334,0.666c-0.055,-0.055 -0.111,-1.111 0.334,-0.666m-72.667,0.333c-0.684,1.58 -0.805,1.777 -2,3c0.684,-1.58 0.805,-1.777 2,-3m7,0c-0.062,1.737 -0.02,1.64 1,3c-1.684,0.224 -2.313,0.218 -4,0c1.103,-1.457 1.543,-1.897 3,-3m25,0l-1,1l1,-1m19,3c1.923,-0.902 1.999,-1.076 3,-3c-1.922,0.902 -1.999,1.076 -3,3m39,-3c0.545,1.635 0.365,1.455 2,2l0,-2l-2,0m-178,1c1.036,1.186 1.339,1.604 2,3c-1.849,-0.967 -2.722,-1.14 -2,-3m181,0l1,1l-1,-1m27.667,0.667c0.055,0.055 0.111,1.111 -0.334,0.666c-0.055,-0.055 -0.111,-1.111 0.334,-0.666m-198.667,0.666c0.773,0 0.16,0.498 -0.333,0.334l0.333,-0.334m187,-0.333l-1,1l1,-1m-156,1l-1,1l1,-1m49,0l-1,1l1,-1m29,0.333c0.773,0 0.16,0.498 -0.333,0.334l0.333,-0.334m37,-0.333c-0.957,1.517 -1.387,2.339 -2,4c2.003,-1.247 2.823,-1.737 2,-4m19.333,0.667c-0.055,0.055 -0.111,1.111 0.334,0.666c0.055,-0.055 0.111,-1.111 -0.334,-0.666m58.667,-0.667l0,2l3,0l0,-2l-3,0m-181.333,1.667c0.055,0.055 0.111,1.111 -0.334,0.666c-0.055,-0.055 -0.111,-1.111 0.334,-0.666m61.333,-0.667l0,2l-2,0l0,-2l2,0m48,0l-1,1l1,-1m6,0c0,1.797 0.014,1.521 1,3l3,-2c-1.37,-0.582 -2.507,-0.797 -4,-1m15,0l1,1l-1,-1m-10,1c-0.664,2.89 -1.31,4.953 1,7l0,-3l4,2l-1,-5c-1.714,-0.126 -2.433,-0.302 -4,-1m5,0l1,1l-1,-1m106,1c0.211,2.739 0.303,3.422 3,4c-0.246,2.121 -0.231,3.874 0,6c2.979,-0.596 1.733,-1.567 4,-1c-0.283,-3.458 -1.062,-6.664 -2,-10l-5,1m-195,0l-1,5c-0.651,-2.234 -0.318,-3.074 1,-5m-183,1c1.904,1.884 3.534,2.953 6,4c-1.904,-1.884 -3.534,-2.953 -6,-4m219.667,0.333c-0.445,0.445 0.611,0.389 0.666,0.334c0.445,-0.445 -0.611,-0.389 -0.666,-0.334m40.333,-0.333l0,4c-2.33,-0.048 -2.006,-0.203 -3,2c3.231,-1.077 4.229,-2.443 6,-2c-0.936,-1.949 -1.392,-2.55 -3,-4m15,0c1.458,1.081 2.248,1.436 4,2c-1.543,-1.267 -2.048,-1.489 -4,-2m7,0l1,1l-1,-1m45,0l-2,6c-1.374,-2.872 -0.317,-3.983 2,-6m-238,3l-3,-1c1.778,-0.955 2.021,-0.766 3,1m232.667,-1.333c0.055,0.055 0.111,1.111 -0.334,0.666c-0.055,-0.055 -0.111,-1.111 0.334,-0.666m-91,1.666c-0.445,0.445 0.611,0.389 0.666,0.334c0.445,-0.445 -0.611,-0.389 -0.666,-0.334m-17.667,0.667l-1,1l1,2l2,-1c-0.545,-1.635 -0.365,-1.455 -2,-2m8,0c-1.967,2.24 -4.377,3.079 -5,6c2.282,-1.061 4.561,-1.417 7,-2l-2,-4m56,0l1,1l-1,-1m-36.667,1.667c-0.055,0.055 -0.111,1.111 0.334,0.666c0.055,-0.055 0.111,-1.111 -0.334,-0.666m1.667,-0.667l0,2l2,0l0,-2l-2,0m-16.667,1.667c-0.055,0.055 -0.111,1.111 0.334,0.666c0.055,-0.055 0.111,-1.111 -0.334,-0.666m-37.333,2.333l-3,0c1.127,-2.006 1.873,-2.006 3,0m136,-2l0,3c-0.696,-1.554 -0.696,-1.446 0,-3m-157,1c0.235,3.072 0.155,5.142 -1,8l-4,-1c1.488,-2.491 3.123,-4.787 5,-7m43,1l1,1l-1,-1m58,0l1,1l-1,-1m-40.333,2.333c-0.445,0.445 0.611,0.389 0.666,0.334c0.445,-0.445 -0.611,-0.389 -0.666,-0.334m-43.667,0.667l0,5l-3,0l1,5c-1.255,-1.751 -1.614,-2.857 -2,-5l-3,1c0.843,-1.769 1.541,-2.688 3,-4c1.492,1.032 2.404,-0.75 4,-2m181,0c1.402,3.575 3.283,4.396 7,5l-7,-5m84,3c8.665,-0.524 13.31,6.444 21,8c-0.986,1.479 -1,1.203 -1,3c1.84,-1.717 2.349,-2.566 3,-5c-5.877,-2.532 -17.461,-12.84 -23,-6m-251,-2l0,4c0.911,-1.377 1.404,-2.44 2,-4l-2,0m197,0c0.545,1.635 0.365,1.455 2,2l0,-2l-2,0m-309,1.333c0.773,0 0.16,0.498 -0.333,0.334l0.333,-0.334m206,-0.333c1.006,1.731 1.546,3.053 2,5l-5,-1c0.176,1.878 0.438,3.199 1,5c3.487,-2.589 5.834,-4.736 7,-9l-5,0m10,0c1.001,1.924 1.078,2.098 3,3c-0.899,-2.124 -0.876,-2.101 -3,-3m42,0c1.949,1.573 3.588,2.291 6,3c-1.98,-1.884 -3.31,-2.469 -6,-3m66.667,0.333c-0.445,0.445 0.611,0.389 0.666,0.334c0.445,-0.445 -0.611,-0.389 -0.666,-0.334m-210,1c-0.445,0.445 0.611,0.389 0.666,0.334c0.445,-0.445 -0.611,-0.389 -0.666,-0.334m97.333,0.667l2,3c0.574,-1.809 0.465,-2.069 0,-4l-2,1m-102,0l0,4l4,-1l-4,-3m206,0l1,1l-1,-1m-118,1c-0.986,1.479 -1,1.203 -1,3c1.289,-1.443 1.401,-1.234 1,-3m-35,1c-0.646,2.458 -0.646,3.542 0,6l3,-3c-0.973,-1.27 -1.73,-2.027 -3,-3m166,0l1,1l-1,-1m-409,1l1,2c-1.263,-0.971 -1.392,-0.694 -1,-2m255,0c-0.722,2.418 -0.948,4.472 -1,7l-1,-4c-4.005,4.834 -5.437,9.891 -4,16c0.566,-2.34 0.176,-4.571 0,-7l4,0l-1,-3l4,-2c-0.274,-2.377 -0.313,-4.733 -1,-7m-38,1l0,4c0.71,-1.76 0.71,-2.24 0,-4m63.667,0.333c-0.445,0.445 0.611,0.389 0.666,0.334c0.445,-0.445 -0.611,-0.389 -0.666,-0.334m9.333,-0.333c0.031,1.832 -0.079,1.559 1,3c-0.251,-1.452 -0.315,-1.752 -1,-3m-21,2l-1,2l2,0c0,-1.853 0.3,-1.35 -1,-2m-90,1l-4,12c1.846,-0.026 2.266,0.17 4,1c-0.07,1.952 -0.354,1.94 1,3c-2.308,0.558 -2.756,-0.004 -4,-2c-1.023,1.534 -0.805,1.402 -2,2c-1.023,-4.504 0.288,-8.49 0,-13c2.351,0 1.935,-0.652 2,-3l3,0m56.333,0.667c-0.055,0.055 -0.111,1.111 0.334,0.666c0.055,-0.055 0.111,-1.111 -0.334,-0.666m29.667,-0.667l-6,12l-2,0l-1,-5c-3.263,4.378 -6.297,9.251 -9,14c3.208,-0.571 5.989,-1.772 9,-3c-0.706,3.337 -0.826,4.942 2,7l-2,-5c2.758,0.657 3.729,0.68 6,-1c1.186,1.186 1.584,1.528 3,2c0.201,-2.789 0.467,-5.252 0,-8c1.635,0.545 1.455,0.365 2,2c4.497,-4.051 1.768,-7.757 2,-13c-1.635,-0.545 -1.455,-0.365 -2,-2l-2,0m9,0l1,4c1.081,-1.458 1.436,-2.248 2,-4l-3,0m127.333,0.667c-0.055,0.055 -0.111,1.111 0.334,0.666c0.055,-0.055 0.111,-1.111 -0.334,-0.666m9.667,-0.667l0,2c1.635,-0.545 1.455,-0.365 2,-2l-2,0m-252.333,1.667c0.055,0.055 0.111,1.111 -0.334,0.666c-0.055,-0.055 -0.111,-1.111 0.334,-0.666m126.333,-0.667l2,3l3,-1c-1.693,-1.062 -3.04,-1.52 -5,-2m-105,1c0.986,1.479 1,1.203 1,3c-1.289,-1.443 -1.401,-1.234 -1,-3m88,1c-1.139,1.016 -1.611,1.309 -3,2c0.513,-2.475 0.604,-2.575 3,-2m3,-1c-0.598,3.21 -0.742,5.042 2,7c-0.083,-2.908 -0.241,-4.692 -2,-7m7,0c-0.897,2.638 -1.469,5.262 -2,8c1.737,-0.062 1.64,-0.02 3,1c0.522,-3.291 0.442,-5.975 -1,-9m2,0l1,1l-1,-1m14,1c1.223,1.195 1.42,1.316 3,2c-0.98,-1.783 -0.908,-1.594 -3,-2m180,0c0.482,2.364 0.636,2.518 3,3c-1.104,-1.457 -1.543,-1.896 -3,-3m-475,1.333c0.773,0 0.16,0.498 -0.333,0.334l0.333,-0.334m17,-0.333l-1,1l1,-1m187,3c2.124,-0.899 2.101,-0.876 3,-3c-2.364,0.482 -2.518,0.636 -3,3m28,-3l1,1l-1,-1m8,0c-3.945,2.909 -6.377,3.429 -7,9c2.04,-2.669 3.02,-5.281 6,-7c-1.157,1.817 -1.145,1.835 -1,4c1.777,-2.05 2.64,-3.34 2,-6m166,0l1,1l-1,-1m-244.333,1.333c-0.445,0.445 0.611,0.389 0.666,0.334c0.445,-0.445 -0.611,-0.389 -0.666,-0.334m80.333,3.667c1.879,-1.175 2.715,-1.131 5,-1c-1.238,-1.65 -2.666,-1.333 0,-2c-2.908,-0.801 -4.042,0.251 -5,3m23,-4c0,1.797 0.014,1.521 1,3c1.103,-1.457 1.543,-1.897 3,-3c-1.22,3.555 -2.624,5.338 -6,7l2,-7m29,0l1,1l-1,-1m-325,1l0,4c0.71,-1.76 0.71,-2.241 0,-4m283,0l-1,1l1,-1m34.333,0.667c-0.055,0.055 -0.111,1.111 0.334,0.666c0.055,-0.055 0.111,-1.111 -0.334,-0.666m-64.333,0.333c-1.979,2.782 -2.368,5.664 -3,9c-0.265,-2.388 -0.143,-4.594 0,-7c-1.804,0.555 -3.127,0.834 -5,1c-0.685,2.339 -1.706,4.764 -1.348,7.246c0.619,4.292 5.131,7.606 0.348,10.754l0,3c-0.986,-1.478 -1,-1.203 -1,-3c-0.685,1.248 -0.749,1.548 -1,3l-5,0l-3,6l5,0l-1,-4c1.539,1.956 2.781,3.83 4,6c2.862,-0.923 4.29,-3.032 7,-1c0.481,-3.462 0.976,-6.637 2,-10c-5.297,0 -2.349,-10.159 -1,-8l4,-2c-1.109,-3.844 -0.234,-7.361 -1,-11m-192,1c1.186,1.186 1.528,1.584 2,3c-1.548,-1.262 -1.808,-1.194 -2,-3m136,0l-1,5c-1.745,-0.89 -3.125,-1.453 -5,-2l-1,4c3.078,-0.771 5.828,-1.14 9,-1l2,-6l-4,0m118,0l-1,2c1.263,-0.971 1.392,-0.694 1,-2m6,0c0,1.797 0.014,1.521 1,3c2.132,-0.777 2.771,-1.13 4,-3l-5,0m-84,2c0.98,1.783 0.908,1.594 3,2c-1.139,-1.015 -1.612,-1.309 -3,-2m17,0l0,3c1.015,-1.139 1.309,-1.612 2,-3l-2,0m24,0c-1.317,2.252 -1.849,3.438 -2,6c1.777,-2.05 2.64,-3.34 2,-6m-60,3l3,-1c-1.778,-0.955 -2.021,-0.766 -3,1m87,-2l0,5c1.84,-1.717 2.349,-2.566 3,-5l-3,0m71,0c0.917,3.859 2.5,7.342 4,11c0.966,-3.931 -1.299,-8.164 -4,-11m-263,1l-1,1l1,-1m198.333,0.667c-0.055,0.055 -0.111,1.111 0.334,0.666c0.055,-0.055 0.111,-1.111 -0.334,-0.666m4.334,-0.334c-0.445,0.445 0.611,0.389 0.666,0.334c0.445,-0.445 -0.611,-0.389 -0.666,-0.334m-315.667,0.667c-1.015,8.029 -1,15.908 -1,24c2.323,-5.535 3.345,-18.412 1,-24m143,0l-1,1l1,-1m79,0l-1,6c2.093,-1.824 2.039,-3.471 1,-6m15,0l0,6c2.085,0 1.724,-0.138 2,2l4,-1c-1.612,-1.314 -3.085,-2.187 -5,-3l0,-2c1.314,-0.768 1.232,-0.686 2,-2l-3,0m24,0c-0.986,1.479 -1,1.203 -1,3c1.289,-1.443 1.401,-1.234 1,-3m7,0c-1.49,2.78 -1.911,4.848 -2,8c1.299,-2.549 2.361,-5.169 2,-8m18,0l-1,1l1,-1m5,2l-1,1l1,-1m19,0l1,1l-1,-1m-194,3c-1.218,2.118 -1.867,2.845 -4,4l2,-4l2,0m139.667,0.333c-0.445,0.445 0.611,0.389 0.666,0.334c0.445,-0.445 -0.611,-0.389 -0.666,-0.334m51.333,-0.333l0,2l2,0c-0.545,-1.635 -0.365,-1.455 -2,-2m14,5c1.248,0.685 1.548,0.749 3,1c-1.248,-0.685 -1.548,-0.749 -3,-1m-131.333,1.333c-0.445,0.445 0.611,0.389 0.666,0.334c0.445,-0.445 -0.611,-0.389 -0.666,-0.334m76.666,0.334c-0.055,0.055 -0.111,1.111 0.334,0.666c0.055,-0.055 0.111,-1.111 -0.334,-0.666m25.667,-0.667l0,2l2,0l0,-2l-2,0m36.333,1.667c-0.055,0.055 -0.111,1.111 0.334,0.666c0.055,-0.055 0.111,-1.111 -0.334,-0.666m56.667,-0.667c-0.478,3.15 -0.194,4.366 3,5l-3,-5m-74.667,1.667c-0.055,0.055 -0.111,1.111 0.334,0.666c0.055,-0.055 0.111,-1.111 -0.334,-0.666m-79.333,1.333c-0.545,1.635 -0.365,1.455 -2,2c1.222,1.972 2.149,3.634 4,5c-0.481,-2.465 -0.911,-4.748 -2,-7m-118,3l0,2l-2,0l0,-2l2,0m-85,1c-1.248,0.685 -1.548,0.749 -3,1c1.248,-0.685 1.548,-0.749 3,-1m183,0l-1,1l0,2c1.58,0.684 1.777,0.805 3,2c0.622,-1.943 0.436,-2.949 0,-5l-2,0m-122,2l2,1l0,2c-2.251,-0.473 -3.118,-0.86 -2,-3m402,1c1.16,4.023 3.585,5.752 7,8l5,-3c-2.514,-3.851 -4.941,-3.626 -9,-2c-0.482,-2.364 -0.636,-2.518 -3,-3m-425,1c1.585,2.52 2.328,5.1 3,8c-3.734,-1.092 -4.581,-4.598 -3,-8m56.667,0.333c-0.445,0.445 0.611,0.389 0.666,0.334c0.445,-0.445 -0.611,-0.389 -0.666,-0.334m8.333,0.667l-1,1l0,2l4,1l-1,-4l-2,0m-45,1l0,4l-2,0l0,-4l2,0m30,0c0.648,2.394 1.032,3.536 3,5c-0.427,-2.645 -0.821,-3.461 -3,-5m159.667,0.333c-0.445,0.445 0.611,0.389 0.666,0.334c0.445,-0.445 -0.611,-0.389 -0.666,-0.334m93,0c-0.445,0.445 0.611,0.389 0.666,0.334c0.445,-0.445 -0.611,-0.389 -0.666,-0.334m-255.334,2.334c-0.055,0.055 -0.111,1.111 0.334,0.666c0.055,-0.055 0.111,-1.111 -0.334,-0.666m-33.666,1c0.055,0.055 0.111,1.111 -0.334,0.666c-0.055,-0.055 -0.111,-1.111 0.334,-0.666m48.333,-0.667l-1,2l2,0c0,-1.853 0.3,-1.35 -1,-2m230,3c2.042,1.416 3.511,1.745 6,2c-2.042,-1.416 -3.511,-1.745 -6,-2m-358,1c0.051,18.59 5.288,36.006 9,54c3.444,-9.601 -2.94,-21.617 -4.755,-31c-1.412,-7.307 -1.204,-16.227 -4.245,-23m79,1c1.422,1.789 1.697,2.706 2,5c-1.848,-1.78 -2.566,-2.491 -2,-5m130,0c-1.479,0.986 -1.203,1 -3,1c1.68,1.323 3.913,1.639 3,-1m-119,1l0,4l-2,0l0,-4l2,0m269,0c1.769,0.779 3.036,0.912 5,1c-1.769,-0.779 -3.036,-0.912 -5,-1m-290,3l0,2l-2,0l0,-2l2,0m13,3c2.193,2.54 2.779,4.665 3,8c-2.249,-2.435 -3.883,-4.68 -3,-8m-16,1c-0.684,1.58 -0.805,1.777 -2,3l0,-3l2,0m289,0c1.506,0.683 2.315,0.826 4,1c-1.506,-0.683 -2.315,-0.826 -4,-1m-213,4l0,2c1.186,-1.036 1.604,-1.339 3,-2c-0.674,2.297 -0.965,2.774 -3,4l2,4l-5,-1l0,-6c1.737,0.062 1.64,0.02 3,-1m78.667,3.333c-0.445,0.445 0.611,0.389 0.666,0.334c0.445,-0.445 -0.611,-0.389 -0.666,-0.334m-155.667,6.667c1.081,1.458 1.436,2.248 2,4c-2.004,-1.247 -2.823,-1.737 -2,-4m-49,3.333c0.773,0 0.16,0.498 -0.333,0.334l0.333,-0.334m56,2.667l0,2l-3,0l0,-2l3,0m32,0c-2.89,14.86 9.33,24.845 16.441,36.001c8.318,13.047 18.036,24.93 28.054,36.717c5.431,6.392 13.482,12.568 17.087,20.322c2.727,5.867 2.782,12.619 3.547,18.87c0.383,3.134 1.663,5.893 1.871,9.09c3.208,-1.923 5.179,-4.88 8.134,-7.12c3.772,-2.859 8.281,-4.82 11.776,-8.02c9.775,-8.947 17.175,-20.531 25.341,-30.86c4.009,-5.071 5.858,-11.797 10.749,-16l0,-2c-6.902,-3.322 -15.498,-2.06 -23,-3.63c-7.118,-1.489 -13.388,-5.67 -20,-8.466c-3.268,-1.381 -6.794,-1.816 -10,-3.433c-9.19,-4.634 -17.511,-11.117 -26.325,-16.351c-5.998,-3.561 -12.681,-5.542 -18.585,-9.44c-8.83,-5.828 -14.218,-13.563 -25.09,-15.68m85,14c1.297,1.594 1.535,2.018 2,4l-4,-1c0.691,-1.388 0.985,-1.861 2,-3m84,4l0,3c0.696,-1.554 0.696,-1.446 0,-3m-263,9c0,9.952 -1.402,17.48 -4,27c7.669,-7.24 8.497,-17.718 4,-27m240,1c0.11,2.442 0.428,4.623 1,7c0.806,-2.639 0.289,-4.57 -1,-7m7,1c-1.775,2.442 -2.568,4.023 -3,7l2,0c0.483,-2.411 1.31,-4.6 1,-7m0,16c-0.427,2.645 -0.821,3.461 -3,5c0.176,-1.878 0.438,-3.199 1,-5l2,0m-5,1l1,6c-2.523,-1.834 -2.616,-3.381 -1,-6m-127,5l1,1l-1,-1m2,2c2.506,6.184 7.105,10.809 11.196,16c7.656,9.713 17.078,20.533 21.949,32c4.163,9.801 1.912,19.741 1.855,30l5,0c-1.248,-0.685 -1.549,-0.749 -3,-1c0.088,-3.762 1.428,-7.296 1.505,-11c0.277,-13.173 -2.584,-23.948 -11.096,-34.17c-2.898,-3.479 -4.948,-6.551 -9.409,-7.83c-1.191,-8.384 -11.47,-19.01 -18,-24m-124,5c-18.093,17.769 -38.269,27.283 -61,37.691c-12.353,5.657 -29.182,10.485 -38,21.309c10.729,-0.251 21.469,-6.484 31,-11c-1.328,-0.273 -1.577,-0.216 -3,0c5.826,-4.964 11.872,-7.431 19,-10l-3,3c3.61,0.605 7.562,-1.614 11,-2.861c8.482,-3.076 16.691,-6.68 25,-10.139c-4.84,-0.811 -11.422,2.69 -16,4.41c-4.894,1.839 -9.963,2.377 -15,3.59c13.229,-9.907 31.56,-12.75 42.455,-26.012c2.479,-3.017 7.637,-5.925 7.545,-9.988m261,3c2.112,1.632 4.399,2.905 6,5c-3.096,-0.63 -6.082,-1.489 -6,-5m-3,2c-1.809,0.574 -2.069,0.465 -4,0c1.809,-0.574 2.069,-0.465 4,0m10,8c-2.172,-0.464 -3.958,-1.105 -6,-2c2.969,-1.744 4.373,-0.892 6,2m5,-2c1.902,1.156 2.722,1.156 5,1c-2.17,3.49 -4.268,5.281 -8,7c2.385,2.749 4.998,4.943 8,7c1.563,-2.707 4.14,-3.636 6,-6c1.745,0.89 3.125,1.453 5,2c-3.236,1.975 -6.352,3.024 -10,4c3.403,3.332 6.002,1.759 10,0c-1.59,1.752 -2.954,2.794 -5,4c2.781,4.548 5.453,2.575 10,2l-1,3c7.278,1.577 17.27,-0.835 16,-10c2.342,-0.939 3.065,-2.81 5,-4c-4.366,-1.832 -8.766,-0.794 -13,1l4,-3c-1.364,-1.819 -1.492,-1.031 -1,-3l-7,4c-3.432,-3.987 -15.912,-5.239 -17,1l-5,0c1.707,-0.857 2.109,-0.982 4,-1l-2,-5l6,-3c-3.163,-1.327 -6.586,-1 -10,-1m34,7c2.044,0.774 2.845,0.592 5,0c-2.044,-0.774 -2.845,-0.592 -5,0m3,3c-1.988,2.061 -3.157,2.579 -6,3c1.949,-1.573 3.588,-2.291 6,-3m3,3c-0.715,3.155 -1.831,5.598 -4,8c1.659,0.406 2.242,0.309 4,0l0,2c3.384,-1.25 5.021,-3.005 7,-6l-4,1l2,-3c-2.179,-0.726 -1.78,-0.439 -1,-2l-4,0m-25,7l-1,1l1,-1m-105,1l-1,1l1,-1m117,6c-1.717,1.84 -2.566,2.349 -5,3c3.44,2.191 5.61,0.539 7,-3l-2,0m-360,5c1.659,0.406 2.242,0.309 4,0c-1.659,-0.406 -2.242,-0.309 -4,0m-7,3c2.274,0.409 3.781,-0.212 6,-1c-2.274,-0.409 -3.781,0.212 -6,1Z" style="fill:rgb(67,87,89);fill-opacity:0.584314;fill-rule:nonzero;"/>
            </g>
        </g>
    </g>
    <g id="Labels">
        <g transform="matrix(1,0,0,1,11.7407,-45.4235)">
            <path d="M24.58,189.64l-4.09,0c0.035,0.469 0.188,0.842 0.457,1.12c0.27,0.273 0.615,0.41 1.037,0.41c0.328,0 0.6,-0.078 0.815,-0.235c0.211,-0.156 0.451,-0.445 0.72,-0.867l1.114,0.621c-0.172,0.293 -0.354,0.544 -0.545,0.753c-0.192,0.209 -0.397,0.381 -0.615,0.516c-0.219,0.135 -0.456,0.233 -0.709,0.296c-0.254,0.062 -0.53,0.094 -0.827,0.094c-0.851,0 -1.535,-0.274 -2.05,-0.821c-0.516,-0.551 -0.774,-1.281 -0.774,-2.191c0,-0.903 0.25,-1.633 0.75,-2.192c0.504,-0.55 1.172,-0.826 2.004,-0.826c0.84,0 1.504,0.268 1.992,0.803c0.485,0.531 0.727,1.268 0.727,2.209l-0.006,0.31Zm-1.354,-1.078c-0.183,-0.703 -0.627,-1.054 -1.33,-1.054c-0.16,0 -0.31,0.024 -0.451,0.073c-0.14,0.049 -0.268,0.119 -0.384,0.211c-0.115,0.092 -0.213,0.202 -0.296,0.331c-0.082,0.129 -0.144,0.275 -0.187,0.439l2.648,0Z" style="fill-rule:nonzero;"/>
            <path d="M27.562,189.096l-2.05,-2.62l1.57,0l1.271,1.664l1.295,-1.664l1.617,0l-2.109,2.62l2.443,3.087l-1.57,0l-1.676,-2.132l-1.716,2.132l-1.612,0l2.537,-3.087Z" style="fill-rule:nonzero;"/>
            <path d="M33.808,195.289l-1.318,0l0,-8.813l1.318,0l0,0.622c0.52,-0.52 1.11,-0.78 1.77,-0.78c0.785,0 1.432,0.289 1.939,0.867c0.516,0.575 0.774,1.299 0.774,2.174c0,0.856 -0.256,1.569 -0.768,2.139c-0.508,0.566 -1.148,0.85 -1.922,0.85c-0.668,0 -1.265,-0.268 -1.793,-0.803l0,3.744Zm3.135,-5.924c0,-0.547 -0.148,-0.992 -0.445,-1.336c-0.301,-0.348 -0.68,-0.521 -1.137,-0.521c-0.484,0 -0.877,0.168 -1.178,0.504c-0.3,0.336 -0.451,0.777 -0.451,1.324c0,0.535 0.151,0.976 0.451,1.324c0.297,0.34 0.688,0.51 1.172,0.51c0.457,0 0.834,-0.172 1.131,-0.516c0.305,-0.344 0.457,-0.773 0.457,-1.289Z" style="fill-rule:nonzero;"/>
        </g>
        <g transform="matrix(1,0,0,1,15.6138,-103.162)">
            <rect x="19.383" y="182.287" width="1.318" height="9.896" style="fill-rule:nonzero;"/>
            <path d="M23.689,186.476l0,5.707l-1.318,0l0,-5.707l1.318,0Zm-1.517,-2.373c0,-0.23 0.084,-0.429 0.252,-0.597c0.168,-0.168 0.369,-0.252 0.603,-0.252c0.238,0 0.442,0.084 0.61,0.252c0.168,0.164 0.252,0.365 0.252,0.603c0,0.239 -0.084,0.442 -0.252,0.61c-0.164,0.168 -0.366,0.252 -0.604,0.252c-0.238,0 -0.441,-0.084 -0.609,-0.252c-0.168,-0.168 -0.252,-0.373 -0.252,-0.616Z" style="fill-rule:nonzero;"/>
            <path d="M25.359,186.476l1.324,0l0,0.528c0.461,-0.457 0.981,-0.686 1.559,-0.686c0.664,0 1.182,0.209 1.553,0.627c0.32,0.356 0.48,0.936 0.48,1.74l0,3.498l-1.324,0l0,-3.187c0,-0.563 -0.078,-0.951 -0.234,-1.166c-0.153,-0.219 -0.43,-0.328 -0.832,-0.328c-0.438,0 -0.748,0.144 -0.932,0.433c-0.18,0.286 -0.27,0.784 -0.27,1.495l0,2.753l-1.324,0l0,-5.707Z" style="fill-rule:nonzero;"/>
        </g>
        <g transform="matrix(1,0,0,1,102.988,-43.8971)">
            <path d="M24.902,192.049c0,0.269 -0.009,0.507 -0.026,0.712c-0.018,0.205 -0.042,0.385 -0.073,0.542c-0.094,0.429 -0.278,0.798 -0.551,1.107c-0.516,0.594 -1.225,0.891 -2.127,0.891c-0.762,0 -1.389,-0.205 -1.881,-0.616c-0.508,-0.421 -0.801,-1.005 -0.879,-1.752l1.324,0c0.051,0.282 0.135,0.498 0.252,0.651c0.274,0.355 0.672,0.533 1.196,0.533c0.964,0 1.447,-0.592 1.447,-1.775l0,-0.797c-0.524,0.535 -1.127,0.803 -1.811,0.803c-0.777,0 -1.414,-0.282 -1.91,-0.844c-0.5,-0.571 -0.75,-1.283 -0.75,-2.139c0,-0.832 0.233,-1.539 0.697,-2.121c0.5,-0.617 1.161,-0.926 1.981,-0.926c0.719,0 1.316,0.268 1.793,0.803l0,-0.645l1.318,0l0,5.573Zm-1.265,-2.707c0,-0.555 -0.149,-0.998 -0.446,-1.33c-0.301,-0.34 -0.685,-0.51 -1.154,-0.51c-0.5,0 -0.895,0.185 -1.184,0.556c-0.261,0.332 -0.392,0.762 -0.392,1.29c0,0.519 0.131,0.945 0.392,1.277c0.286,0.363 0.68,0.545 1.184,0.545c0.504,0 0.902,-0.184 1.195,-0.551c0.27,-0.332 0.405,-0.758 0.405,-1.277Z" style="fill-rule:nonzero;"/>
            <path d="M30.773,186.476l1.325,0l0,5.707l-1.325,0l0,-0.597c-0.543,0.508 -1.127,0.762 -1.752,0.762c-0.789,0 -1.441,-0.286 -1.957,-0.856c-0.511,-0.582 -0.767,-1.309 -0.767,-2.18c0,-0.855 0.256,-1.568 0.767,-2.138c0.512,-0.571 1.153,-0.856 1.922,-0.856c0.664,0 1.26,0.274 1.787,0.821l0,-0.663Zm-3.129,2.836c0,0.547 0.147,0.993 0.44,1.336c0.301,0.348 0.68,0.522 1.137,0.522c0.488,0 0.882,-0.168 1.183,-0.504c0.301,-0.348 0.451,-0.789 0.451,-1.324c0,-0.536 -0.15,-0.977 -0.451,-1.325c-0.301,-0.339 -0.691,-0.509 -1.172,-0.509c-0.453,0 -0.832,0.172 -1.136,0.515c-0.301,0.348 -0.452,0.778 -0.452,1.289Z" style="fill-rule:nonzero;"/>
            <path d="M35.08,186.476l0,5.707l-1.318,0l0,-5.707l1.318,0Zm-1.518,-2.373c0,-0.23 0.084,-0.429 0.252,-0.597c0.168,-0.168 0.369,-0.252 0.604,-0.252c0.238,0 0.441,0.084 0.609,0.252c0.168,0.164 0.252,0.365 0.252,0.603c0,0.239 -0.084,0.442 -0.252,0.61c-0.164,0.168 -0.365,0.252 -0.603,0.252c-0.239,0 -0.442,-0.084 -0.61,-0.252c-0.168,-0.168 -0.252,-0.373 -0.252,-0.616Z" style="fill-rule:nonzero;"/>
            <path d="M36.75,186.476l1.324,0l0,0.528c0.461,-0.457 0.981,-0.686 1.559,-0.686c0.664,0 1.181,0.209 1.552,0.627c0.321,0.356 0.481,0.936 0.481,1.74l0,3.498l-1.324,0l0,-3.187c0,-0.563 -0.078,-0.951 -0.235,-1.166c-0.152,-0.219 -0.429,-0.328 -0.832,-0.328c-0.437,0 -0.748,0.144 -0.931,0.433c-0.18,0.286 -0.27,0.784 -0.27,1.495l0,2.753l-1.324,0l0,-5.707Z" style="fill-rule:nonzero;"/>
        </g>
        <g transform="matrix(1,0,0,1,54.1759,12.8287)">
            <path d="M19.113,189.289c0,-0.824 0.295,-1.525 0.885,-2.104c0.59,-0.578 1.309,-0.867 2.156,-0.867c0.852,0 1.574,0.291 2.168,0.873c0.586,0.582 0.879,1.297 0.879,2.145c0,0.855 -0.295,1.572 -0.885,2.15c-0.593,0.574 -1.322,0.862 -2.185,0.862c-0.856,0 -1.573,-0.293 -2.151,-0.879c-0.578,-0.579 -0.867,-1.305 -0.867,-2.18Zm1.348,0.023c0,0.571 0.152,1.022 0.457,1.354c0.312,0.336 0.724,0.504 1.236,0.504c0.516,0 0.928,-0.166 1.236,-0.498c0.309,-0.332 0.463,-0.776 0.463,-1.33c0,-0.555 -0.154,-0.998 -0.463,-1.33c-0.312,-0.336 -0.724,-0.504 -1.236,-0.504c-0.504,0 -0.912,0.168 -1.224,0.504c-0.313,0.336 -0.469,0.769 -0.469,1.3Z" style="fill-rule:nonzero;"/>
            <path d="M27.914,186.476l0,3.276c0,0.945 0.373,1.418 1.119,1.418c0.746,0 1.119,-0.473 1.119,-1.418l0,-3.276l1.319,0l0,3.305c0,0.457 -0.057,0.852 -0.17,1.184c-0.11,0.297 -0.299,0.564 -0.569,0.802c-0.445,0.387 -1.011,0.581 -1.699,0.581c-0.684,0 -1.248,-0.194 -1.693,-0.581c-0.274,-0.238 -0.467,-0.505 -0.58,-0.802c-0.11,-0.266 -0.164,-0.66 -0.164,-1.184l0,-3.305l1.318,0Z" style="fill-rule:nonzero;"/>
            <path d="M34.494,187.707l0,4.476l-1.318,0l0,-4.476l-0.563,0l0,-1.231l0.563,0l0,-2.091l1.318,0l0,2.091l1.025,0l0,1.231l-1.025,0Z" style="fill-rule:nonzero;"/>
            <path d="M37.734,195.289l-1.318,0l0,-8.813l1.318,0l0,0.622c0.52,-0.52 1.11,-0.78 1.77,-0.78c0.785,0 1.431,0.289 1.939,0.867c0.516,0.575 0.774,1.299 0.774,2.174c0,0.856 -0.256,1.569 -0.768,2.139c-0.508,0.566 -1.148,0.85 -1.922,0.85c-0.668,0 -1.265,-0.268 -1.793,-0.803l0,3.744Zm3.135,-5.924c0,-0.547 -0.148,-0.992 -0.445,-1.336c-0.301,-0.348 -0.68,-0.521 -1.137,-0.521c-0.484,0 -0.877,0.168 -1.178,0.504c-0.301,0.336 -0.451,0.777 -0.451,1.324c0,0.535 0.15,0.976 0.451,1.324c0.297,0.34 0.688,0.51 1.172,0.51c0.457,0 0.834,-0.172 1.131,-0.516c0.305,-0.344 0.457,-0.773 0.457,-1.289Z" style="fill-rule:nonzero;"/>
            <path d="M44.93,186.476l0,3.276c0,0.945 0.373,1.418 1.119,1.418c0.746,0 1.119,-0.473 1.119,-1.418l0,-3.276l1.318,0l0,3.305c0,0.457 -0.056,0.852 -0.17,1.184c-0.109,0.297 -0.299,0.564 -0.568,0.802c-0.445,0.387 -1.012,0.581 -1.699,0.581c-0.684,0 -1.248,-0.194 -1.694,-0.581c-0.273,-0.238 -0.466,-0.505 -0.58,-0.802c-0.109,-0.266 -0.164,-0.66 -0.164,-1.184l0,-3.305l1.319,0Z" style="fill-rule:nonzero;"/>
            <path d="M51.51,187.707l0,4.476l-1.319,0l0,-4.476l-0.562,0l0,-1.231l0.562,0l0,-2.091l1.319,0l0,2.091l1.025,0l0,1.231l-1.025,0Z" style="fill-rule:nonzero;"/>
        </g>
        <g transform="matrix(1,0,0,1,33.0254,158.88)">
            <path d="M23.385,187.178l0,1.606c-0.276,-0.337 -0.523,-0.568 -0.742,-0.693c-0.214,-0.129 -0.467,-0.194 -0.757,-0.194c-0.455,0 -0.832,0.16 -1.133,0.478c-0.301,0.319 -0.451,0.718 -0.451,1.198c0,0.491 0.145,0.893 0.435,1.209c0.293,0.315 0.667,0.472 1.122,0.472c0.29,0 0.546,-0.062 0.768,-0.188c0.215,-0.121 0.468,-0.358 0.758,-0.709l0,1.595c-0.491,0.255 -0.981,0.382 -1.472,0.382c-0.809,0 -1.486,-0.262 -2.03,-0.784c-0.545,-0.527 -0.817,-1.18 -0.817,-1.961c0,-0.78 0.276,-1.439 0.827,-1.976c0.552,-0.537 1.229,-0.806 2.031,-0.806c0.515,0 1.002,0.124 1.461,0.371Z" style="fill-rule:nonzero;"/>
            <path d="M25.205,186.952l1.354,2.938l1.348,-2.938l1.359,0l-2.718,5.591l-2.696,-5.591l1.353,0Z" style="fill-rule:nonzero;"/>
            <rect x="31.807" y="183.89" width="1.246" height="10.361" style="fill-rule:nonzero;"/>
            <path d="M41.066,189.852l-3.749,0c0.032,0.43 0.172,0.772 0.419,1.026c0.247,0.251 0.564,0.376 0.951,0.376c0.301,0 0.55,-0.071 0.746,-0.215c0.194,-0.143 0.414,-0.408 0.661,-0.795l1.021,0.57c-0.158,0.268 -0.324,0.498 -0.5,0.69c-0.175,0.192 -0.363,0.349 -0.564,0.473c-0.2,0.123 -0.417,0.214 -0.65,0.271c-0.233,0.057 -0.485,0.086 -0.757,0.086c-0.781,0 -1.407,-0.251 -1.88,-0.752c-0.473,-0.505 -0.709,-1.175 -0.709,-2.009c0,-0.827 0.229,-1.497 0.688,-2.009c0.461,-0.505 1.074,-0.757 1.836,-0.757c0.77,0 1.379,0.245 1.827,0.736c0.444,0.487 0.666,1.162 0.666,2.025l-0.006,0.284Zm-1.24,-0.988c-0.169,-0.644 -0.575,-0.967 -1.22,-0.967c-0.146,0 -0.284,0.023 -0.413,0.067c-0.129,0.045 -0.246,0.11 -0.352,0.194c-0.106,0.084 -0.196,0.185 -0.271,0.303c-0.076,0.118 -0.133,0.253 -0.172,0.403l2.428,0Z" style="fill-rule:nonzero;"/>
            <path d="M43.8,189.353l-1.88,-2.401l1.44,0l1.165,1.525l1.187,-1.525l1.483,0l-1.934,2.401l2.24,2.83l-1.44,0l-1.536,-1.955l-1.573,1.955l-1.478,0l2.326,-2.83Z" style="fill-rule:nonzero;"/>
            <path d="M49.526,195.03l-1.209,0l0,-8.078l1.209,0l0,0.569c0.476,-0.476 1.017,-0.714 1.622,-0.714c0.72,0 1.312,0.265 1.778,0.795c0.472,0.526 0.709,1.19 0.709,1.993c0,0.784 -0.235,1.437 -0.704,1.96c-0.465,0.519 -1.053,0.779 -1.762,0.779c-0.612,0 -1.16,-0.245 -1.643,-0.736l0,3.432Zm2.873,-5.43c0,-0.501 -0.136,-0.91 -0.408,-1.225c-0.276,-0.318 -0.623,-0.478 -1.042,-0.478c-0.444,0 -0.804,0.154 -1.08,0.462c-0.275,0.308 -0.413,0.713 -0.413,1.214c0,0.491 0.138,0.895 0.413,1.214c0.273,0.311 0.631,0.467 1.075,0.467c0.419,0 0.764,-0.157 1.036,-0.472c0.28,-0.316 0.419,-0.709 0.419,-1.182Z" style="fill-rule:nonzero;"/>
        </g>
        <g transform="matrix(1,0,0,1,-9.33258,159.659)">
            <path d="M26.779,187.178l0,1.606c-0.276,-0.337 -0.523,-0.568 -0.741,-0.693c-0.215,-0.129 -0.467,-0.194 -0.757,-0.194c-0.455,0 -0.833,0.16 -1.134,0.478c-0.3,0.319 -0.451,0.718 -0.451,1.198c0,0.491 0.145,0.893 0.435,1.209c0.294,0.315 0.668,0.472 1.123,0.472c0.29,0 0.546,-0.062 0.768,-0.188c0.215,-0.121 0.467,-0.358 0.757,-0.709l0,1.595c-0.49,0.255 -0.981,0.382 -1.472,0.382c-0.809,0 -1.486,-0.262 -2.03,-0.784c-0.544,-0.527 -0.816,-1.18 -0.816,-1.961c0,-0.78 0.276,-1.439 0.827,-1.976c0.551,-0.537 1.228,-0.806 2.03,-0.806c0.516,0 1.003,0.124 1.461,0.371Z" style="fill-rule:nonzero;"/>
            <path d="M28.6,186.952l1.353,2.938l1.349,-2.938l1.359,0l-2.718,5.591l-2.697,-5.591l1.354,0Z" style="fill-rule:nonzero;"/>
            <rect x="35.201" y="183.89" width="1.246" height="10.361" style="fill-rule:nonzero;"/>
            <rect x="39.697" y="183.112" width="1.208" height="9.072" style="fill-rule:nonzero;"/>
            <path d="M43.644,186.952l0,5.231l-1.208,0l0,-5.231l1.208,0Zm-1.391,-2.175c0,-0.212 0.077,-0.394 0.231,-0.548c0.154,-0.154 0.339,-0.231 0.553,-0.231c0.219,0 0.405,0.077 0.559,0.231c0.154,0.15 0.231,0.335 0.231,0.553c0,0.218 -0.077,0.405 -0.231,0.559c-0.15,0.154 -0.335,0.231 -0.553,0.231c-0.219,0 -0.405,-0.077 -0.559,-0.231c-0.154,-0.154 -0.231,-0.342 -0.231,-0.564Z" style="fill-rule:nonzero;"/>
            <path d="M45.175,186.952l1.214,0l0,0.483c0.423,-0.419 0.899,-0.628 1.429,-0.628c0.608,0 1.083,0.192 1.423,0.575c0.294,0.326 0.441,0.857 0.441,1.595l0,3.206l-1.214,0l0,-2.921c0,-0.516 -0.072,-0.872 -0.215,-1.069c-0.14,-0.201 -0.394,-0.301 -0.763,-0.301c-0.401,0 -0.686,0.132 -0.854,0.397c-0.165,0.262 -0.247,0.718 -0.247,1.37l0,2.524l-1.214,0l0,-5.231Z" style="fill-rule:nonzero;"/>
        </g>
        <g transform="matrix(1,0,0,1,65.8339,42.2538)">
            <path d="M23.385,187.178l0,1.606c-0.276,-0.337 -0.523,-0.568 -0.742,-0.693c-0.214,-0.129 -0.467,-0.194 -0.757,-0.194c-0.455,0 -0.832,0.16 -1.133,0.478c-0.301,0.319 -0.451,0.718 -0.451,1.198c0,0.491 0.145,0.893 0.435,1.209c0.293,0.315 0.667,0.472 1.122,0.472c0.29,0 0.546,-0.062 0.768,-0.188c0.215,-0.121 0.468,-0.358 0.758,-0.709l0,1.595c-0.491,0.255 -0.981,0.382 -1.472,0.382c-0.809,0 -1.486,-0.262 -2.03,-0.784c-0.545,-0.527 -0.817,-1.18 -0.817,-1.961c0,-0.78 0.276,-1.439 0.827,-1.976c0.552,-0.537 1.229,-0.806 2.031,-0.806c0.515,0 1.002,0.124 1.461,0.371Z" style="fill-opacity:0.556863;fill-rule:nonzero;"/>
            <path d="M25.205,186.952l1.354,2.938l1.348,-2.938l1.359,0l-2.718,5.591l-2.696,-5.591l1.353,0Z" style="fill-opacity:0.556863;fill-rule:nonzero;"/>
        </g>
        <g transform="matrix(1,0,0,1,88.6749,159.659)">
            <path d="M20.522,186.952l0,5.231l-1.209,0l0,-5.231l1.209,0Zm-1.391,-2.175c0,-0.212 0.077,-0.394 0.231,-0.548c0.154,-0.154 0.338,-0.231 0.553,-0.231c0.218,0 0.405,0.077 0.558,0.231c0.154,0.15 0.231,0.335 0.231,0.553c0,0.218 -0.077,0.405 -0.231,0.559c-0.15,0.154 -0.334,0.231 -0.553,0.231c-0.218,0 -0.404,-0.077 -0.558,-0.231c-0.154,-0.154 -0.231,-0.342 -0.231,-0.564Z" style="fill-rule:nonzero;"/>
            <path d="M22.053,186.952l1.213,0l0,0.483c0.423,-0.419 0.899,-0.628 1.429,-0.628c0.609,0 1.083,0.192 1.424,0.575c0.293,0.326 0.44,0.857 0.44,1.595l0,3.206l-1.214,0l0,-2.921c0,-0.516 -0.072,-0.872 -0.215,-1.069c-0.139,-0.201 -0.394,-0.301 -0.762,-0.301c-0.402,0 -0.686,0.132 -0.854,0.397c-0.165,0.262 -0.248,0.718 -0.248,1.37l0,2.524l-1.213,0l0,-5.231Z" style="fill-rule:nonzero;"/>
        </g>
        <g transform="matrix(1,0,0,1,126.744,159.509)">
            <path d="M19.066,189.53c0,-0.755 0.271,-1.398 0.811,-1.928c0.541,-0.53 1.2,-0.795 1.977,-0.795c0.78,0 1.443,0.267 1.987,0.8c0.537,0.534 0.806,1.189 0.806,1.966c0,0.784 -0.271,1.441 -0.811,1.971c-0.544,0.527 -1.212,0.79 -2.004,0.79c-0.784,0 -1.441,-0.269 -1.971,-0.806c-0.53,-0.53 -0.795,-1.196 -0.795,-1.998Zm1.236,0.022c0,0.522 0.139,0.936 0.419,1.24c0.286,0.308 0.664,0.462 1.133,0.462c0.473,0 0.85,-0.152 1.133,-0.456c0.283,-0.305 0.424,-0.711 0.424,-1.22c0,-0.508 -0.141,-0.914 -0.424,-1.219c-0.286,-0.308 -0.664,-0.462 -1.133,-0.462c-0.462,0 -0.836,0.154 -1.123,0.462c-0.286,0.308 -0.429,0.706 -0.429,1.193Z" style="fill-rule:nonzero;"/>
            <path d="M27.134,186.952l0,3.002c0,0.867 0.342,1.3 1.026,1.3c0.683,0 1.025,-0.433 1.025,-1.3l0,-3.002l1.209,0l0,3.029c0,0.419 -0.052,0.781 -0.156,1.085c-0.1,0.272 -0.274,0.518 -0.521,0.736c-0.408,0.355 -0.927,0.532 -1.557,0.532c-0.627,0 -1.145,-0.177 -1.553,-0.532c-0.25,-0.218 -0.428,-0.464 -0.531,-0.736c-0.101,-0.243 -0.151,-0.605 -0.151,-1.085l0,-3.029l1.209,0Z" style="fill-rule:nonzero;"/>
            <path d="M33.165,188.08l0,4.103l-1.208,0l0,-4.103l-0.516,0l0,-1.128l0.516,0l0,-1.917l1.208,0l0,1.917l0.94,0l0,1.128l-0.94,0Z" style="fill-rule:nonzero;"/>
        </g>
        <g transform="matrix(1,0,0,1,-12.3352,9.08132)">
            <path d="M38.62,3.512l6.611,0l0,1.777l-2.275,0l0,13.301l-1.993,0l0,-13.301l-2.343,0l0,-1.777Z" style="fill:rgb(31,31,31);fill-rule:nonzero;"/>
            <path d="M48.447,8.482l1.865,0l0,1.26c0.319,-0.534 0.635,-0.908 0.947,-1.123c0.313,-0.215 0.726,-0.339 1.24,-0.371l0,1.953c-0.13,-0.02 -0.24,-0.029 -0.332,-0.029c-0.67,0 -1.149,0.172 -1.435,0.517c-0.28,0.339 -0.42,0.931 -0.42,1.778l0,6.123l-1.865,0l0,-10.108Z" style="fill:rgb(31,31,31);fill-rule:nonzero;"/>
            <path d="M55.988,8.482l1.875,0l0,10.108l-1.875,0l0,-10.108Zm0.879,-4.297c0.339,0 0.632,0.124 0.879,0.371c0.248,0.248 0.371,0.544 0.371,0.889c0,0.352 -0.123,0.651 -0.371,0.899c-0.247,0.247 -0.547,0.371 -0.898,0.371c-0.352,0 -0.651,-0.124 -0.899,-0.371c-0.24,-0.241 -0.361,-0.544 -0.361,-0.909c0,-0.338 0.124,-0.631 0.371,-0.879c0.267,-0.247 0.57,-0.371 0.908,-0.371Z" style="fill:rgb(31,31,31);fill-rule:nonzero;"/>
            <path d="M66.079,8.482l1.875,0l0,10.43c0,1.25 -0.124,2.116 -0.371,2.598c-0.456,0.885 -1.37,1.328 -2.744,1.328c-0.905,0 -1.615,-0.257 -2.129,-0.772c-0.521,-0.521 -0.781,-1.22 -0.781,-2.099l0.009,-0.313l1.807,0c0,1.074 0.401,1.611 1.201,1.611c0.436,0 0.733,-0.136 0.889,-0.41c0.163,-0.26 0.244,-0.778 0.244,-1.552l0,-1.944c-0.397,0.925 -1.006,1.387 -1.826,1.387c-0.846,0 -1.47,-0.41 -1.87,-1.231c-0.401,-0.82 -0.601,-2.102 -0.601,-3.847c0,-1.849 0.192,-3.213 0.576,-4.092c0.378,-0.84 1.006,-1.26 1.885,-1.26c0.417,0 0.755,0.101 1.016,0.303c0.26,0.202 0.534,0.56 0.82,1.074l0,-1.211Zm0.029,5.147c0,-2.416 -0.416,-3.623 -1.25,-3.623c-0.397,0 -0.686,0.271 -0.869,0.815c-0.182,0.544 -0.273,1.414 -0.273,2.612c0,1.27 0.094,2.204 0.283,2.803c0.195,0.554 0.521,0.83 0.977,0.83c0.429,0 0.725,-0.247 0.888,-0.742c0.163,-0.462 0.244,-1.361 0.244,-2.695Z" style="fill:rgb(31,31,31);fill-rule:nonzero;"/>
            <path d="M76.179,8.482l1.875,0l0,10.43c0,1.25 -0.123,2.116 -0.371,2.598c-0.455,0.885 -1.37,1.328 -2.744,1.328c-0.905,0 -1.614,-0.257 -2.129,-0.772c-0.52,-0.521 -0.781,-1.22 -0.781,-2.099l0.01,-0.313l1.807,0c0,1.074 0.4,1.611 1.201,1.611c0.436,0 0.732,-0.136 0.888,-0.41c0.163,-0.26 0.244,-0.778 0.244,-1.552l0,-1.944c-0.397,0.925 -1.005,1.387 -1.826,1.387c-0.846,0 -1.469,-0.41 -1.87,-1.231c-0.4,-0.82 -0.6,-2.102 -0.6,-3.847c0,-1.849 0.192,-3.213 0.576,-4.092c0.377,-0.84 1.006,-1.26 1.885,-1.26c0.416,0 0.755,0.101 1.015,0.303c0.261,0.202 0.534,0.56 0.82,1.074l0,-1.211Zm0.03,5.147c0,-2.416 -0.417,-3.623 -1.25,-3.623c-0.397,0 -0.687,0.271 -0.869,0.815c-0.183,0.544 -0.274,1.414 -0.274,2.612c0,1.27 0.095,2.204 0.283,2.803c0.196,0.554 0.521,0.83 0.977,0.83c0.43,0 0.726,-0.247 0.889,-0.742c0.162,-0.462 0.244,-1.361 0.244,-2.695Z" style="fill:rgb(31,31,31);fill-rule:nonzero;"/>
            <path d="M86.27,15.181l1.738,0c-0.136,2.377 -1.113,3.565 -2.929,3.565c-0.541,0 -1.005,-0.101 -1.392,-0.303c-0.387,-0.202 -0.708,-0.514 -0.962,-0.937c-0.254,-0.424 -0.441,-0.961 -0.561,-1.612c-0.121,-0.651 -0.181,-1.425 -0.181,-2.324c0,-1.784 0.249,-3.105 0.747,-3.965c0.498,-0.859 1.268,-1.289 2.31,-1.289c2.024,0 3.037,1.784 3.037,5.352l0,0.234l-4.268,0c0,2.162 0.43,3.242 1.289,3.242c0.781,0 1.172,-0.654 1.172,-1.963Zm-0.098,-2.626c-0.078,-1.062 -0.198,-1.758 -0.361,-2.09c-0.169,-0.371 -0.443,-0.557 -0.82,-0.557c-0.384,0 -0.658,0.186 -0.82,0.557c-0.163,0.332 -0.284,1.028 -0.362,2.09l2.363,0Z" style="fill:rgb(31,31,31);fill-rule:nonzero;"/>
            <path d="M91.937,8.482l1.865,0l0,1.26c0.319,-0.534 0.635,-0.908 0.947,-1.123c0.313,-0.215 0.726,-0.339 1.241,-0.371l0,1.953c-0.131,-0.02 -0.241,-0.029 -0.332,-0.029c-0.671,0 -1.149,0.172 -1.436,0.517c-0.28,0.339 -0.42,0.931 -0.42,1.778l0,6.123l-1.865,0l0,-10.108Z" style="fill:rgb(31,31,31);fill-rule:nonzero;"/>
            <path d="M99.586,3.512l5.43,0l0,1.718l-3.399,0l0,4.766l3.067,0l0,1.719l-3.067,0l0,6.875l-2.031,0l0,-15.078Z" style="fill:rgb(31,31,31);fill-rule:nonzero;"/>
            <path d="M108.671,8.482l1.875,0l0,10.108l-1.875,0l0,-10.108Zm0.879,-4.297c0.338,0 0.631,0.124 0.879,0.371c0.247,0.248 0.371,0.544 0.371,0.889c0,0.352 -0.124,0.651 -0.371,0.899c-0.248,0.247 -0.547,0.371 -0.899,0.371c-0.351,0 -0.651,-0.124 -0.898,-0.371c-0.241,-0.241 -0.361,-0.544 -0.361,-0.909c0,-0.338 0.123,-0.631 0.371,-0.879c0.267,-0.247 0.569,-0.371 0.908,-0.371Z" style="fill:rgb(31,31,31);fill-rule:nonzero;"/>
            <path d="M118.752,8.687l0,1.748c-0.456,-0.338 -0.934,-0.507 -1.436,-0.507c-0.169,0 -0.325,0.029 -0.469,0.087c-0.143,0.059 -0.268,0.139 -0.376,0.24c-0.107,0.101 -0.192,0.221 -0.253,0.361c-0.062,0.14 -0.093,0.288 -0.093,0.444c0,0.482 0.436,1.055 1.308,1.719c0.352,0.274 0.645,0.527 0.879,0.762c0.235,0.234 0.414,0.456 0.537,0.664c0.254,0.41 0.381,0.928 0.381,1.553c0,0.905 -0.263,1.63 -0.791,2.177c-0.521,0.541 -1.22,0.811 -2.099,0.811c-0.541,0 -1.088,-0.16 -1.641,-0.479l0,-1.806c0.54,0.403 1.051,0.605 1.533,0.605c0.853,0 1.28,-0.42 1.28,-1.26c0,-0.312 -0.079,-0.582 -0.235,-0.81c-0.071,-0.111 -0.185,-0.239 -0.342,-0.386c-0.156,-0.146 -0.348,-0.311 -0.576,-0.493c-0.788,-0.612 -1.321,-1.126 -1.601,-1.543c-0.274,-0.43 -0.411,-0.947 -0.411,-1.553c0,-0.814 0.251,-1.481 0.752,-2.002c0.508,-0.514 1.169,-0.771 1.983,-0.771c0.573,0 1.129,0.146 1.67,0.439Z" style="fill:rgb(31,31,31);fill-rule:nonzero;"/>
            <path d="M122.924,1.998l1.866,0l0,7.646c0.534,-0.885 1.224,-1.328 2.07,-1.328c0.82,0 1.406,0.322 1.758,0.967c0.195,0.365 0.293,1.071 0.293,2.119l0,7.188l-1.865,0l-0.01,-6.758c0,-0.684 -0.082,-1.169 -0.244,-1.455c-0.163,-0.287 -0.443,-0.43 -0.84,-0.43c-0.215,0 -0.396,0.038 -0.542,0.112c-0.147,0.075 -0.266,0.196 -0.357,0.362c-0.091,0.166 -0.158,0.382 -0.2,0.649c-0.042,0.267 -0.063,0.596 -0.063,0.986l0,6.534l-1.866,0l0,-16.592Z" style="fill:rgb(31,31,31);fill-rule:nonzero;"/>
            <path d="M138.467,3.512l2.002,0l0.908,5.566l0.156,1.006l0.323,2.187c0.052,0.371 0.099,0.71 0.141,1.016c0.043,0.306 0.08,0.583 0.113,0.83l0.097,0.742c0.02,-0.15 0.036,-0.283 0.049,-0.4c0.013,-0.117 0.026,-0.215 0.039,-0.293l0.264,-1.748l0.342,-2.295c0.032,-0.208 0.063,-0.401 0.092,-0.576c0.03,-0.176 0.057,-0.332 0.083,-0.469l0.977,-5.566l1.894,0l-2.959,15.078l-1.611,0l-2.91,-15.078Z" style="fill:rgb(31,31,31);fill-rule:nonzero;"/>
            <path d="M155.179,3.756l0,1.826c-0.521,-0.254 -0.957,-0.381 -1.309,-0.381c-0.482,0 -0.895,0.119 -1.24,0.356c-0.345,0.238 -0.63,0.604 -0.855,1.099c-0.224,0.495 -0.39,1.121 -0.498,1.88c-0.107,0.758 -0.161,1.655 -0.161,2.69c0,3.724 0.954,5.586 2.862,5.586c0.332,0 0.732,-0.104 1.201,-0.312l0,1.865c-0.489,0.273 -1.035,0.41 -1.641,0.41c-3.053,0 -4.58,-2.493 -4.58,-7.48c0,-2.696 0.373,-4.701 1.118,-6.016c0.746,-1.315 1.887,-1.973 3.423,-1.973c0.566,0 1.126,0.15 1.68,0.45Z" style="fill:rgb(31,31,31);fill-rule:nonzero;"/>
            <path d="M161.236,3.512l1.582,0l3.233,15.078l-2.012,0l-0.567,-2.94l-2.988,0l-0.576,2.94l-1.953,0l3.281,-15.078Zm1.943,10.566l-0.449,-2.402c-0.299,-1.635 -0.543,-3.379 -0.732,-5.235c-0.091,0.905 -0.208,1.822 -0.352,2.749c-0.143,0.928 -0.312,1.913 -0.508,2.954l-0.371,1.934l2.412,0Z" style="fill:rgb(31,31,31);fill-rule:nonzero;"/>
        </g>
        <g transform="matrix(1,0,0,1,-0.557213,-13.6737)">
            <path d="M170.696,331.365c0,-4.006 -3.252,-7.258 -7.258,-7.258l-19.177,0c-4.006,0 -7.258,3.252 -7.258,7.258l0,14.516c0,4.006 3.252,7.259 7.258,7.259l19.177,0c4.006,0 7.258,-3.253 7.258,-7.259l0,-14.516Z" style="fill:rgb(84,84,84);stroke:rgb(46,46,46);stroke-width:0.45px;"/>
        </g>
        <g transform="matrix(1.08282,0,0,1.08282,96.3841,70.5994)">
            <path d="M20.371,183.806l0,4.107c0.446,-0.463 0.952,-0.695 1.518,-0.695c0.651,0 1.194,0.243 1.627,0.729c0.433,0.483 0.65,1.085 0.65,1.806c0,0.744 -0.219,1.359 -0.655,1.845c-0.433,0.483 -0.981,0.724 -1.642,0.724c-0.559,0 -1.058,-0.215 -1.498,-0.645l0,0.506l-1.116,0l0,-8.377l1.116,0Zm2.654,5.997c0,-0.463 -0.126,-0.84 -0.377,-1.131c-0.255,-0.298 -0.574,-0.447 -0.958,-0.447c-0.41,0 -0.744,0.144 -1.001,0.432c-0.255,0.284 -0.382,0.654 -0.382,1.111c0,0.469 0.125,0.845 0.377,1.126c0.251,0.287 0.582,0.431 0.992,0.431c0.387,0 0.707,-0.144 0.962,-0.431c0.258,-0.291 0.387,-0.655 0.387,-1.091Z" style="fill-rule:nonzero;"/>
            <rect x="25.346" y="183.806" width="1.116" height="8.378" style="fill-rule:nonzero;"/>
            <path d="M32.276,190.031l-3.463,0c0.03,0.397 0.159,0.712 0.387,0.947c0.229,0.232 0.521,0.347 0.878,0.347c0.278,0 0.508,-0.066 0.69,-0.198c0.178,-0.132 0.382,-0.377 0.61,-0.734l0.942,0.526c-0.145,0.248 -0.299,0.46 -0.461,0.637c-0.162,0.177 -0.336,0.322 -0.521,0.436c-0.185,0.115 -0.385,0.198 -0.6,0.251c-0.215,0.053 -0.448,0.079 -0.699,0.079c-0.721,0 -1.3,-0.231 -1.736,-0.694c-0.437,-0.466 -0.655,-1.085 -0.655,-1.855c0,-0.764 0.211,-1.383 0.635,-1.855c0.426,-0.467 0.992,-0.7 1.696,-0.7c0.711,0 1.273,0.227 1.687,0.68c0.41,0.45 0.615,1.073 0.615,1.87l-0.005,0.263Zm-1.146,-0.913c-0.156,-0.595 -0.531,-0.893 -1.126,-0.893c-0.136,0 -0.263,0.021 -0.382,0.062c-0.119,0.041 -0.227,0.101 -0.325,0.179c-0.097,0.077 -0.181,0.171 -0.25,0.28c-0.07,0.109 -0.123,0.233 -0.159,0.372l2.242,0Z" style="fill-rule:nonzero;"/>
            <path d="M37.896,190.031l-3.463,0c0.03,0.397 0.159,0.712 0.387,0.947c0.228,0.232 0.521,0.347 0.878,0.347c0.278,0 0.508,-0.066 0.69,-0.198c0.178,-0.132 0.382,-0.377 0.61,-0.734l0.942,0.526c-0.145,0.248 -0.299,0.46 -0.461,0.637c-0.162,0.177 -0.336,0.322 -0.521,0.436c-0.185,0.115 -0.385,0.198 -0.6,0.251c-0.215,0.053 -0.448,0.079 -0.699,0.079c-0.721,0 -1.3,-0.231 -1.736,-0.694c-0.437,-0.466 -0.655,-1.085 -0.655,-1.855c0,-0.764 0.211,-1.383 0.635,-1.855c0.426,-0.467 0.992,-0.7 1.696,-0.7c0.711,0 1.273,0.227 1.687,0.68c0.41,0.45 0.615,1.073 0.615,1.87l-0.005,0.263Zm-1.146,-0.913c-0.156,-0.595 -0.531,-0.893 -1.126,-0.893c-0.136,0 -0.263,0.021 -0.382,0.062c-0.119,0.041 -0.227,0.101 -0.325,0.179c-0.098,0.077 -0.181,0.171 -0.25,0.28c-0.07,0.109 -0.123,0.233 -0.159,0.372l2.242,0Z" style="fill-rule:nonzero;"/>
            <path d="M42.677,183.806l1.121,0l0,8.377l-1.121,0l0,-0.506c-0.439,0.43 -0.937,0.645 -1.493,0.645c-0.661,0 -1.21,-0.241 -1.646,-0.724c-0.434,-0.493 -0.65,-1.108 -0.65,-1.845c0,-0.721 0.216,-1.323 0.65,-1.806c0.429,-0.486 0.97,-0.729 1.622,-0.729c0.565,0 1.071,0.232 1.517,0.695l0,-4.107Zm-2.648,5.947c0,0.463 0.124,0.84 0.372,1.131c0.254,0.294 0.575,0.441 0.962,0.441c0.413,0 0.747,-0.142 1.002,-0.426c0.255,-0.295 0.382,-0.668 0.382,-1.121c0,-0.453 -0.127,-0.827 -0.382,-1.121c-0.255,-0.288 -0.585,-0.432 -0.992,-0.432c-0.384,0 -0.705,0.146 -0.962,0.437c-0.255,0.294 -0.382,0.658 -0.382,1.091Z" style="fill-rule:nonzero;"/>
        </g>
        <g transform="matrix(1.08282,0,0,1.08282,13.2865,71.5152)">
            <path d="M23.015,187.56l0,1.484c-0.255,-0.311 -0.483,-0.525 -0.685,-0.64c-0.198,-0.119 -0.431,-0.179 -0.699,-0.179c-0.42,0 -0.769,0.147 -1.047,0.442c-0.277,0.294 -0.416,0.663 -0.416,1.106c0,0.453 0.134,0.825 0.401,1.116c0.272,0.291 0.617,0.436 1.037,0.436c0.268,0 0.504,-0.058 0.709,-0.173c0.199,-0.113 0.432,-0.331 0.7,-0.655l0,1.473c-0.453,0.235 -0.906,0.352 -1.359,0.352c-0.748,0 -1.373,-0.241 -1.875,-0.724c-0.503,-0.486 -0.754,-1.089 -0.754,-1.81c0,-0.721 0.254,-1.33 0.764,-1.826c0.509,-0.496 1.134,-0.744 1.875,-0.744c0.476,0 0.926,0.114 1.349,0.342Z" style="fill-rule:nonzero;"/>
            <path d="M25.212,187.352l0,2.773c0,0.8 0.316,1.2 0.948,1.2c0.631,0 0.947,-0.4 0.947,-1.2l0,-2.773l1.116,0l0,2.798c0,0.387 -0.048,0.721 -0.144,1.002c-0.092,0.251 -0.253,0.478 -0.481,0.679c-0.377,0.328 -0.856,0.491 -1.438,0.491c-0.579,0 -1.057,-0.163 -1.434,-0.491c-0.231,-0.201 -0.395,-0.428 -0.491,-0.679c-0.092,-0.225 -0.139,-0.559 -0.139,-1.002l0,-2.798l1.116,0Z" style="fill-rule:nonzero;"/>
            <path d="M29.632,187.352l1.116,0l0,0.432c0.205,-0.215 0.387,-0.362 0.546,-0.442c0.162,-0.082 0.353,-0.124 0.575,-0.124c0.294,0 0.602,0.096 0.923,0.288l-0.511,1.022c-0.212,-0.152 -0.419,-0.228 -0.62,-0.228c-0.609,0 -0.913,0.459 -0.913,1.379l0,2.504l-1.116,0l0,-4.831Z" style="fill-rule:nonzero;"/>
            <path d="M34.468,187.352l1.25,2.713l1.245,-2.713l1.255,0l-2.51,5.164l-2.49,-5.164l1.25,0Z" style="fill-rule:nonzero;"/>
            <path d="M43.198,190.031l-3.462,0c0.03,0.397 0.159,0.712 0.387,0.947c0.228,0.232 0.521,0.347 0.878,0.347c0.278,0 0.507,-0.066 0.689,-0.198c0.179,-0.132 0.382,-0.377 0.61,-0.734l0.943,0.526c-0.146,0.248 -0.299,0.46 -0.461,0.637c-0.162,0.177 -0.336,0.322 -0.521,0.436c-0.185,0.115 -0.386,0.198 -0.6,0.251c-0.215,0.053 -0.449,0.079 -0.7,0.079c-0.721,0 -1.299,-0.231 -1.736,-0.694c-0.436,-0.466 -0.655,-1.085 -0.655,-1.855c0,-0.764 0.212,-1.383 0.635,-1.855c0.427,-0.467 0.992,-0.7 1.697,-0.7c0.711,0 1.273,0.227 1.686,0.68c0.41,0.45 0.615,1.073 0.615,1.87l-0.005,0.263Zm-1.146,-0.913c-0.155,-0.595 -0.53,-0.893 -1.126,-0.893c-0.135,0 -0.262,0.021 -0.382,0.062c-0.119,0.041 -0.227,0.101 -0.324,0.179c-0.098,0.077 -0.181,0.171 -0.251,0.28c-0.069,0.109 -0.122,0.233 -0.159,0.372l2.242,0Z" style="fill-rule:nonzero;"/>
        </g>
        <g transform="matrix(1.01804,0,0,1.01804,-2.25291,9.31117)">
            <path d="M28.478,224.07l124.28,0.07" style="fill:none;stroke:black;stroke-opacity:0.458824;stroke-width:0.44px;"/>
        </g>
    </g>
</svg>
